<ttFont>
    <TTGlyph name="A" xMin="-5" yMin="0" xMax="610" yMax="677">
      <contour>
        <pt x="255" y="677" on="1"/>
        <pt x="349" y="677" on="1"/>
        <pt x="610" y="0" on="1"/>
        <pt x="483" y="0" on="1"/>
        <pt x="421" y="177" on="1"/>
        <pt x="177" y="177" on="1"/>
        <pt x="113" y="0" on="1"/>
        <pt x="-5" y="0" on="1"/>
      </contour>
      <contour>
        <pt x="390" y="265" on="1"/>
        <pt x="358" y="355" on="0"/>
        <pt x="312" y="502" on="0"/>
        <pt x="300" y="544" on="1"/>
        <pt x="286" y="499" on="0"/>
        <pt x="240" y="353" on="0"/>
        <pt x="209" y="265" on="1"/>
      </contour>
    </TTGlyph>
    <TTGlyph name="AE" xMin="-5" yMin="0" xMax="850" yMax="677">
      <contour>
        <pt x="435" y="177" on="1"/>
        <pt x="234" y="177" on="1"/>
        <pt x="133" y="0" on="1"/>
        <pt x="-5" y="0" on="1"/>
        <pt x="405" y="677" on="1"/>
        <pt x="835" y="677" on="1"/>
        <pt x="835" y="587" on="1"/>
        <pt x="552" y="587" on="1"/>
        <pt x="552" y="398" on="1"/>
        <pt x="785" y="398" on="1"/>
        <pt x="770" y="307" on="1"/>
        <pt x="552" y="307" on="1"/>
        <pt x="552" y="90" on="1"/>
        <pt x="850" y="90" on="1"/>
        <pt x="850" y="0" on="1"/>
        <pt x="435" y="0" on="1"/>
      </contour>
      <contour>
        <pt x="429" y="542" on="0"/>
        <pt x="395" y="477" on="0"/>
        <pt x="352" y="394" on="0"/>
        <pt x="304" y="303" on="0"/>
        <pt x="284" y="265" on="1"/>
        <pt x="435" y="265" on="1"/>
        <pt x="435" y="555" on="1"/>
      </contour>
    </TTGlyph>
    <TTGlyph name="Aacute" xMin="-5" yMin="0" xMax="610" yMax="928">
      <contour>
        <pt x="255" y="677" on="1"/>
        <pt x="349" y="677" on="1"/>
        <pt x="610" y="0" on="1"/>
        <pt x="483" y="0" on="1"/>
        <pt x="421" y="177" on="1"/>
        <pt x="177" y="177" on="1"/>
        <pt x="113" y="0" on="1"/>
        <pt x="-5" y="0" on="1"/>
      </contour>
      <contour>
        <pt x="390" y="265" on="1"/>
        <pt x="358" y="355" on="0"/>
        <pt x="312" y="502" on="0"/>
        <pt x="300" y="544" on="1"/>
        <pt x="286" y="499" on="0"/>
        <pt x="240" y="353" on="0"/>
        <pt x="209" y="265" on="1"/>
      </contour>
      <contour>
        <pt x="271" y="776" on="1"/>
        <pt x="498" y="928" on="1"/>
        <pt x="550" y="846" on="1"/>
        <pt x="515" y="814" on="0"/>
        <pt x="428" y="766" on="0"/>
        <pt x="351" y="734" on="0"/>
        <pt x="325" y="726" on="1"/>
        <pt x="299" y="718" on="1"/>
      </contour>
    </TTGlyph>
    <TTGlyph name="Acircumflex" xMin="-5" yMin="0" xMax="610" yMax="928">
      <contour>
        <pt x="255" y="677" on="1"/>
        <pt x="349" y="677" on="1"/>
        <pt x="610" y="0" on="1"/>
        <pt x="483" y="0" on="1"/>
        <pt x="421" y="177" on="1"/>
        <pt x="177" y="177" on="1"/>
        <pt x="113" y="0" on="1"/>
        <pt x="-5" y="0" on="1"/>
      </contour>
      <contour>
        <pt x="390" y="265" on="1"/>
        <pt x="358" y="355" on="0"/>
        <pt x="312" y="502" on="0"/>
        <pt x="300" y="544" on="1"/>
        <pt x="286" y="499" on="0"/>
        <pt x="240" y="353" on="0"/>
        <pt x="209" y="265" on="1"/>
      </contour>
      <contour>
        <pt x="102" y="771" on="1"/>
        <pt x="300" y="928" on="1"/>
        <pt x="498" y="771" on="1"/>
        <pt x="454" y="718" on="1"/>
        <pt x="442" y="724" on="1"/>
        <pt x="429" y="729" on="0"/>
        <pt x="385" y="752" on="0"/>
        <pt x="330" y="786" on="0"/>
        <pt x="300" y="808" on="1"/>
        <pt x="270" y="786" on="0"/>
        <pt x="214" y="752" on="0"/>
        <pt x="171" y="729" on="0"/>
        <pt x="159" y="724" on="1"/>
        <pt x="146" y="718" on="1"/>
      </contour>
    </TTGlyph>
    <TTGlyph name="Adieresis" xMin="-5" yMin="0" xMax="610" yMax="874">
      <contour>
        <pt x="255" y="677" on="1"/>
        <pt x="349" y="677" on="1"/>
        <pt x="610" y="0" on="1"/>
        <pt x="483" y="0" on="1"/>
        <pt x="421" y="177" on="1"/>
        <pt x="177" y="177" on="1"/>
        <pt x="113" y="0" on="1"/>
        <pt x="-5" y="0" on="1"/>
      </contour>
      <contour>
        <pt x="390" y="265" on="1"/>
        <pt x="358" y="355" on="0"/>
        <pt x="312" y="502" on="0"/>
        <pt x="300" y="544" on="1"/>
        <pt x="286" y="499" on="0"/>
        <pt x="240" y="353" on="0"/>
        <pt x="209" y="265" on="1"/>
      </contour>
      <contour>
        <pt x="264" y="784" on="0"/>
        <pt x="232" y="747" on="0"/>
        <pt x="200" y="747" on="1"/>
        <pt x="171" y="747" on="0"/>
        <pt x="140" y="783" on="0"/>
        <pt x="140" y="809" on="1"/>
        <pt x="140" y="837" on="0"/>
        <pt x="172" y="874" on="0"/>
        <pt x="203" y="874" on="1"/>
        <pt x="232" y="874" on="0"/>
        <pt x="264" y="838" on="0"/>
        <pt x="264" y="811" on="1"/>
      </contour>
      <contour>
        <pt x="464" y="784" on="0"/>
        <pt x="432" y="747" on="0"/>
        <pt x="400" y="747" on="1"/>
        <pt x="371" y="747" on="0"/>
        <pt x="339" y="783" on="0"/>
        <pt x="339" y="809" on="1"/>
        <pt x="339" y="837" on="0"/>
        <pt x="371" y="874" on="0"/>
        <pt x="403" y="874" on="1"/>
        <pt x="432" y="874" on="0"/>
        <pt x="464" y="838" on="0"/>
        <pt x="464" y="811" on="1"/>
      </contour>
    </TTGlyph>
    <TTGlyph name="Agrave" xMin="-5" yMin="0" xMax="610" yMax="928">
      <contour>
        <pt x="255" y="677" on="1"/>
        <pt x="349" y="677" on="1"/>
        <pt x="610" y="0" on="1"/>
        <pt x="483" y="0" on="1"/>
        <pt x="421" y="177" on="1"/>
        <pt x="177" y="177" on="1"/>
        <pt x="113" y="0" on="1"/>
        <pt x="-5" y="0" on="1"/>
      </contour>
      <contour>
        <pt x="390" y="265" on="1"/>
        <pt x="358" y="355" on="0"/>
        <pt x="312" y="502" on="0"/>
        <pt x="300" y="544" on="1"/>
        <pt x="286" y="499" on="0"/>
        <pt x="240" y="353" on="0"/>
        <pt x="209" y="265" on="1"/>
      </contour>
      <contour>
        <pt x="296" y="718" on="1"/>
        <pt x="270" y="726" on="1"/>
        <pt x="244" y="734" on="0"/>
        <pt x="167" y="766" on="0"/>
        <pt x="80" y="814" on="0"/>
        <pt x="45" y="846" on="1"/>
        <pt x="97" y="928" on="1"/>
        <pt x="324" y="776" on="1"/>
      </contour>
    </TTGlyph>
    <TTGlyph name="Aring" xMin="-5" yMin="0" xMax="610" yMax="827">
      <contour>
        <pt x="202" y="770" on="0"/>
        <pt x="259" y="827" on="0"/>
        <pt x="303" y="827" on="1"/>
        <pt x="346" y="827" on="0"/>
        <pt x="401" y="771" on="0"/>
        <pt x="401" y="727" on="1"/>
        <pt x="401" y="701" on="0"/>
        <pt x="379" y="659" on="0"/>
        <pt x="361" y="645" on="1"/>
        <pt x="610" y="0" on="1"/>
        <pt x="483" y="0" on="1"/>
        <pt x="421" y="177" on="1"/>
        <pt x="177" y="177" on="1"/>
        <pt x="113" y="0" on="1"/>
        <pt x="-5" y="0" on="1"/>
        <pt x="242" y="644" on="1"/>
        <pt x="223" y="658" on="0"/>
        <pt x="202" y="701" on="0"/>
        <pt x="202" y="727" on="1"/>
      </contour>
      <contour>
        <pt x="390" y="265" on="1"/>
        <pt x="358" y="355" on="0"/>
        <pt x="312" y="502" on="0"/>
        <pt x="300" y="544" on="1"/>
        <pt x="286" y="499" on="0"/>
        <pt x="240" y="353" on="0"/>
        <pt x="209" y="265" on="1"/>
      </contour>
      <contour>
        <pt x="258" y="709" on="0"/>
        <pt x="273" y="682" on="0"/>
        <pt x="287" y="677" on="1"/>
        <pt x="314" y="677" on="1"/>
        <pt x="345" y="685" on="0"/>
        <pt x="345" y="727" on="1"/>
        <pt x="345" y="750" on="0"/>
        <pt x="322" y="777" on="0"/>
        <pt x="301" y="777" on="1"/>
        <pt x="258" y="777" on="0"/>
        <pt x="258" y="728" on="1"/>
      </contour>
    </TTGlyph>
    <TTGlyph name="Atilde" xMin="-5" yMin="0" xMax="610" yMax="857">
      <contour>
        <pt x="255" y="677" on="1"/>
        <pt x="349" y="677" on="1"/>
        <pt x="610" y="0" on="1"/>
        <pt x="483" y="0" on="1"/>
        <pt x="421" y="177" on="1"/>
        <pt x="177" y="177" on="1"/>
        <pt x="113" y="0" on="1"/>
        <pt x="-5" y="0" on="1"/>
      </contour>
      <contour>
        <pt x="390" y="265" on="1"/>
        <pt x="358" y="355" on="0"/>
        <pt x="312" y="502" on="0"/>
        <pt x="300" y="544" on="1"/>
        <pt x="286" y="499" on="0"/>
        <pt x="240" y="353" on="0"/>
        <pt x="209" y="265" on="1"/>
      </contour>
      <contour>
        <pt x="137" y="834" on="1"/>
        <pt x="148" y="840" on="0"/>
        <pt x="160" y="845" on="1"/>
        <pt x="171" y="850" on="0"/>
        <pt x="199" y="857" on="0"/>
        <pt x="216" y="857" on="1"/>
        <pt x="253" y="857" on="0"/>
        <pt x="332" y="837" on="0"/>
        <pt x="369" y="837" on="1"/>
        <pt x="386" y="837" on="0"/>
        <pt x="415" y="841" on="0"/>
        <pt x="426" y="844" on="1"/>
        <pt x="438" y="847" on="0"/>
        <pt x="449" y="851" on="1"/>
        <pt x="449" y="777" on="1"/>
        <pt x="438" y="770" on="0"/>
        <pt x="426" y="765" on="1"/>
        <pt x="415" y="760" on="0"/>
        <pt x="386" y="754" on="0"/>
        <pt x="369" y="754" on="1"/>
        <pt x="332" y="754" on="0"/>
        <pt x="253" y="774" on="0"/>
        <pt x="216" y="774" on="1"/>
        <pt x="199" y="774" on="0"/>
        <pt x="171" y="769" on="0"/>
        <pt x="160" y="767" on="1"/>
        <pt x="148" y="763" on="0"/>
        <pt x="137" y="760" on="1"/>
      </contour>
    </TTGlyph>
    <TTGlyph name="B" xMin="70" yMin="-1" xMax="529" yMax="679">
      <contour>
        <pt x="70" y="677" on="1"/>
        <pt x="77" y="677" on="0"/>
        <pt x="127" y="678" on="0"/>
        <pt x="189" y="678" on="0"/>
        <pt x="251" y="679" on="0"/>
        <pt x="271" y="679" on="1"/>
        <pt x="387" y="679" on="0"/>
        <pt x="508" y="587" on="0"/>
        <pt x="508" y="503" on="1"/>
        <pt x="508" y="454" on="0"/>
        <pt x="454" y="376" on="0"/>
        <pt x="406" y="352" on="1"/>
        <pt x="466" y="329" on="0"/>
        <pt x="529" y="245" on="0"/>
        <pt x="529" y="190" on="1"/>
        <pt x="529" y="104" on="0"/>
        <pt x="399" y="-1" on="0"/>
        <pt x="267" y="-1" on="1"/>
        <pt x="240" y="-1" on="0"/>
        <pt x="178" y="-1" on="0"/>
        <pt x="122" y="0" on="0"/>
        <pt x="79" y="0" on="0"/>
        <pt x="70" y="0" on="1"/>
      </contour>
      <contour>
        <pt x="189" y="85" on="1"/>
        <pt x="275" y="85" on="1"/>
        <pt x="343" y="85" on="0"/>
        <pt x="402" y="146" on="0"/>
        <pt x="402" y="192" on="1"/>
        <pt x="402" y="213" on="0"/>
        <pt x="389" y="253" on="0"/>
        <pt x="357" y="285" on="0"/>
        <pt x="304" y="304" on="0"/>
        <pt x="264" y="304" on="1"/>
        <pt x="240" y="304" on="0"/>
        <pt x="203" y="304" on="0"/>
        <pt x="189" y="303" on="1"/>
      </contour>
      <contour>
        <pt x="189" y="389" on="1"/>
        <pt x="266" y="389" on="1"/>
        <pt x="329" y="389" on="0"/>
        <pt x="383" y="447" on="0"/>
        <pt x="383" y="489" on="1"/>
        <pt x="383" y="508" on="0"/>
        <pt x="371" y="546" on="0"/>
        <pt x="342" y="576" on="0"/>
        <pt x="293" y="594" on="0"/>
        <pt x="256" y="594" on="1"/>
        <pt x="234" y="594" on="0"/>
        <pt x="201" y="594" on="0"/>
        <pt x="189" y="593" on="1"/>
      </contour>
    </TTGlyph>
    <TTGlyph name="C" xMin="47" yMin="-6" xMax="503" yMax="686">
      <contour>
        <pt x="442" y="541" on="1"/>
        <pt x="418" y="567" on="0"/>
        <pt x="365" y="594" on="0"/>
        <pt x="330" y="594" on="1"/>
        <pt x="287" y="594" on="0"/>
        <pt x="228" y="555" on="0"/>
        <pt x="192" y="486" on="0"/>
        <pt x="176" y="394" on="0"/>
        <pt x="176" y="341" on="1"/>
        <pt x="176" y="288" on="0"/>
        <pt x="191" y="196" on="0"/>
        <pt x="228" y="126" on="0"/>
        <pt x="291" y="86" on="0"/>
        <pt x="339" y="86" on="1"/>
        <pt x="362" y="86" on="0"/>
        <pt x="404" y="94" on="0"/>
        <pt x="439" y="103" on="0"/>
        <pt x="462" y="111" on="0"/>
        <pt x="465" y="112" on="1"/>
        <pt x="493" y="28" on="1"/>
        <pt x="480" y="23" on="1"/>
        <pt x="467" y="18" on="0"/>
        <pt x="420" y="5" on="0"/>
        <pt x="355" y="-6" on="0"/>
        <pt x="316" y="-6" on="1"/>
        <pt x="182" y="-6" on="0"/>
        <pt x="47" y="165" on="0"/>
        <pt x="47" y="330" on="1"/>
        <pt x="47" y="409" on="0"/>
        <pt x="83" y="540" on="0"/>
        <pt x="156" y="634" on="0"/>
        <pt x="267" y="686" on="0"/>
        <pt x="342" y="686" on="1"/>
        <pt x="402" y="686" on="0"/>
        <pt x="479" y="642" on="0"/>
        <pt x="503" y="614" on="1"/>
      </contour>
    </TTGlyph>
    <TTGlyph name="Ccedilla" xMin="47" yMin="-218" xMax="503" yMax="686">
      <contour>
        <pt x="442" y="541" on="1"/>
        <pt x="418" y="567" on="0"/>
        <pt x="365" y="594" on="0"/>
        <pt x="330" y="594" on="1"/>
        <pt x="287" y="594" on="0"/>
        <pt x="228" y="555" on="0"/>
        <pt x="192" y="486" on="0"/>
        <pt x="176" y="394" on="0"/>
        <pt x="176" y="341" on="1"/>
        <pt x="176" y="288" on="0"/>
        <pt x="191" y="196" on="0"/>
        <pt x="228" y="126" on="0"/>
        <pt x="291" y="86" on="0"/>
        <pt x="339" y="86" on="1"/>
        <pt x="362" y="86" on="0"/>
        <pt x="404" y="94" on="0"/>
        <pt x="439" y="103" on="0"/>
        <pt x="462" y="111" on="0"/>
        <pt x="465" y="112" on="1"/>
        <pt x="493" y="28" on="1"/>
        <pt x="483" y="24" on="1"/>
        <pt x="472" y="19" on="0"/>
        <pt x="434" y="8" on="0"/>
        <pt x="381" y="-3" on="0"/>
        <pt x="349" y="-5" on="1"/>
        <pt x="340" y="-47" on="1"/>
        <pt x="379" y="-50" on="0"/>
        <pt x="430" y="-89" on="0"/>
        <pt x="430" y="-126" on="1"/>
        <pt x="430" y="-153" on="0"/>
        <pt x="409" y="-189" on="0"/>
        <pt x="375" y="-210" on="0"/>
        <pt x="333" y="-218" on="0"/>
        <pt x="313" y="-218" on="1"/>
        <pt x="288" y="-218" on="0"/>
        <pt x="243" y="-208" on="0"/>
        <pt x="226" y="-201" on="1"/>
        <pt x="242" y="-147" on="1"/>
        <pt x="253" y="-151" on="0"/>
        <pt x="289" y="-160" on="0"/>
        <pt x="306" y="-160" on="1"/>
        <pt x="333" y="-160" on="0"/>
        <pt x="356" y="-144" on="0"/>
        <pt x="356" y="-129" on="1"/>
        <pt x="356" y="-117" on="0"/>
        <pt x="338" y="-101" on="0"/>
        <pt x="311" y="-90" on="0"/>
        <pt x="279" y="-85" on="0"/>
        <pt x="264" y="-85" on="1"/>
        <pt x="284" y="-4" on="1"/>
        <pt x="166" y="6" on="0"/>
        <pt x="47" y="176" on="0"/>
        <pt x="47" y="330" on="1"/>
        <pt x="47" y="409" on="0"/>
        <pt x="83" y="540" on="0"/>
        <pt x="156" y="634" on="0"/>
        <pt x="267" y="686" on="0"/>
        <pt x="342" y="686" on="1"/>
        <pt x="402" y="686" on="0"/>
        <pt x="479" y="642" on="0"/>
        <pt x="503" y="614" on="1"/>
      </contour>
    </TTGlyph>
    <TTGlyph name="D" xMin="70" yMin="-2" xMax="600" yMax="679">
      <contour>
        <pt x="70" y="677" on="1"/>
        <pt x="77" y="677" on="0"/>
        <pt x="123" y="678" on="0"/>
        <pt x="181" y="678" on="0"/>
        <pt x="243" y="679" on="0"/>
        <pt x="266" y="679" on="1"/>
        <pt x="436" y="679" on="0"/>
        <pt x="600" y="510" on="0"/>
        <pt x="600" y="343" on="1"/>
        <pt x="600" y="176" on="0"/>
        <pt x="432" y="-2" on="0"/>
        <pt x="253" y="-2" on="1"/>
        <pt x="222" y="-2" on="0"/>
        <pt x="163" y="-1" on="0"/>
        <pt x="114" y="-1" on="0"/>
        <pt x="78" y="0" on="0"/>
        <pt x="70" y="0" on="1"/>
      </contour>
      <contour>
        <pt x="229" y="590" on="0"/>
        <pt x="198" y="589" on="0"/>
        <pt x="189" y="589" on="1"/>
        <pt x="189" y="88" on="1"/>
        <pt x="200" y="87" on="0"/>
        <pt x="235" y="87" on="0"/>
        <pt x="268" y="87" on="1"/>
        <pt x="373" y="87" on="0"/>
        <pt x="471" y="210" on="0"/>
        <pt x="471" y="332" on="1"/>
        <pt x="471" y="390" on="0"/>
        <pt x="448" y="485" on="0"/>
        <pt x="395" y="553" on="0"/>
        <pt x="312" y="590" on="0"/>
        <pt x="252" y="590" on="1"/>
      </contour>
    </TTGlyph>
    <TTGlyph name="E" xMin="70" yMin="0" xMax="487" yMax="677">
      <contour>
        <pt x="70" y="677" on="1"/>
        <pt x="472" y="677" on="1"/>
        <pt x="472" y="587" on="1"/>
        <pt x="189" y="587" on="1"/>
        <pt x="189" y="398" on="1"/>
        <pt x="422" y="398" on="1"/>
        <pt x="407" y="307" on="1"/>
        <pt x="189" y="307" on="1"/>
        <pt x="189" y="90" on="1"/>
        <pt x="487" y="90" on="1"/>
        <pt x="487" y="0" on="1"/>
        <pt x="70" y="0" on="1"/>
      </contour>
    </TTGlyph>
    <TTGlyph name="Eacute" xMin="70" yMin="0" xMax="534" yMax="928">
      <contour>
        <pt x="70" y="677" on="1"/>
        <pt x="472" y="677" on="1"/>
        <pt x="472" y="587" on="1"/>
        <pt x="189" y="587" on="1"/>
        <pt x="189" y="398" on="1"/>
        <pt x="422" y="398" on="1"/>
        <pt x="407" y="307" on="1"/>
        <pt x="189" y="307" on="1"/>
        <pt x="189" y="90" on="1"/>
        <pt x="487" y="90" on="1"/>
        <pt x="487" y="0" on="1"/>
        <pt x="70" y="0" on="1"/>
      </contour>
      <contour>
        <pt x="255" y="776" on="1"/>
        <pt x="482" y="928" on="1"/>
        <pt x="534" y="846" on="1"/>
        <pt x="499" y="814" on="0"/>
        <pt x="412" y="766" on="0"/>
        <pt x="335" y="734" on="0"/>
        <pt x="309" y="726" on="1"/>
        <pt x="283" y="718" on="1"/>
      </contour>
    </TTGlyph>
    <TTGlyph name="Ecircumflex" xMin="70" yMin="0" xMax="487" yMax="928">
      <contour>
        <pt x="70" y="677" on="1"/>
        <pt x="472" y="677" on="1"/>
        <pt x="472" y="587" on="1"/>
        <pt x="189" y="587" on="1"/>
        <pt x="189" y="398" on="1"/>
        <pt x="422" y="398" on="1"/>
        <pt x="407" y="307" on="1"/>
        <pt x="189" y="307" on="1"/>
        <pt x="189" y="90" on="1"/>
        <pt x="487" y="90" on="1"/>
        <pt x="487" y="0" on="1"/>
        <pt x="70" y="0" on="1"/>
      </contour>
      <contour>
        <pt x="85" y="771" on="1"/>
        <pt x="283" y="928" on="1"/>
        <pt x="481" y="771" on="1"/>
        <pt x="437" y="718" on="1"/>
        <pt x="425" y="724" on="1"/>
        <pt x="412" y="729" on="0"/>
        <pt x="368" y="752" on="0"/>
        <pt x="313" y="786" on="0"/>
        <pt x="283" y="808" on="1"/>
        <pt x="253" y="786" on="0"/>
        <pt x="197" y="752" on="0"/>
        <pt x="154" y="729" on="0"/>
        <pt x="142" y="724" on="1"/>
        <pt x="129" y="718" on="1"/>
      </contour>
    </TTGlyph>
    <TTGlyph name="Edieresis" xMin="70" yMin="0" xMax="487" yMax="874">
      <contour>
        <pt x="70" y="677" on="1"/>
        <pt x="472" y="677" on="1"/>
        <pt x="472" y="587" on="1"/>
        <pt x="189" y="587" on="1"/>
        <pt x="189" y="398" on="1"/>
        <pt x="422" y="398" on="1"/>
        <pt x="407" y="307" on="1"/>
        <pt x="189" y="307" on="1"/>
        <pt x="189" y="90" on="1"/>
        <pt x="487" y="90" on="1"/>
        <pt x="487" y="0" on="1"/>
        <pt x="70" y="0" on="1"/>
      </contour>
      <contour>
        <pt x="218" y="784" on="0"/>
        <pt x="186" y="747" on="0"/>
        <pt x="154" y="747" on="1"/>
        <pt x="125" y="747" on="0"/>
        <pt x="94" y="783" on="0"/>
        <pt x="94" y="809" on="1"/>
        <pt x="94" y="837" on="0"/>
        <pt x="126" y="874" on="0"/>
        <pt x="157" y="874" on="1"/>
        <pt x="186" y="874" on="0"/>
        <pt x="218" y="838" on="0"/>
        <pt x="218" y="811" on="1"/>
      </contour>
      <contour>
        <pt x="418" y="784" on="0"/>
        <pt x="386" y="747" on="0"/>
        <pt x="354" y="747" on="1"/>
        <pt x="325" y="747" on="0"/>
        <pt x="293" y="783" on="0"/>
        <pt x="293" y="809" on="1"/>
        <pt x="293" y="837" on="0"/>
        <pt x="325" y="874" on="0"/>
        <pt x="357" y="874" on="1"/>
        <pt x="386" y="874" on="0"/>
        <pt x="418" y="838" on="0"/>
        <pt x="418" y="811" on="1"/>
      </contour>
    </TTGlyph>
    <TTGlyph name="Egrave" xMin="28" yMin="0" xMax="487" yMax="928">
      <contour>
        <pt x="70" y="677" on="1"/>
        <pt x="472" y="677" on="1"/>
        <pt x="472" y="587" on="1"/>
        <pt x="189" y="587" on="1"/>
        <pt x="189" y="398" on="1"/>
        <pt x="422" y="398" on="1"/>
        <pt x="407" y="307" on="1"/>
        <pt x="189" y="307" on="1"/>
        <pt x="189" y="90" on="1"/>
        <pt x="487" y="90" on="1"/>
        <pt x="487" y="0" on="1"/>
        <pt x="70" y="0" on="1"/>
      </contour>
      <contour>
        <pt x="279" y="718" on="1"/>
        <pt x="253" y="726" on="1"/>
        <pt x="227" y="734" on="0"/>
        <pt x="150" y="766" on="0"/>
        <pt x="63" y="814" on="0"/>
        <pt x="28" y="846" on="1"/>
        <pt x="80" y="928" on="1"/>
        <pt x="307" y="776" on="1"/>
      </contour>
    </TTGlyph>
    <TTGlyph name="Eth" xMin="0" yMin="-2" xMax="600" yMax="679">
      <contour>
        <pt x="70" y="303" on="1"/>
        <pt x="0" y="303" on="1"/>
        <pt x="0" y="391" on="1"/>
        <pt x="70" y="391" on="1"/>
        <pt x="70" y="677" on="1"/>
        <pt x="77" y="677" on="0"/>
        <pt x="123" y="678" on="0"/>
        <pt x="181" y="678" on="0"/>
        <pt x="243" y="679" on="0"/>
        <pt x="266" y="679" on="1"/>
        <pt x="436" y="679" on="0"/>
        <pt x="600" y="510" on="0"/>
        <pt x="600" y="343" on="1"/>
        <pt x="600" y="176" on="0"/>
        <pt x="432" y="-2" on="0"/>
        <pt x="253" y="-2" on="1"/>
        <pt x="222" y="-2" on="0"/>
        <pt x="163" y="-1" on="0"/>
        <pt x="114" y="-1" on="0"/>
        <pt x="78" y="0" on="0"/>
        <pt x="70" y="0" on="1"/>
      </contour>
      <contour>
        <pt x="229" y="590" on="0"/>
        <pt x="198" y="589" on="0"/>
        <pt x="189" y="589" on="1"/>
        <pt x="189" y="391" on="1"/>
        <pt x="369" y="391" on="1"/>
        <pt x="369" y="303" on="1"/>
        <pt x="189" y="303" on="1"/>
        <pt x="189" y="88" on="1"/>
        <pt x="200" y="87" on="0"/>
        <pt x="235" y="87" on="0"/>
        <pt x="268" y="87" on="1"/>
        <pt x="373" y="87" on="0"/>
        <pt x="471" y="210" on="0"/>
        <pt x="471" y="332" on="1"/>
        <pt x="471" y="390" on="0"/>
        <pt x="448" y="485" on="0"/>
        <pt x="395" y="553" on="0"/>
        <pt x="312" y="590" on="0"/>
        <pt x="252" y="590" on="1"/>
      </contour>
    </TTGlyph>
    <TTGlyph name="Euro" xMin="35" yMin="-6" xMax="498" yMax="643">
      <contour>
        <pt x="95" y="424" on="1"/>
        <pt x="120" y="524" on="0"/>
        <pt x="252" y="643" on="0"/>
        <pt x="348" y="643" on="1"/>
        <pt x="405" y="643" on="0"/>
        <pt x="476" y="601" on="0"/>
        <pt x="498" y="575" on="1"/>
        <pt x="441" y="504" on="1"/>
        <pt x="419" y="528" on="0"/>
        <pt x="369" y="554" on="0"/>
        <pt x="336" y="554" on="1"/>
        <pt x="292" y="554" on="0"/>
        <pt x="231" y="482" on="0"/>
        <pt x="217" y="424" on="1"/>
        <pt x="433" y="424" on="1"/>
        <pt x="418" y="335" on="1"/>
        <pt x="205" y="335" on="1"/>
        <pt x="205" y="330" on="0"/>
        <pt x="204" y="319" on="0"/>
        <pt x="204" y="309" on="1"/>
        <pt x="204" y="295" on="0"/>
        <pt x="207" y="274" on="1"/>
        <pt x="413" y="274" on="1"/>
        <pt x="398" y="186" on="1"/>
        <pt x="224" y="186" on="1"/>
        <pt x="241" y="138" on="0"/>
        <pt x="301" y="83" on="0"/>
        <pt x="345" y="83" on="1"/>
        <pt x="367" y="83" on="0"/>
        <pt x="407" y="90" on="0"/>
        <pt x="440" y="99" on="0"/>
        <pt x="462" y="107" on="0"/>
        <pt x="465" y="108" on="1"/>
        <pt x="490" y="26" on="1"/>
        <pt x="491" y="26" on="0"/>
        <pt x="466" y="16" on="0"/>
        <pt x="421" y="4" on="0"/>
        <pt x="360" y="-6" on="0"/>
        <pt x="324" y="-6" on="1"/>
        <pt x="241" y="-6" on="0"/>
        <pt x="120" y="91" on="0"/>
        <pt x="95" y="186" on="1"/>
        <pt x="35" y="186" on="1"/>
        <pt x="35" y="274" on="1"/>
        <pt x="83" y="274" on="1"/>
        <pt x="82" y="282" on="0"/>
        <pt x="82" y="300" on="0"/>
        <pt x="82" y="309" on="1"/>
        <pt x="82" y="316" on="0"/>
        <pt x="82" y="328" on="0"/>
        <pt x="83" y="335" on="1"/>
        <pt x="35" y="335" on="1"/>
        <pt x="35" y="424" on="1"/>
      </contour>
    </TTGlyph>
    <TTGlyph name="F" xMin="70" yMin="0" xMax="472" yMax="677">
      <contour>
        <pt x="70" y="677" on="1"/>
        <pt x="472" y="677" on="1"/>
        <pt x="472" y="587" on="1"/>
        <pt x="189" y="587" on="1"/>
        <pt x="189" y="392" on="1"/>
        <pt x="422" y="392" on="1"/>
        <pt x="407" y="302" on="1"/>
        <pt x="189" y="302" on="1"/>
        <pt x="189" y="0" on="1"/>
        <pt x="70" y="0" on="1"/>
      </contour>
    </TTGlyph>
    <TTGlyph name="G" xMin="43" yMin="-223" xMax="555" yMax="686">
      <contour>
        <pt x="331" y="-144" on="1"/>
        <pt x="376" y="-122" on="0"/>
        <pt x="424" y="-69" on="0"/>
        <pt x="447" y="-14" on="0"/>
        <pt x="450" y="41" on="0"/>
        <pt x="450" y="65" on="1"/>
        <pt x="450" y="79" on="1"/>
        <pt x="427" y="37" on="0"/>
        <pt x="339" y="-8" on="0"/>
        <pt x="281" y="-8" on="1"/>
        <pt x="218" y="-8" on="0"/>
        <pt x="128" y="40" on="0"/>
        <pt x="70" y="129" on="0"/>
        <pt x="43" y="253" on="0"/>
        <pt x="43" y="329" on="1"/>
        <pt x="43" y="407" on="0"/>
        <pt x="79" y="538" on="0"/>
        <pt x="152" y="633" on="0"/>
        <pt x="263" y="686" on="0"/>
        <pt x="339" y="686" on="1"/>
        <pt x="406" y="686" on="0"/>
        <pt x="497" y="642" on="0"/>
        <pt x="523" y="615" on="1"/>
        <pt x="465" y="539" on="1"/>
        <pt x="439" y="565" on="0"/>
        <pt x="364" y="594" on="0"/>
        <pt x="325" y="594" on="1"/>
        <pt x="282" y="594" on="0"/>
        <pt x="224" y="554" on="0"/>
        <pt x="188" y="485" on="0"/>
        <pt x="172" y="392" on="0"/>
        <pt x="172" y="339" on="1"/>
        <pt x="172" y="282" on="0"/>
        <pt x="187" y="189" on="0"/>
        <pt x="218" y="122" on="0"/>
        <pt x="268" y="85" on="0"/>
        <pt x="304" y="85" on="1"/>
        <pt x="327" y="85" on="0"/>
        <pt x="375" y="106" on="0"/>
        <pt x="414" y="145" on="0"/>
        <pt x="438" y="201" on="0"/>
        <pt x="438" y="237" on="1"/>
        <pt x="438" y="328" on="1"/>
        <pt x="555" y="328" on="1"/>
        <pt x="555" y="27" on="1"/>
        <pt x="555" y="-34" on="0"/>
        <pt x="522" y="-116" on="0"/>
        <pt x="471" y="-171" on="0"/>
        <pt x="408" y="-208" on="0"/>
        <pt x="377" y="-223" on="1"/>
      </contour>
    </TTGlyph>
    <TTGlyph name="H" xMin="70" yMin="0" xMax="587" yMax="677">
      <contour>
        <pt x="468" y="308" on="1"/>
        <pt x="189" y="308" on="1"/>
        <pt x="189" y="0" on="1"/>
        <pt x="70" y="0" on="1"/>
        <pt x="70" y="677" on="1"/>
        <pt x="189" y="677" on="1"/>
        <pt x="189" y="395" on="1"/>
        <pt x="468" y="395" on="1"/>
        <pt x="468" y="677" on="1"/>
        <pt x="587" y="677" on="1"/>
        <pt x="587" y="0" on="1"/>
        <pt x="468" y="0" on="1"/>
      </contour>
    </TTGlyph>
    <TTGlyph name="I" xMin="70" yMin="0" xMax="189" yMax="677">
      <contour>
        <pt x="70" y="677" on="1"/>
        <pt x="189" y="677" on="1"/>
        <pt x="189" y="0" on="1"/>
        <pt x="70" y="0" on="1"/>
      </contour>
    </TTGlyph>
    <TTGlyph name="Iacute" xMin="70" yMin="0" xMax="381" yMax="928">
      <contour>
        <pt x="70" y="677" on="1"/>
        <pt x="189" y="677" on="1"/>
        <pt x="189" y="0" on="1"/>
        <pt x="70" y="0" on="1"/>
      </contour>
      <contour>
        <pt x="102" y="776" on="1"/>
        <pt x="329" y="928" on="1"/>
        <pt x="381" y="846" on="1"/>
        <pt x="346" y="814" on="0"/>
        <pt x="259" y="766" on="0"/>
        <pt x="182" y="734" on="0"/>
        <pt x="156" y="726" on="1"/>
        <pt x="130" y="718" on="1"/>
      </contour>
    </TTGlyph>
    <TTGlyph name="Icircumflex" xMin="-68" yMin="0" xMax="328" yMax="928">
      <contour>
        <pt x="70" y="677" on="1"/>
        <pt x="189" y="677" on="1"/>
        <pt x="189" y="0" on="1"/>
        <pt x="70" y="0" on="1"/>
      </contour>
      <contour>
        <pt x="-68" y="771" on="1"/>
        <pt x="130" y="928" on="1"/>
        <pt x="328" y="771" on="1"/>
        <pt x="284" y="718" on="1"/>
        <pt x="272" y="724" on="1"/>
        <pt x="259" y="729" on="0"/>
        <pt x="215" y="752" on="0"/>
        <pt x="160" y="786" on="0"/>
        <pt x="130" y="808" on="1"/>
        <pt x="100" y="786" on="0"/>
        <pt x="44" y="752" on="0"/>
        <pt x="1" y="729" on="0"/>
        <pt x="-11" y="724" on="1"/>
        <pt x="-24" y="718" on="1"/>
      </contour>
    </TTGlyph>
    <TTGlyph name="Idieresis" xMin="-32" yMin="0" xMax="292" yMax="874">
      <contour>
        <pt x="70" y="677" on="1"/>
        <pt x="189" y="677" on="1"/>
        <pt x="189" y="0" on="1"/>
        <pt x="70" y="0" on="1"/>
      </contour>
      <contour>
        <pt x="92" y="784" on="0"/>
        <pt x="60" y="747" on="0"/>
        <pt x="28" y="747" on="1"/>
        <pt x="-1" y="747" on="0"/>
        <pt x="-32" y="783" on="0"/>
        <pt x="-32" y="809" on="1"/>
        <pt x="-32" y="837" on="0"/>
        <pt x="0" y="874" on="0"/>
        <pt x="31" y="874" on="1"/>
        <pt x="60" y="874" on="0"/>
        <pt x="92" y="838" on="0"/>
        <pt x="92" y="811" on="1"/>
      </contour>
      <contour>
        <pt x="292" y="784" on="0"/>
        <pt x="260" y="747" on="0"/>
        <pt x="228" y="747" on="1"/>
        <pt x="199" y="747" on="0"/>
        <pt x="167" y="783" on="0"/>
        <pt x="167" y="809" on="1"/>
        <pt x="167" y="837" on="0"/>
        <pt x="199" y="874" on="0"/>
        <pt x="231" y="874" on="1"/>
        <pt x="260" y="874" on="0"/>
        <pt x="292" y="838" on="0"/>
        <pt x="292" y="811" on="1"/>
      </contour>
    </TTGlyph>
    <TTGlyph name="Igrave" xMin="-125" yMin="0" xMax="189" yMax="928">
      <contour>
        <pt x="70" y="677" on="1"/>
        <pt x="189" y="677" on="1"/>
        <pt x="189" y="0" on="1"/>
        <pt x="70" y="0" on="1"/>
      </contour>
      <contour>
        <pt x="126" y="718" on="1"/>
        <pt x="100" y="726" on="1"/>
        <pt x="74" y="734" on="0"/>
        <pt x="-3" y="766" on="0"/>
        <pt x="-90" y="814" on="0"/>
        <pt x="-125" y="846" on="1"/>
        <pt x="-73" y="928" on="1"/>
        <pt x="154" y="776" on="1"/>
      </contour>
    </TTGlyph>
    <TTGlyph name="J" xMin="-35" yMin="-223" xMax="189" yMax="677">
      <contour>
        <pt x="189" y="25" on="1"/>
        <pt x="189" y="-35" on="0"/>
        <pt x="156" y="-116" on="0"/>
        <pt x="105" y="-172" on="0"/>
        <pt x="42" y="-208" on="0"/>
        <pt x="12" y="-223" on="1"/>
        <pt x="-35" y="-144" on="1"/>
        <pt x="4" y="-125" on="0"/>
        <pt x="47" y="-82" on="0"/>
        <pt x="67" y="-41" on="0"/>
        <pt x="70" y="-3" on="0"/>
        <pt x="70" y="13" on="1"/>
        <pt x="70" y="677" on="1"/>
        <pt x="189" y="677" on="1"/>
      </contour>
    </TTGlyph>
    <TTGlyph name="K" xMin="70" yMin="0" xMax="598" yMax="677">
      <contour>
        <pt x="70" y="677" on="1"/>
        <pt x="189" y="677" on="1"/>
        <pt x="189" y="0" on="1"/>
        <pt x="70" y="0" on="1"/>
      </contour>
      <contour>
        <pt x="523" y="602" on="0"/>
        <pt x="484" y="497" on="0"/>
        <pt x="438" y="424" on="0"/>
        <pt x="383" y="373" on="0"/>
        <pt x="352" y="352" on="1"/>
        <pt x="598" y="0" on="1"/>
        <pt x="460" y="0" on="1"/>
        <pt x="202" y="366" on="1"/>
        <pt x="202" y="373" on="1"/>
        <pt x="294" y="407" on="0"/>
        <pt x="395" y="562" on="0"/>
        <pt x="422" y="677" on="1"/>
        <pt x="539" y="677" on="1"/>
      </contour>
    </TTGlyph>
    <TTGlyph name="L" xMin="70" yMin="0" xMax="442" yMax="677">
      <contour>
        <pt x="70" y="677" on="1"/>
        <pt x="189" y="677" on="1"/>
        <pt x="189" y="90" on="1"/>
        <pt x="442" y="90" on="1"/>
        <pt x="442" y="0" on="1"/>
        <pt x="70" y="0" on="1"/>
      </contour>
    </TTGlyph>
    <TTGlyph name="M" xMin="60" yMin="0" xMax="751" yMax="679">
      <contour>
        <pt x="450" y="0" on="1"/>
        <pt x="366" y="0" on="1"/>
        <pt x="253" y="257" on="1"/>
        <pt x="248" y="268" on="0"/>
        <pt x="233" y="306" on="0"/>
        <pt x="215" y="352" on="0"/>
        <pt x="195" y="403" on="0"/>
        <pt x="186" y="429" on="1"/>
        <pt x="186" y="403" on="0"/>
        <pt x="185" y="352" on="0"/>
        <pt x="183" y="307" on="0"/>
        <pt x="182" y="272" on="0"/>
        <pt x="182" y="262" on="1"/>
        <pt x="172" y="0" on="1"/>
        <pt x="60" y="0" on="1"/>
        <pt x="100" y="679" on="1"/>
        <pt x="193" y="679" on="1"/>
        <pt x="364" y="255" on="1"/>
        <pt x="373" y="232" on="0"/>
        <pt x="396" y="178" on="0"/>
        <pt x="406" y="152" on="1"/>
        <pt x="416" y="178" on="0"/>
        <pt x="438" y="231" on="0"/>
        <pt x="448" y="255" on="1"/>
        <pt x="620" y="679" on="1"/>
        <pt x="711" y="679" on="1"/>
        <pt x="751" y="0" on="1"/>
        <pt x="640" y="0" on="1"/>
        <pt x="629" y="259" on="1"/>
        <pt x="628" y="284" on="0"/>
        <pt x="625" y="377" on="0"/>
        <pt x="624" y="425" on="1"/>
        <pt x="615" y="400" on="0"/>
        <pt x="596" y="350" on="0"/>
        <pt x="580" y="306" on="0"/>
        <pt x="566" y="270" on="0"/>
        <pt x="562" y="260" on="1"/>
      </contour>
    </TTGlyph>
    <TTGlyph name="N" xMin="70" yMin="-1" xMax="589" yMax="679">
      <contour>
        <pt x="470" y="677" on="1"/>
        <pt x="589" y="677" on="1"/>
        <pt x="589" y="-1" on="1"/>
        <pt x="490" y="-1" on="1"/>
        <pt x="262" y="355" on="1"/>
        <pt x="243" y="384" on="0"/>
        <pt x="198" y="457" on="0"/>
        <pt x="178" y="488" on="1"/>
        <pt x="181" y="456" on="0"/>
        <pt x="186" y="386" on="0"/>
        <pt x="186" y="354" on="1"/>
        <pt x="189" y="0" on="1"/>
        <pt x="70" y="0" on="1"/>
        <pt x="70" y="679" on="1"/>
        <pt x="163" y="679" on="1"/>
        <pt x="398" y="327" on="1"/>
        <pt x="418" y="298" on="0"/>
        <pt x="459" y="233" on="0"/>
        <pt x="479" y="203" on="1"/>
        <pt x="477" y="235" on="0"/>
        <pt x="473" y="300" on="0"/>
        <pt x="473" y="323" on="1"/>
      </contour>
    </TTGlyph>
    <TTGlyph name="Ntilde" xMin="70" yMin="-1" xMax="589" yMax="865">
      <contour>
        <pt x="470" y="677" on="1"/>
        <pt x="589" y="677" on="1"/>
        <pt x="589" y="-1" on="1"/>
        <pt x="490" y="-1" on="1"/>
        <pt x="262" y="355" on="1"/>
        <pt x="243" y="384" on="0"/>
        <pt x="198" y="457" on="0"/>
        <pt x="178" y="488" on="1"/>
        <pt x="181" y="456" on="0"/>
        <pt x="186" y="386" on="0"/>
        <pt x="186" y="354" on="1"/>
        <pt x="189" y="0" on="1"/>
        <pt x="70" y="0" on="1"/>
        <pt x="70" y="679" on="1"/>
        <pt x="163" y="679" on="1"/>
        <pt x="398" y="327" on="1"/>
        <pt x="418" y="298" on="0"/>
        <pt x="459" y="233" on="0"/>
        <pt x="479" y="203" on="1"/>
        <pt x="477" y="235" on="0"/>
        <pt x="473" y="300" on="0"/>
        <pt x="473" y="323" on="1"/>
      </contour>
      <contour>
        <pt x="173" y="842" on="1"/>
        <pt x="184" y="848" on="0"/>
        <pt x="196" y="853" on="1"/>
        <pt x="207" y="858" on="0"/>
        <pt x="235" y="865" on="0"/>
        <pt x="252" y="865" on="1"/>
        <pt x="289" y="865" on="0"/>
        <pt x="368" y="845" on="0"/>
        <pt x="405" y="845" on="1"/>
        <pt x="422" y="845" on="0"/>
        <pt x="451" y="849" on="0"/>
        <pt x="462" y="852" on="1"/>
        <pt x="474" y="855" on="0"/>
        <pt x="485" y="859" on="1"/>
        <pt x="485" y="785" on="1"/>
        <pt x="474" y="778" on="0"/>
        <pt x="462" y="773" on="1"/>
        <pt x="451" y="768" on="0"/>
        <pt x="422" y="762" on="0"/>
        <pt x="405" y="762" on="1"/>
        <pt x="368" y="762" on="0"/>
        <pt x="289" y="782" on="0"/>
        <pt x="252" y="782" on="1"/>
        <pt x="235" y="782" on="0"/>
        <pt x="207" y="777" on="0"/>
        <pt x="196" y="775" on="1"/>
        <pt x="184" y="771" on="0"/>
        <pt x="173" y="768" on="1"/>
      </contour>
    </TTGlyph>
    <TTGlyph name="O" xMin="45" yMin="-6" xMax="623" yMax="686">
      <contour>
        <pt x="416" y="686" on="0"/>
        <pt x="522" y="638" on="0"/>
        <pt x="591" y="550" on="0"/>
        <pt x="623" y="423" on="0"/>
        <pt x="623" y="344" on="1"/>
        <pt x="623" y="266" on="0"/>
        <pt x="588" y="137" on="0"/>
        <pt x="515" y="45" on="0"/>
        <pt x="404" y="-6" on="0"/>
        <pt x="328" y="-6" on="1"/>
        <pt x="253" y="-6" on="0"/>
        <pt x="146" y="39" on="0"/>
        <pt x="77" y="126" on="0"/>
        <pt x="45" y="250" on="0"/>
        <pt x="45" y="330" on="1"/>
        <pt x="45" y="408" on="0"/>
        <pt x="80" y="539" on="0"/>
        <pt x="153" y="634" on="0"/>
        <pt x="265" y="686" on="0"/>
        <pt x="341" y="686" on="1"/>
      </contour>
      <contour>
        <pt x="283" y="594" on="0"/>
        <pt x="225" y="555" on="0"/>
        <pt x="189" y="487" on="0"/>
        <pt x="174" y="395" on="0"/>
        <pt x="174" y="341" on="1"/>
        <pt x="174" y="290" on="0"/>
        <pt x="188" y="198" on="0"/>
        <pt x="225" y="128" on="0"/>
        <pt x="290" y="86" on="0"/>
        <pt x="342" y="86" on="1"/>
        <pt x="385" y="86" on="0"/>
        <pt x="444" y="124" on="0"/>
        <pt x="480" y="190" on="0"/>
        <pt x="495" y="281" on="0"/>
        <pt x="495" y="334" on="1"/>
        <pt x="495" y="385" on="0"/>
        <pt x="481" y="479" on="0"/>
        <pt x="444" y="551" on="0"/>
        <pt x="379" y="594" on="0"/>
        <pt x="327" y="594" on="1"/>
      </contour>
    </TTGlyph>
    <TTGlyph name="OE" xMin="45" yMin="-6" xMax="829" yMax="686">
      <contour>
        <pt x="389" y="-2" on="0"/>
        <pt x="346" y="-6" on="0"/>
        <pt x="328" y="-6" on="1"/>
        <pt x="253" y="-6" on="0"/>
        <pt x="146" y="39" on="0"/>
        <pt x="77" y="126" on="0"/>
        <pt x="45" y="250" on="0"/>
        <pt x="45" y="330" on="1"/>
        <pt x="45" y="408" on="0"/>
        <pt x="80" y="539" on="0"/>
        <pt x="153" y="634" on="0"/>
        <pt x="265" y="686" on="0"/>
        <pt x="341" y="686" on="1"/>
        <pt x="368" y="686" on="0"/>
        <pt x="409" y="681" on="0"/>
        <pt x="423" y="677" on="1"/>
        <pt x="814" y="677" on="1"/>
        <pt x="814" y="587" on="1"/>
        <pt x="530" y="587" on="1"/>
        <pt x="530" y="398" on="1"/>
        <pt x="764" y="398" on="1"/>
        <pt x="749" y="307" on="1"/>
        <pt x="530" y="307" on="1"/>
        <pt x="530" y="90" on="1"/>
        <pt x="829" y="90" on="1"/>
        <pt x="829" y="0" on="1"/>
        <pt x="411" y="0" on="1"/>
      </contour>
      <contour>
        <pt x="356" y="86" on="0"/>
        <pt x="393" y="90" on="0"/>
        <pt x="412" y="92" on="1"/>
        <pt x="412" y="581" on="1"/>
        <pt x="398" y="586" on="0"/>
        <pt x="356" y="594" on="0"/>
        <pt x="327" y="594" on="1"/>
        <pt x="283" y="594" on="0"/>
        <pt x="225" y="555" on="0"/>
        <pt x="189" y="487" on="0"/>
        <pt x="174" y="395" on="0"/>
        <pt x="174" y="341" on="1"/>
        <pt x="174" y="290" on="0"/>
        <pt x="188" y="198" on="0"/>
        <pt x="225" y="128" on="0"/>
        <pt x="290" y="86" on="0"/>
        <pt x="342" y="86" on="1"/>
      </contour>
    </TTGlyph>
    <TTGlyph name="Oacute" xMin="45" yMin="-6" xMax="623" yMax="928">
      <contour>
        <pt x="416" y="686" on="0"/>
        <pt x="522" y="638" on="0"/>
        <pt x="591" y="550" on="0"/>
        <pt x="623" y="423" on="0"/>
        <pt x="623" y="344" on="1"/>
        <pt x="623" y="266" on="0"/>
        <pt x="588" y="137" on="0"/>
        <pt x="515" y="45" on="0"/>
        <pt x="404" y="-6" on="0"/>
        <pt x="328" y="-6" on="1"/>
        <pt x="253" y="-6" on="0"/>
        <pt x="146" y="39" on="0"/>
        <pt x="77" y="126" on="0"/>
        <pt x="45" y="250" on="0"/>
        <pt x="45" y="330" on="1"/>
        <pt x="45" y="408" on="0"/>
        <pt x="80" y="539" on="0"/>
        <pt x="153" y="634" on="0"/>
        <pt x="265" y="686" on="0"/>
        <pt x="341" y="686" on="1"/>
      </contour>
      <contour>
        <pt x="283" y="594" on="0"/>
        <pt x="225" y="555" on="0"/>
        <pt x="189" y="487" on="0"/>
        <pt x="174" y="395" on="0"/>
        <pt x="174" y="341" on="1"/>
        <pt x="174" y="290" on="0"/>
        <pt x="188" y="198" on="0"/>
        <pt x="225" y="128" on="0"/>
        <pt x="290" y="86" on="0"/>
        <pt x="342" y="86" on="1"/>
        <pt x="385" y="86" on="0"/>
        <pt x="444" y="124" on="0"/>
        <pt x="480" y="190" on="0"/>
        <pt x="495" y="281" on="0"/>
        <pt x="495" y="334" on="1"/>
        <pt x="495" y="385" on="0"/>
        <pt x="481" y="479" on="0"/>
        <pt x="444" y="551" on="0"/>
        <pt x="379" y="594" on="0"/>
        <pt x="327" y="594" on="1"/>
      </contour>
      <contour>
        <pt x="303" y="776" on="1"/>
        <pt x="530" y="928" on="1"/>
        <pt x="582" y="846" on="1"/>
        <pt x="547" y="814" on="0"/>
        <pt x="460" y="766" on="0"/>
        <pt x="383" y="734" on="0"/>
        <pt x="357" y="726" on="1"/>
        <pt x="331" y="718" on="1"/>
      </contour>
    </TTGlyph>
    <TTGlyph name="Ocircumflex" xMin="45" yMin="-6" xMax="623" yMax="928">
      <contour>
        <pt x="416" y="686" on="0"/>
        <pt x="522" y="638" on="0"/>
        <pt x="591" y="550" on="0"/>
        <pt x="623" y="423" on="0"/>
        <pt x="623" y="344" on="1"/>
        <pt x="623" y="266" on="0"/>
        <pt x="588" y="137" on="0"/>
        <pt x="515" y="45" on="0"/>
        <pt x="404" y="-6" on="0"/>
        <pt x="328" y="-6" on="1"/>
        <pt x="253" y="-6" on="0"/>
        <pt x="146" y="39" on="0"/>
        <pt x="77" y="126" on="0"/>
        <pt x="45" y="250" on="0"/>
        <pt x="45" y="330" on="1"/>
        <pt x="45" y="408" on="0"/>
        <pt x="80" y="539" on="0"/>
        <pt x="153" y="634" on="0"/>
        <pt x="265" y="686" on="0"/>
        <pt x="341" y="686" on="1"/>
      </contour>
      <contour>
        <pt x="283" y="594" on="0"/>
        <pt x="225" y="555" on="0"/>
        <pt x="189" y="487" on="0"/>
        <pt x="174" y="395" on="0"/>
        <pt x="174" y="341" on="1"/>
        <pt x="174" y="290" on="0"/>
        <pt x="188" y="198" on="0"/>
        <pt x="225" y="128" on="0"/>
        <pt x="290" y="86" on="0"/>
        <pt x="342" y="86" on="1"/>
        <pt x="385" y="86" on="0"/>
        <pt x="444" y="124" on="0"/>
        <pt x="480" y="190" on="0"/>
        <pt x="495" y="281" on="0"/>
        <pt x="495" y="334" on="1"/>
        <pt x="495" y="385" on="0"/>
        <pt x="481" y="479" on="0"/>
        <pt x="444" y="551" on="0"/>
        <pt x="379" y="594" on="0"/>
        <pt x="327" y="594" on="1"/>
      </contour>
      <contour>
        <pt x="134" y="771" on="1"/>
        <pt x="332" y="928" on="1"/>
        <pt x="530" y="771" on="1"/>
        <pt x="486" y="718" on="1"/>
        <pt x="474" y="724" on="1"/>
        <pt x="461" y="729" on="0"/>
        <pt x="417" y="752" on="0"/>
        <pt x="362" y="786" on="0"/>
        <pt x="332" y="808" on="1"/>
        <pt x="302" y="786" on="0"/>
        <pt x="246" y="752" on="0"/>
        <pt x="203" y="729" on="0"/>
        <pt x="191" y="724" on="1"/>
        <pt x="178" y="718" on="1"/>
      </contour>
    </TTGlyph>
    <TTGlyph name="Odieresis" xMin="45" yMin="-6" xMax="623" yMax="874">
      <contour>
        <pt x="416" y="686" on="0"/>
        <pt x="522" y="638" on="0"/>
        <pt x="591" y="550" on="0"/>
        <pt x="623" y="423" on="0"/>
        <pt x="623" y="344" on="1"/>
        <pt x="623" y="266" on="0"/>
        <pt x="588" y="137" on="0"/>
        <pt x="515" y="45" on="0"/>
        <pt x="404" y="-6" on="0"/>
        <pt x="328" y="-6" on="1"/>
        <pt x="253" y="-6" on="0"/>
        <pt x="146" y="39" on="0"/>
        <pt x="77" y="126" on="0"/>
        <pt x="45" y="250" on="0"/>
        <pt x="45" y="330" on="1"/>
        <pt x="45" y="408" on="0"/>
        <pt x="80" y="539" on="0"/>
        <pt x="153" y="634" on="0"/>
        <pt x="265" y="686" on="0"/>
        <pt x="341" y="686" on="1"/>
      </contour>
      <contour>
        <pt x="283" y="594" on="0"/>
        <pt x="225" y="555" on="0"/>
        <pt x="189" y="487" on="0"/>
        <pt x="174" y="395" on="0"/>
        <pt x="174" y="341" on="1"/>
        <pt x="174" y="290" on="0"/>
        <pt x="188" y="198" on="0"/>
        <pt x="225" y="128" on="0"/>
        <pt x="290" y="86" on="0"/>
        <pt x="342" y="86" on="1"/>
        <pt x="385" y="86" on="0"/>
        <pt x="444" y="124" on="0"/>
        <pt x="480" y="190" on="0"/>
        <pt x="495" y="281" on="0"/>
        <pt x="495" y="334" on="1"/>
        <pt x="495" y="385" on="0"/>
        <pt x="481" y="479" on="0"/>
        <pt x="444" y="551" on="0"/>
        <pt x="379" y="594" on="0"/>
        <pt x="327" y="594" on="1"/>
      </contour>
      <contour>
        <pt x="296" y="784" on="0"/>
        <pt x="264" y="747" on="0"/>
        <pt x="232" y="747" on="1"/>
        <pt x="203" y="747" on="0"/>
        <pt x="172" y="783" on="0"/>
        <pt x="172" y="809" on="1"/>
        <pt x="172" y="837" on="0"/>
        <pt x="204" y="874" on="0"/>
        <pt x="235" y="874" on="1"/>
        <pt x="264" y="874" on="0"/>
        <pt x="296" y="838" on="0"/>
        <pt x="296" y="811" on="1"/>
      </contour>
      <contour>
        <pt x="496" y="784" on="0"/>
        <pt x="464" y="747" on="0"/>
        <pt x="432" y="747" on="1"/>
        <pt x="403" y="747" on="0"/>
        <pt x="371" y="783" on="0"/>
        <pt x="371" y="809" on="1"/>
        <pt x="371" y="837" on="0"/>
        <pt x="403" y="874" on="0"/>
        <pt x="435" y="874" on="1"/>
        <pt x="464" y="874" on="0"/>
        <pt x="496" y="838" on="0"/>
        <pt x="496" y="811" on="1"/>
      </contour>
    </TTGlyph>
    <TTGlyph name="Ograve" xMin="45" yMin="-6" xMax="623" yMax="928">
      <contour>
        <pt x="416" y="686" on="0"/>
        <pt x="522" y="638" on="0"/>
        <pt x="591" y="550" on="0"/>
        <pt x="623" y="423" on="0"/>
        <pt x="623" y="344" on="1"/>
        <pt x="623" y="266" on="0"/>
        <pt x="588" y="137" on="0"/>
        <pt x="515" y="45" on="0"/>
        <pt x="404" y="-6" on="0"/>
        <pt x="328" y="-6" on="1"/>
        <pt x="253" y="-6" on="0"/>
        <pt x="146" y="39" on="0"/>
        <pt x="77" y="126" on="0"/>
        <pt x="45" y="250" on="0"/>
        <pt x="45" y="330" on="1"/>
        <pt x="45" y="408" on="0"/>
        <pt x="80" y="539" on="0"/>
        <pt x="153" y="634" on="0"/>
        <pt x="265" y="686" on="0"/>
        <pt x="341" y="686" on="1"/>
      </contour>
      <contour>
        <pt x="283" y="594" on="0"/>
        <pt x="225" y="555" on="0"/>
        <pt x="189" y="487" on="0"/>
        <pt x="174" y="395" on="0"/>
        <pt x="174" y="341" on="1"/>
        <pt x="174" y="290" on="0"/>
        <pt x="188" y="198" on="0"/>
        <pt x="225" y="128" on="0"/>
        <pt x="290" y="86" on="0"/>
        <pt x="342" y="86" on="1"/>
        <pt x="385" y="86" on="0"/>
        <pt x="444" y="124" on="0"/>
        <pt x="480" y="190" on="0"/>
        <pt x="495" y="281" on="0"/>
        <pt x="495" y="334" on="1"/>
        <pt x="495" y="385" on="0"/>
        <pt x="481" y="479" on="0"/>
        <pt x="444" y="551" on="0"/>
        <pt x="379" y="594" on="0"/>
        <pt x="327" y="594" on="1"/>
      </contour>
      <contour>
        <pt x="328" y="718" on="1"/>
        <pt x="302" y="726" on="1"/>
        <pt x="276" y="734" on="0"/>
        <pt x="199" y="766" on="0"/>
        <pt x="112" y="814" on="0"/>
        <pt x="77" y="846" on="1"/>
        <pt x="129" y="928" on="1"/>
        <pt x="356" y="776" on="1"/>
      </contour>
    </TTGlyph>
    <TTGlyph name="Oslash" xMin="45" yMin="-63" xMax="623" yMax="742">
      <contour>
        <pt x="382" y="686" on="0"/>
        <pt x="414" y="679" on="1"/>
        <pt x="439" y="742" on="1"/>
        <pt x="537" y="702" on="1"/>
        <pt x="511" y="638" on="1"/>
        <pt x="569" y="596" on="0"/>
        <pt x="623" y="446" on="0"/>
        <pt x="623" y="344" on="1"/>
        <pt x="623" y="266" on="0"/>
        <pt x="588" y="137" on="0"/>
        <pt x="515" y="45" on="0"/>
        <pt x="404" y="-6" on="0"/>
        <pt x="328" y="-6" on="1"/>
        <pt x="287" y="-6" on="0"/>
        <pt x="253" y="0" on="1"/>
        <pt x="228" y="-63" on="1"/>
        <pt x="131" y="-23" on="1"/>
        <pt x="156" y="40" on="1"/>
        <pt x="98" y="81" on="0"/>
        <pt x="45" y="227" on="0"/>
        <pt x="45" y="330" on="1"/>
        <pt x="45" y="408" on="0"/>
        <pt x="80" y="539" on="0"/>
        <pt x="153" y="634" on="0"/>
        <pt x="265" y="686" on="0"/>
        <pt x="341" y="686" on="1"/>
      </contour>
      <contour>
        <pt x="495" y="385" on="0"/>
        <pt x="481" y="480" on="0"/>
        <pt x="462" y="516" on="1"/>
        <pt x="290" y="92" on="1"/>
        <pt x="312" y="86" on="0"/>
        <pt x="342" y="86" on="1"/>
        <pt x="385" y="86" on="0"/>
        <pt x="444" y="124" on="0"/>
        <pt x="480" y="190" on="0"/>
        <pt x="495" y="281" on="0"/>
        <pt x="495" y="334" on="1"/>
      </contour>
      <contour>
        <pt x="283" y="594" on="0"/>
        <pt x="225" y="555" on="0"/>
        <pt x="189" y="487" on="0"/>
        <pt x="174" y="395" on="0"/>
        <pt x="174" y="341" on="1"/>
        <pt x="174" y="290" on="0"/>
        <pt x="187" y="198" on="0"/>
        <pt x="206" y="163" on="1"/>
        <pt x="377" y="587" on="1"/>
        <pt x="366" y="590" on="0"/>
        <pt x="341" y="594" on="0"/>
        <pt x="327" y="594" on="1"/>
      </contour>
    </TTGlyph>
    <TTGlyph name="Otilde" xMin="45" yMin="-6" xMax="623" yMax="857">
      <contour>
        <pt x="416" y="686" on="0"/>
        <pt x="522" y="638" on="0"/>
        <pt x="591" y="550" on="0"/>
        <pt x="623" y="423" on="0"/>
        <pt x="623" y="344" on="1"/>
        <pt x="623" y="266" on="0"/>
        <pt x="588" y="137" on="0"/>
        <pt x="515" y="45" on="0"/>
        <pt x="404" y="-6" on="0"/>
        <pt x="328" y="-6" on="1"/>
        <pt x="253" y="-6" on="0"/>
        <pt x="146" y="39" on="0"/>
        <pt x="77" y="126" on="0"/>
        <pt x="45" y="250" on="0"/>
        <pt x="45" y="330" on="1"/>
        <pt x="45" y="408" on="0"/>
        <pt x="80" y="539" on="0"/>
        <pt x="153" y="634" on="0"/>
        <pt x="265" y="686" on="0"/>
        <pt x="341" y="686" on="1"/>
      </contour>
      <contour>
        <pt x="283" y="594" on="0"/>
        <pt x="225" y="555" on="0"/>
        <pt x="189" y="487" on="0"/>
        <pt x="174" y="395" on="0"/>
        <pt x="174" y="341" on="1"/>
        <pt x="174" y="290" on="0"/>
        <pt x="188" y="198" on="0"/>
        <pt x="225" y="128" on="0"/>
        <pt x="290" y="86" on="0"/>
        <pt x="342" y="86" on="1"/>
        <pt x="385" y="86" on="0"/>
        <pt x="444" y="124" on="0"/>
        <pt x="480" y="190" on="0"/>
        <pt x="495" y="281" on="0"/>
        <pt x="495" y="334" on="1"/>
        <pt x="495" y="385" on="0"/>
        <pt x="481" y="479" on="0"/>
        <pt x="444" y="551" on="0"/>
        <pt x="379" y="594" on="0"/>
        <pt x="327" y="594" on="1"/>
      </contour>
      <contour>
        <pt x="169" y="834" on="1"/>
        <pt x="180" y="840" on="0"/>
        <pt x="192" y="845" on="1"/>
        <pt x="203" y="850" on="0"/>
        <pt x="231" y="857" on="0"/>
        <pt x="248" y="857" on="1"/>
        <pt x="285" y="857" on="0"/>
        <pt x="364" y="837" on="0"/>
        <pt x="401" y="837" on="1"/>
        <pt x="418" y="837" on="0"/>
        <pt x="447" y="841" on="0"/>
        <pt x="458" y="844" on="1"/>
        <pt x="470" y="847" on="0"/>
        <pt x="481" y="851" on="1"/>
        <pt x="481" y="777" on="1"/>
        <pt x="470" y="770" on="0"/>
        <pt x="458" y="765" on="1"/>
        <pt x="447" y="760" on="0"/>
        <pt x="418" y="754" on="0"/>
        <pt x="401" y="754" on="1"/>
        <pt x="364" y="754" on="0"/>
        <pt x="285" y="774" on="0"/>
        <pt x="248" y="774" on="1"/>
        <pt x="231" y="774" on="0"/>
        <pt x="203" y="769" on="0"/>
        <pt x="192" y="767" on="1"/>
        <pt x="180" y="763" on="0"/>
        <pt x="169" y="760" on="1"/>
      </contour>
    </TTGlyph>
    <TTGlyph name="P" xMin="70" yMin="0" xMax="509" yMax="679">
      <contour>
        <pt x="70" y="677" on="1"/>
        <pt x="77" y="677" on="0"/>
        <pt x="127" y="678" on="0"/>
        <pt x="189" y="678" on="0"/>
        <pt x="251" y="679" on="0"/>
        <pt x="271" y="679" on="1"/>
        <pt x="393" y="679" on="0"/>
        <pt x="509" y="570" on="0"/>
        <pt x="509" y="475" on="1"/>
        <pt x="509" y="429" on="0"/>
        <pt x="477" y="352" on="0"/>
        <pt x="414" y="296" on="0"/>
        <pt x="321" y="265" on="0"/>
        <pt x="259" y="265" on="1"/>
        <pt x="189" y="265" on="1"/>
        <pt x="189" y="0" on="1"/>
        <pt x="70" y="0" on="1"/>
      </contour>
      <contour>
        <pt x="189" y="354" on="1"/>
        <pt x="266" y="354" on="1"/>
        <pt x="329" y="354" on="0"/>
        <pt x="383" y="420" on="0"/>
        <pt x="383" y="471" on="1"/>
        <pt x="383" y="494" on="0"/>
        <pt x="371" y="538" on="0"/>
        <pt x="342" y="573" on="0"/>
        <pt x="293" y="594" on="0"/>
        <pt x="256" y="594" on="1"/>
        <pt x="234" y="594" on="0"/>
        <pt x="201" y="594" on="0"/>
        <pt x="189" y="593" on="1"/>
      </contour>
    </TTGlyph>
    <TTGlyph name="Q" xMin="43" yMin="-214" xMax="656" yMax="686">
      <contour>
        <pt x="656" y="-148" on="1"/>
        <pt x="614" y="-176" on="0"/>
        <pt x="516" y="-214" on="0"/>
        <pt x="460" y="-214" on="1"/>
        <pt x="395" y="-214" on="0"/>
        <pt x="252" y="-145" on="0"/>
        <pt x="189" y="-75" on="1"/>
        <pt x="211" y="-9" on="1"/>
        <pt x="223" y="-11" on="0"/>
        <pt x="246" y="-14" on="0"/>
        <pt x="257" y="-14" on="1"/>
        <pt x="307" y="-14" on="0"/>
        <pt x="395" y="32" on="0"/>
        <pt x="460" y="120" on="0"/>
        <pt x="498" y="249" on="0"/>
        <pt x="498" y="332" on="1"/>
        <pt x="498" y="383" on="0"/>
        <pt x="484" y="477" on="0"/>
        <pt x="447" y="550" on="0"/>
        <pt x="382" y="594" on="0"/>
        <pt x="330" y="594" on="1"/>
        <pt x="286" y="594" on="0"/>
        <pt x="225" y="553" on="0"/>
        <pt x="186" y="484" on="0"/>
        <pt x="168" y="394" on="0"/>
        <pt x="168" y="344" on="1"/>
        <pt x="168" y="252" on="0"/>
        <pt x="213" y="147" on="0"/>
        <pt x="278" y="132" on="1"/>
        <pt x="265" y="47" on="1"/>
        <pt x="205" y="51" on="0"/>
        <pt x="120" y="105" on="0"/>
        <pt x="67" y="187" on="0"/>
        <pt x="43" y="286" on="0"/>
        <pt x="43" y="335" on="1"/>
        <pt x="43" y="411" on="0"/>
        <pt x="80" y="539" on="0"/>
        <pt x="155" y="633" on="0"/>
        <pt x="268" y="686" on="0"/>
        <pt x="344" y="686" on="1"/>
        <pt x="419" y="686" on="0"/>
        <pt x="526" y="638" on="0"/>
        <pt x="594" y="549" on="0"/>
        <pt x="626" y="422" on="0"/>
        <pt x="626" y="343" on="1"/>
        <pt x="626" y="250" on="0"/>
        <pt x="580" y="101" on="0"/>
        <pt x="503" y="-7" on="0"/>
        <pt x="401" y="-73" on="0"/>
        <pt x="345" y="-83" on="1"/>
        <pt x="368" y="-100" on="0"/>
        <pt x="418" y="-115" on="0"/>
        <pt x="444" y="-115" on="1"/>
        <pt x="480" y="-115" on="0"/>
        <pt x="564" y="-89" on="0"/>
        <pt x="615" y="-64" on="1"/>
      </contour>
    </TTGlyph>
    <TTGlyph name="R" xMin="70" yMin="0" xMax="572" yMax="679">
      <contour>
        <pt x="70" y="677" on="1"/>
        <pt x="77" y="677" on="0"/>
        <pt x="127" y="678" on="0"/>
        <pt x="189" y="678" on="0"/>
        <pt x="251" y="679" on="0"/>
        <pt x="271" y="679" on="1"/>
        <pt x="395" y="679" on="0"/>
        <pt x="509" y="582" on="0"/>
        <pt x="509" y="494" on="1"/>
        <pt x="509" y="436" on="0"/>
        <pt x="451" y="346" on="0"/>
        <pt x="385" y="326" on="1"/>
        <pt x="413" y="310" on="0"/>
        <pt x="457" y="254" on="0"/>
        <pt x="499" y="173" on="0"/>
        <pt x="543" y="66" on="0"/>
        <pt x="572" y="0" on="1"/>
        <pt x="443" y="0" on="1"/>
        <pt x="409" y="79" on="0"/>
        <pt x="358" y="191" on="0"/>
        <pt x="310" y="261" on="0"/>
        <pt x="255" y="293" on="0"/>
        <pt x="218" y="293" on="1"/>
        <pt x="189" y="293" on="1"/>
        <pt x="189" y="0" on="1"/>
        <pt x="70" y="0" on="1"/>
      </contour>
      <contour>
        <pt x="189" y="380" on="1"/>
        <pt x="266" y="380" on="1"/>
        <pt x="322" y="380" on="0"/>
        <pt x="383" y="430" on="0"/>
        <pt x="383" y="479" on="1"/>
        <pt x="383" y="501" on="0"/>
        <pt x="371" y="543" on="0"/>
        <pt x="342" y="575" on="0"/>
        <pt x="293" y="594" on="0"/>
        <pt x="256" y="594" on="1"/>
        <pt x="189" y="594" on="1"/>
      </contour>
    </TTGlyph>
    <TTGlyph name="S" xMin="30" yMin="-6" xMax="472" yMax="686">
      <contour>
        <pt x="265" y="686" on="1"/>
        <pt x="300" y="686" on="0"/>
        <pt x="364" y="673" on="0"/>
        <pt x="417" y="656" on="0"/>
        <pt x="454" y="638" on="0"/>
        <pt x="461" y="633" on="1"/>
        <pt x="412" y="547" on="1"/>
        <pt x="399" y="554" on="1"/>
        <pt x="386" y="561" on="0"/>
        <pt x="344" y="579" on="0"/>
        <pt x="294" y="593" on="0"/>
        <pt x="271" y="593" on="1"/>
        <pt x="235" y="593" on="0"/>
        <pt x="182" y="559" on="0"/>
        <pt x="182" y="523" on="1"/>
        <pt x="182" y="478" on="0"/>
        <pt x="240" y="421" on="0"/>
        <pt x="302" y="397" on="1"/>
        <pt x="342" y="381" on="0"/>
        <pt x="405" y="346" on="0"/>
        <pt x="449" y="300" on="0"/>
        <pt x="472" y="240" on="0"/>
        <pt x="472" y="198" on="1"/>
        <pt x="472" y="160" on="0"/>
        <pt x="443" y="86" on="0"/>
        <pt x="386" y="29" on="0"/>
        <pt x="302" y="-6" on="0"/>
        <pt x="247" y="-6" on="1"/>
        <pt x="208" y="-6" on="0"/>
        <pt x="138" y="10" on="0"/>
        <pt x="81" y="31" on="0"/>
        <pt x="40" y="53" on="0"/>
        <pt x="30" y="59" on="1"/>
        <pt x="72" y="151" on="1"/>
        <pt x="90" y="141" on="1"/>
        <pt x="108" y="131" on="0"/>
        <pt x="160" y="107" on="0"/>
        <pt x="218" y="87" on="0"/>
        <pt x="239" y="87" on="1"/>
        <pt x="292" y="87" on="0"/>
        <pt x="344" y="139" on="0"/>
        <pt x="344" y="186" on="1"/>
        <pt x="344" y="208" on="0"/>
        <pt x="330" y="241" on="0"/>
        <pt x="304" y="265" on="0"/>
        <pt x="267" y="284" on="0"/>
        <pt x="244" y="293" on="1"/>
        <pt x="199" y="312" on="0"/>
        <pt x="128" y="350" on="0"/>
        <pt x="78" y="399" on="0"/>
        <pt x="52" y="462" on="0"/>
        <pt x="52" y="506" on="1"/>
        <pt x="52" y="543" on="0"/>
        <pt x="84" y="608" on="0"/>
        <pt x="140" y="657" on="0"/>
        <pt x="218" y="686" on="0"/>
      </contour>
    </TTGlyph>
    <TTGlyph name="T" xMin="10" yMin="0" xMax="482" yMax="677">
      <contour>
        <pt x="482" y="677" on="1"/>
        <pt x="467" y="587" on="1"/>
        <pt x="299" y="587" on="1"/>
        <pt x="299" y="0" on="1"/>
        <pt x="181" y="0" on="1"/>
        <pt x="181" y="587" on="1"/>
        <pt x="10" y="587" on="1"/>
        <pt x="10" y="677" on="1"/>
      </contour>
    </TTGlyph>
    <TTGlyph name="Thorn" xMin="70" yMin="0" xMax="511" yMax="677">
      <contour>
        <pt x="70" y="677" on="1"/>
        <pt x="189" y="677" on="1"/>
        <pt x="189" y="555" on="1"/>
        <pt x="271" y="555" on="1"/>
        <pt x="395" y="555" on="0"/>
        <pt x="511" y="449" on="0"/>
        <pt x="511" y="352" on="1"/>
        <pt x="511" y="257" on="0"/>
        <pt x="385" y="142" on="0"/>
        <pt x="259" y="142" on="1"/>
        <pt x="189" y="142" on="1"/>
        <pt x="189" y="0" on="1"/>
        <pt x="70" y="0" on="1"/>
      </contour>
      <contour>
        <pt x="189" y="230" on="1"/>
        <pt x="266" y="230" on="1"/>
        <pt x="329" y="230" on="0"/>
        <pt x="383" y="297" on="0"/>
        <pt x="383" y="348" on="1"/>
        <pt x="383" y="372" on="0"/>
        <pt x="371" y="416" on="0"/>
        <pt x="342" y="450" on="0"/>
        <pt x="293" y="471" on="0"/>
        <pt x="256" y="471" on="1"/>
        <pt x="234" y="471" on="0"/>
        <pt x="201" y="471" on="0"/>
        <pt x="189" y="470" on="1"/>
      </contour>
    </TTGlyph>
    <TTGlyph name="U" xMin="60" yMin="-6" xMax="575" yMax="677">
      <contour>
        <pt x="178" y="677" on="1"/>
        <pt x="178" y="258" on="1"/>
        <pt x="178" y="165" on="0"/>
        <pt x="256" y="86" on="0"/>
        <pt x="323" y="86" on="1"/>
        <pt x="391" y="86" on="0"/>
        <pt x="456" y="177" on="0"/>
        <pt x="456" y="258" on="1"/>
        <pt x="456" y="677" on="1"/>
        <pt x="575" y="677" on="1"/>
        <pt x="575" y="249" on="1"/>
        <pt x="575" y="197" on="0"/>
        <pt x="548" y="105" on="0"/>
        <pt x="486" y="35" on="0"/>
        <pt x="384" y="-6" on="0"/>
        <pt x="310" y="-6" on="1"/>
        <pt x="239" y="-6" on="0"/>
        <pt x="144" y="35" on="0"/>
        <pt x="85" y="105" on="0"/>
        <pt x="60" y="197" on="0"/>
        <pt x="60" y="249" on="1"/>
        <pt x="60" y="677" on="1"/>
      </contour>
    </TTGlyph>
    <TTGlyph name="Uacute" xMin="60" yMin="-6" xMax="575" yMax="928">
      <contour>
        <pt x="178" y="677" on="1"/>
        <pt x="178" y="258" on="1"/>
        <pt x="178" y="165" on="0"/>
        <pt x="256" y="86" on="0"/>
        <pt x="323" y="86" on="1"/>
        <pt x="391" y="86" on="0"/>
        <pt x="456" y="177" on="0"/>
        <pt x="456" y="258" on="1"/>
        <pt x="456" y="677" on="1"/>
        <pt x="575" y="677" on="1"/>
        <pt x="575" y="249" on="1"/>
        <pt x="575" y="197" on="0"/>
        <pt x="548" y="105" on="0"/>
        <pt x="486" y="35" on="0"/>
        <pt x="384" y="-6" on="0"/>
        <pt x="310" y="-6" on="1"/>
        <pt x="239" y="-6" on="0"/>
        <pt x="144" y="35" on="0"/>
        <pt x="85" y="105" on="0"/>
        <pt x="60" y="197" on="0"/>
        <pt x="60" y="249" on="1"/>
        <pt x="60" y="677" on="1"/>
      </contour>
      <contour>
        <pt x="290" y="776" on="1"/>
        <pt x="517" y="928" on="1"/>
        <pt x="569" y="846" on="1"/>
        <pt x="534" y="814" on="0"/>
        <pt x="447" y="766" on="0"/>
        <pt x="370" y="734" on="0"/>
        <pt x="344" y="726" on="1"/>
        <pt x="318" y="718" on="1"/>
      </contour>
    </TTGlyph>
    <TTGlyph name="Ucircumflex" xMin="60" yMin="-6" xMax="575" yMax="928">
      <contour>
        <pt x="178" y="677" on="1"/>
        <pt x="178" y="258" on="1"/>
        <pt x="178" y="165" on="0"/>
        <pt x="256" y="86" on="0"/>
        <pt x="323" y="86" on="1"/>
        <pt x="391" y="86" on="0"/>
        <pt x="456" y="177" on="0"/>
        <pt x="456" y="258" on="1"/>
        <pt x="456" y="677" on="1"/>
        <pt x="575" y="677" on="1"/>
        <pt x="575" y="249" on="1"/>
        <pt x="575" y="197" on="0"/>
        <pt x="548" y="105" on="0"/>
        <pt x="486" y="35" on="0"/>
        <pt x="384" y="-6" on="0"/>
        <pt x="310" y="-6" on="1"/>
        <pt x="239" y="-6" on="0"/>
        <pt x="144" y="35" on="0"/>
        <pt x="85" y="105" on="0"/>
        <pt x="60" y="197" on="0"/>
        <pt x="60" y="249" on="1"/>
        <pt x="60" y="677" on="1"/>
      </contour>
      <contour>
        <pt x="120" y="771" on="1"/>
        <pt x="318" y="928" on="1"/>
        <pt x="516" y="771" on="1"/>
        <pt x="472" y="718" on="1"/>
        <pt x="460" y="724" on="1"/>
        <pt x="447" y="729" on="0"/>
        <pt x="403" y="752" on="0"/>
        <pt x="348" y="786" on="0"/>
        <pt x="318" y="808" on="1"/>
        <pt x="288" y="786" on="0"/>
        <pt x="232" y="752" on="0"/>
        <pt x="189" y="729" on="0"/>
        <pt x="177" y="724" on="1"/>
        <pt x="164" y="718" on="1"/>
      </contour>
    </TTGlyph>
    <TTGlyph name="Udieresis" xMin="60" yMin="-6" xMax="575" yMax="874">
      <contour>
        <pt x="178" y="677" on="1"/>
        <pt x="178" y="258" on="1"/>
        <pt x="178" y="165" on="0"/>
        <pt x="256" y="86" on="0"/>
        <pt x="323" y="86" on="1"/>
        <pt x="391" y="86" on="0"/>
        <pt x="456" y="177" on="0"/>
        <pt x="456" y="258" on="1"/>
        <pt x="456" y="677" on="1"/>
        <pt x="575" y="677" on="1"/>
        <pt x="575" y="249" on="1"/>
        <pt x="575" y="197" on="0"/>
        <pt x="548" y="105" on="0"/>
        <pt x="486" y="35" on="0"/>
        <pt x="384" y="-6" on="0"/>
        <pt x="310" y="-6" on="1"/>
        <pt x="239" y="-6" on="0"/>
        <pt x="144" y="35" on="0"/>
        <pt x="85" y="105" on="0"/>
        <pt x="60" y="197" on="0"/>
        <pt x="60" y="249" on="1"/>
        <pt x="60" y="677" on="1"/>
      </contour>
      <contour>
        <pt x="279" y="784" on="0"/>
        <pt x="247" y="747" on="0"/>
        <pt x="215" y="747" on="1"/>
        <pt x="186" y="747" on="0"/>
        <pt x="155" y="783" on="0"/>
        <pt x="155" y="809" on="1"/>
        <pt x="155" y="837" on="0"/>
        <pt x="187" y="874" on="0"/>
        <pt x="218" y="874" on="1"/>
        <pt x="247" y="874" on="0"/>
        <pt x="279" y="838" on="0"/>
        <pt x="279" y="811" on="1"/>
      </contour>
      <contour>
        <pt x="479" y="784" on="0"/>
        <pt x="447" y="747" on="0"/>
        <pt x="415" y="747" on="1"/>
        <pt x="386" y="747" on="0"/>
        <pt x="354" y="783" on="0"/>
        <pt x="354" y="809" on="1"/>
        <pt x="354" y="837" on="0"/>
        <pt x="386" y="874" on="0"/>
        <pt x="418" y="874" on="1"/>
        <pt x="447" y="874" on="0"/>
        <pt x="479" y="838" on="0"/>
        <pt x="479" y="811" on="1"/>
      </contour>
    </TTGlyph>
    <TTGlyph name="Ugrave" xMin="60" yMin="-6" xMax="575" yMax="928">
      <contour>
        <pt x="178" y="677" on="1"/>
        <pt x="178" y="258" on="1"/>
        <pt x="178" y="165" on="0"/>
        <pt x="256" y="86" on="0"/>
        <pt x="323" y="86" on="1"/>
        <pt x="391" y="86" on="0"/>
        <pt x="456" y="177" on="0"/>
        <pt x="456" y="258" on="1"/>
        <pt x="456" y="677" on="1"/>
        <pt x="575" y="677" on="1"/>
        <pt x="575" y="249" on="1"/>
        <pt x="575" y="197" on="0"/>
        <pt x="548" y="105" on="0"/>
        <pt x="486" y="35" on="0"/>
        <pt x="384" y="-6" on="0"/>
        <pt x="310" y="-6" on="1"/>
        <pt x="239" y="-6" on="0"/>
        <pt x="144" y="35" on="0"/>
        <pt x="85" y="105" on="0"/>
        <pt x="60" y="197" on="0"/>
        <pt x="60" y="249" on="1"/>
        <pt x="60" y="677" on="1"/>
      </contour>
      <contour>
        <pt x="314" y="718" on="1"/>
        <pt x="288" y="726" on="1"/>
        <pt x="262" y="734" on="0"/>
        <pt x="185" y="766" on="0"/>
        <pt x="98" y="814" on="0"/>
        <pt x="63" y="846" on="1"/>
        <pt x="115" y="928" on="1"/>
        <pt x="342" y="776" on="1"/>
      </contour>
    </TTGlyph>
    <TTGlyph name="V" xMin="-8" yMin="0" xMax="591" yMax="677">
      <contour>
        <pt x="338" y="0" on="1"/>
        <pt x="245" y="0" on="1"/>
        <pt x="-8" y="677" on="1"/>
        <pt x="119" y="677" on="1"/>
        <pt x="203" y="435" on="1"/>
        <pt x="235" y="341" on="0"/>
        <pt x="281" y="198" on="0"/>
        <pt x="293" y="160" on="1"/>
        <pt x="304" y="198" on="0"/>
        <pt x="349" y="337" on="0"/>
        <pt x="383" y="433" on="1"/>
        <pt x="470" y="677" on="1"/>
        <pt x="591" y="677" on="1"/>
      </contour>
    </TTGlyph>
    <TTGlyph name="W" xMin="10" yMin="0" xMax="871" yMax="677">
      <contour>
        <pt x="461" y="411" on="1"/>
        <pt x="446" y="452" on="0"/>
        <pt x="437" y="491" on="1"/>
        <pt x="432" y="472" on="0"/>
        <pt x="423" y="434" on="0"/>
        <pt x="416" y="411" on="1"/>
        <pt x="286" y="0" on="1"/>
        <pt x="198" y="0" on="1"/>
        <pt x="10" y="677" on="1"/>
        <pt x="129" y="677" on="1"/>
        <pt x="217" y="338" on="1"/>
        <pt x="240" y="250" on="0"/>
        <pt x="250" y="196" on="1"/>
        <pt x="257" y="224" on="0"/>
        <pt x="276" y="292" on="0"/>
        <pt x="290" y="336" on="1"/>
        <pt x="396" y="677" on="1"/>
        <pt x="485" y="677" on="1"/>
        <pt x="591" y="336" on="1"/>
        <pt x="605" y="291" on="0"/>
        <pt x="625" y="217" on="0"/>
        <pt x="631" y="189" on="1"/>
        <pt x="635" y="217" on="0"/>
        <pt x="650" y="291" on="0"/>
        <pt x="662" y="336" on="1"/>
        <pt x="750" y="677" on="1"/>
        <pt x="871" y="677" on="1"/>
        <pt x="683" y="0" on="1"/>
        <pt x="595" y="0" on="1"/>
      </contour>
    </TTGlyph>
    <TTGlyph name="X" xMin="0" yMin="0" xMax="582" yMax="677">
      <contour>
        <pt x="0" y="0" on="1"/>
        <pt x="210" y="355" on="1"/>
        <pt x="20" y="677" on="1"/>
        <pt x="155" y="677" on="1"/>
        <pt x="250" y="506" on="1"/>
        <pt x="258" y="492" on="0"/>
        <pt x="280" y="449" on="0"/>
        <pt x="291" y="426" on="1"/>
        <pt x="302" y="449" on="0"/>
        <pt x="325" y="491" on="0"/>
        <pt x="333" y="505" on="1"/>
        <pt x="429" y="677" on="1"/>
        <pt x="563" y="677" on="1"/>
        <pt x="372" y="354" on="1"/>
        <pt x="582" y="0" on="1"/>
        <pt x="446" y="0" on="1"/>
        <pt x="334" y="200" on="1"/>
        <pt x="326" y="214" on="0"/>
        <pt x="302" y="259" on="0"/>
        <pt x="291" y="282" on="1"/>
        <pt x="249" y="200" on="1"/>
        <pt x="137" y="0" on="1"/>
      </contour>
    </TTGlyph>
    <TTGlyph name="Y" xMin="0" yMin="0" xMax="542" yMax="677">
      <contour>
        <pt x="210" y="259" on="1"/>
        <pt x="0" y="677" on="1"/>
        <pt x="129" y="677" on="1"/>
        <pt x="271" y="370" on="1"/>
        <pt x="416" y="677" on="1"/>
        <pt x="542" y="677" on="1"/>
        <pt x="329" y="254" on="1"/>
        <pt x="329" y="0" on="1"/>
        <pt x="210" y="0" on="1"/>
      </contour>
    </TTGlyph>
    <TTGlyph name="Yacute" xMin="0" yMin="0" xMax="542" yMax="928">
      <contour>
        <pt x="210" y="259" on="1"/>
        <pt x="0" y="677" on="1"/>
        <pt x="129" y="677" on="1"/>
        <pt x="271" y="370" on="1"/>
        <pt x="416" y="677" on="1"/>
        <pt x="542" y="677" on="1"/>
        <pt x="329" y="254" on="1"/>
        <pt x="329" y="0" on="1"/>
        <pt x="210" y="0" on="1"/>
      </contour>
      <contour>
        <pt x="245" y="776" on="1"/>
        <pt x="472" y="928" on="1"/>
        <pt x="524" y="846" on="1"/>
        <pt x="489" y="814" on="0"/>
        <pt x="402" y="766" on="0"/>
        <pt x="325" y="734" on="0"/>
        <pt x="299" y="726" on="1"/>
        <pt x="273" y="718" on="1"/>
      </contour>
    </TTGlyph>
    <TTGlyph name="Ydieresis" xMin="0" yMin="0" xMax="542" yMax="874">
      <contour>
        <pt x="210" y="259" on="1"/>
        <pt x="0" y="677" on="1"/>
        <pt x="129" y="677" on="1"/>
        <pt x="271" y="370" on="1"/>
        <pt x="416" y="677" on="1"/>
        <pt x="542" y="677" on="1"/>
        <pt x="329" y="254" on="1"/>
        <pt x="329" y="0" on="1"/>
        <pt x="210" y="0" on="1"/>
      </contour>
      <contour>
        <pt x="233" y="784" on="0"/>
        <pt x="201" y="747" on="0"/>
        <pt x="169" y="747" on="1"/>
        <pt x="140" y="747" on="0"/>
        <pt x="109" y="783" on="0"/>
        <pt x="109" y="809" on="1"/>
        <pt x="109" y="837" on="0"/>
        <pt x="141" y="874" on="0"/>
        <pt x="172" y="874" on="1"/>
        <pt x="201" y="874" on="0"/>
        <pt x="233" y="838" on="0"/>
        <pt x="233" y="811" on="1"/>
      </contour>
      <contour>
        <pt x="433" y="784" on="0"/>
        <pt x="401" y="747" on="0"/>
        <pt x="369" y="747" on="1"/>
        <pt x="340" y="747" on="0"/>
        <pt x="308" y="783" on="0"/>
        <pt x="308" y="809" on="1"/>
        <pt x="308" y="837" on="0"/>
        <pt x="340" y="874" on="0"/>
        <pt x="372" y="874" on="1"/>
        <pt x="401" y="874" on="0"/>
        <pt x="433" y="838" on="0"/>
        <pt x="433" y="811" on="1"/>
      </contour>
    </TTGlyph>
    <TTGlyph name="Z" xMin="40" yMin="0" xMax="493" yMax="677">
      <contour>
        <pt x="40" y="0" on="1"/>
        <pt x="40" y="71" on="1"/>
        <pt x="334" y="587" on="1"/>
        <pt x="314" y="585" on="0"/>
        <pt x="272" y="584" on="0"/>
        <pt x="248" y="584" on="1"/>
        <pt x="57" y="584" on="1"/>
        <pt x="41" y="677" on="1"/>
        <pt x="481" y="677" on="1"/>
        <pt x="481" y="606" on="1"/>
        <pt x="193" y="91" on="1"/>
        <pt x="210" y="92" on="0"/>
        <pt x="246" y="93" on="0"/>
        <pt x="267" y="93" on="1"/>
        <pt x="493" y="93" on="1"/>
        <pt x="493" y="0" on="1"/>
      </contour>
    </TTGlyph>
    <TTGlyph name="a" xMin="35" yMin="-8" xMax="515" yMax="506">
      <contour>
        <pt x="467" y="241" on="1"/>
        <pt x="467" y="181" on="0"/>
        <pt x="482" y="100" on="0"/>
        <pt x="491" y="75" on="1"/>
        <pt x="502" y="45" on="0"/>
        <pt x="515" y="28" on="1"/>
        <pt x="426" y="-8" on="1"/>
        <pt x="413" y="5" on="0"/>
        <pt x="402" y="23" on="1"/>
        <pt x="393" y="39" on="0"/>
        <pt x="377" y="84" on="0"/>
        <pt x="375" y="115" on="1"/>
        <pt x="358" y="55" on="0"/>
        <pt x="283" y="-6" on="0"/>
        <pt x="219" y="-6" on="1"/>
        <pt x="172" y="-6" on="0"/>
        <pt x="103" y="29" on="0"/>
        <pt x="57" y="94" on="0"/>
        <pt x="35" y="186" on="0"/>
        <pt x="35" y="242" on="1"/>
        <pt x="35" y="299" on="0"/>
        <pt x="70" y="396" on="0"/>
        <pt x="133" y="466" on="0"/>
        <pt x="221" y="506" on="0"/>
        <pt x="274" y="506" on="1"/>
        <pt x="304" y="506" on="0"/>
        <pt x="369" y="497" on="0"/>
        <pt x="425" y="487" on="0"/>
        <pt x="464" y="478" on="0"/>
        <pt x="467" y="477" on="1"/>
      </contour>
      <contour>
        <pt x="263" y="74" on="0"/>
        <pt x="305" y="108" on="0"/>
        <pt x="336" y="163" on="0"/>
        <pt x="353" y="234" on="0"/>
        <pt x="353" y="271" on="1"/>
        <pt x="353" y="415" on="1"/>
        <pt x="343" y="418" on="0"/>
        <pt x="303" y="426" on="0"/>
        <pt x="287" y="426" on="1"/>
        <pt x="249" y="426" on="0"/>
        <pt x="200" y="400" on="0"/>
        <pt x="170" y="354" on="0"/>
        <pt x="158" y="290" on="0"/>
        <pt x="158" y="252" on="1"/>
        <pt x="158" y="217" on="0"/>
        <pt x="162" y="153" on="0"/>
        <pt x="179" y="103" on="0"/>
        <pt x="211" y="74" on="0"/>
        <pt x="238" y="74" on="1"/>
      </contour>
    </TTGlyph>
    <TTGlyph name="aacute" xMin="35" yMin="-8" xMax="515" yMax="779">
      <contour>
        <pt x="467" y="241" on="1"/>
        <pt x="467" y="181" on="0"/>
        <pt x="482" y="100" on="0"/>
        <pt x="491" y="75" on="1"/>
        <pt x="502" y="45" on="0"/>
        <pt x="515" y="28" on="1"/>
        <pt x="426" y="-8" on="1"/>
        <pt x="413" y="5" on="0"/>
        <pt x="402" y="23" on="1"/>
        <pt x="393" y="39" on="0"/>
        <pt x="377" y="84" on="0"/>
        <pt x="375" y="115" on="1"/>
        <pt x="358" y="55" on="0"/>
        <pt x="283" y="-6" on="0"/>
        <pt x="219" y="-6" on="1"/>
        <pt x="172" y="-6" on="0"/>
        <pt x="103" y="29" on="0"/>
        <pt x="57" y="94" on="0"/>
        <pt x="35" y="186" on="0"/>
        <pt x="35" y="242" on="1"/>
        <pt x="35" y="299" on="0"/>
        <pt x="70" y="396" on="0"/>
        <pt x="133" y="466" on="0"/>
        <pt x="221" y="506" on="0"/>
        <pt x="274" y="506" on="1"/>
        <pt x="304" y="506" on="0"/>
        <pt x="369" y="497" on="0"/>
        <pt x="425" y="487" on="0"/>
        <pt x="464" y="478" on="0"/>
        <pt x="467" y="477" on="1"/>
      </contour>
      <contour>
        <pt x="263" y="74" on="0"/>
        <pt x="305" y="108" on="0"/>
        <pt x="336" y="163" on="0"/>
        <pt x="353" y="234" on="0"/>
        <pt x="353" y="271" on="1"/>
        <pt x="353" y="415" on="1"/>
        <pt x="343" y="418" on="0"/>
        <pt x="303" y="426" on="0"/>
        <pt x="287" y="426" on="1"/>
        <pt x="249" y="426" on="0"/>
        <pt x="200" y="400" on="0"/>
        <pt x="170" y="354" on="0"/>
        <pt x="158" y="290" on="0"/>
        <pt x="158" y="252" on="1"/>
        <pt x="158" y="217" on="0"/>
        <pt x="162" y="153" on="0"/>
        <pt x="179" y="103" on="0"/>
        <pt x="211" y="74" on="0"/>
        <pt x="238" y="74" on="1"/>
      </contour>
      <contour>
        <pt x="210" y="590" on="1"/>
        <pt x="380" y="779" on="1"/>
        <pt x="456" y="708" on="1"/>
        <pt x="426" y="671" on="0"/>
        <pt x="357" y="609" on="0"/>
        <pt x="328" y="586" on="1"/>
        <pt x="294" y="560" on="0"/>
        <pt x="259" y="538" on="1"/>
      </contour>
    </TTGlyph>
    <TTGlyph name="acircumflex" xMin="35" yMin="-8" xMax="515" yMax="779">
      <contour>
        <pt x="467" y="241" on="1"/>
        <pt x="467" y="181" on="0"/>
        <pt x="482" y="100" on="0"/>
        <pt x="491" y="75" on="1"/>
        <pt x="502" y="45" on="0"/>
        <pt x="515" y="28" on="1"/>
        <pt x="426" y="-8" on="1"/>
        <pt x="413" y="5" on="0"/>
        <pt x="402" y="23" on="1"/>
        <pt x="393" y="39" on="0"/>
        <pt x="377" y="84" on="0"/>
        <pt x="375" y="115" on="1"/>
        <pt x="358" y="55" on="0"/>
        <pt x="283" y="-6" on="0"/>
        <pt x="219" y="-6" on="1"/>
        <pt x="172" y="-6" on="0"/>
        <pt x="103" y="29" on="0"/>
        <pt x="57" y="94" on="0"/>
        <pt x="35" y="186" on="0"/>
        <pt x="35" y="242" on="1"/>
        <pt x="35" y="299" on="0"/>
        <pt x="70" y="396" on="0"/>
        <pt x="133" y="466" on="0"/>
        <pt x="221" y="506" on="0"/>
        <pt x="274" y="506" on="1"/>
        <pt x="304" y="506" on="0"/>
        <pt x="369" y="497" on="0"/>
        <pt x="425" y="487" on="0"/>
        <pt x="464" y="478" on="0"/>
        <pt x="467" y="477" on="1"/>
      </contour>
      <contour>
        <pt x="263" y="74" on="0"/>
        <pt x="305" y="108" on="0"/>
        <pt x="336" y="163" on="0"/>
        <pt x="353" y="234" on="0"/>
        <pt x="353" y="271" on="1"/>
        <pt x="353" y="415" on="1"/>
        <pt x="343" y="418" on="0"/>
        <pt x="303" y="426" on="0"/>
        <pt x="287" y="426" on="1"/>
        <pt x="249" y="426" on="0"/>
        <pt x="200" y="400" on="0"/>
        <pt x="170" y="354" on="0"/>
        <pt x="158" y="290" on="0"/>
        <pt x="158" y="252" on="1"/>
        <pt x="158" y="217" on="0"/>
        <pt x="162" y="153" on="0"/>
        <pt x="179" y="103" on="0"/>
        <pt x="211" y="74" on="0"/>
        <pt x="238" y="74" on="1"/>
      </contour>
      <contour>
        <pt x="87" y="592" on="1"/>
        <pt x="275" y="779" on="1"/>
        <pt x="462" y="592" on="1"/>
        <pt x="419" y="538" on="1"/>
        <pt x="408" y="545" on="1"/>
        <pt x="396" y="552" on="0"/>
        <pt x="355" y="579" on="0"/>
        <pt x="303" y="618" on="0"/>
        <pt x="275" y="642" on="1"/>
        <pt x="246" y="617" on="0"/>
        <pt x="193" y="579" on="0"/>
        <pt x="153" y="552" on="0"/>
        <pt x="142" y="545" on="1"/>
        <pt x="130" y="538" on="1"/>
      </contour>
    </TTGlyph>
    <TTGlyph name="acute" xMin="178" yMin="538" xMax="424" yMax="779">
      <contour>
        <pt x="178" y="590" on="1"/>
        <pt x="348" y="779" on="1"/>
        <pt x="424" y="708" on="1"/>
        <pt x="394" y="671" on="0"/>
        <pt x="325" y="609" on="0"/>
        <pt x="296" y="586" on="1"/>
        <pt x="262" y="560" on="0"/>
        <pt x="227" y="538" on="1"/>
      </contour>
    </TTGlyph>
    <TTGlyph name="adieresis" xMin="35" yMin="-8" xMax="515" yMax="714">
      <contour>
        <pt x="467" y="241" on="1"/>
        <pt x="467" y="181" on="0"/>
        <pt x="482" y="100" on="0"/>
        <pt x="491" y="75" on="1"/>
        <pt x="502" y="45" on="0"/>
        <pt x="515" y="28" on="1"/>
        <pt x="426" y="-8" on="1"/>
        <pt x="413" y="5" on="0"/>
        <pt x="402" y="23" on="1"/>
        <pt x="393" y="39" on="0"/>
        <pt x="377" y="84" on="0"/>
        <pt x="375" y="115" on="1"/>
        <pt x="358" y="55" on="0"/>
        <pt x="283" y="-6" on="0"/>
        <pt x="219" y="-6" on="1"/>
        <pt x="172" y="-6" on="0"/>
        <pt x="103" y="29" on="0"/>
        <pt x="57" y="94" on="0"/>
        <pt x="35" y="186" on="0"/>
        <pt x="35" y="242" on="1"/>
        <pt x="35" y="299" on="0"/>
        <pt x="70" y="396" on="0"/>
        <pt x="133" y="466" on="0"/>
        <pt x="221" y="506" on="0"/>
        <pt x="274" y="506" on="1"/>
        <pt x="304" y="506" on="0"/>
        <pt x="369" y="497" on="0"/>
        <pt x="425" y="487" on="0"/>
        <pt x="464" y="478" on="0"/>
        <pt x="467" y="477" on="1"/>
      </contour>
      <contour>
        <pt x="263" y="74" on="0"/>
        <pt x="305" y="108" on="0"/>
        <pt x="336" y="163" on="0"/>
        <pt x="353" y="234" on="0"/>
        <pt x="353" y="271" on="1"/>
        <pt x="353" y="415" on="1"/>
        <pt x="343" y="418" on="0"/>
        <pt x="303" y="426" on="0"/>
        <pt x="287" y="426" on="1"/>
        <pt x="249" y="426" on="0"/>
        <pt x="200" y="400" on="0"/>
        <pt x="170" y="354" on="0"/>
        <pt x="158" y="290" on="0"/>
        <pt x="158" y="252" on="1"/>
        <pt x="158" y="217" on="0"/>
        <pt x="162" y="153" on="0"/>
        <pt x="179" y="103" on="0"/>
        <pt x="211" y="74" on="0"/>
        <pt x="238" y="74" on="1"/>
      </contour>
      <contour>
        <pt x="229" y="624" on="0"/>
        <pt x="197" y="587" on="0"/>
        <pt x="165" y="587" on="1"/>
        <pt x="136" y="587" on="0"/>
        <pt x="105" y="623" on="0"/>
        <pt x="105" y="649" on="1"/>
        <pt x="105" y="677" on="0"/>
        <pt x="137" y="714" on="0"/>
        <pt x="168" y="714" on="1"/>
        <pt x="197" y="714" on="0"/>
        <pt x="229" y="678" on="0"/>
        <pt x="229" y="651" on="1"/>
      </contour>
      <contour>
        <pt x="429" y="624" on="0"/>
        <pt x="397" y="587" on="0"/>
        <pt x="365" y="587" on="1"/>
        <pt x="336" y="587" on="0"/>
        <pt x="304" y="623" on="0"/>
        <pt x="304" y="649" on="1"/>
        <pt x="304" y="677" on="0"/>
        <pt x="336" y="714" on="0"/>
        <pt x="368" y="714" on="1"/>
        <pt x="397" y="714" on="0"/>
        <pt x="429" y="678" on="0"/>
        <pt x="429" y="651" on="1"/>
      </contour>
    </TTGlyph>
    <TTGlyph name="ae" xMin="35" yMin="-7" xMax="740" yMax="510">
      <contour>
        <pt x="328" y="506" on="0"/>
        <pt x="413" y="482" on="0"/>
        <pt x="438" y="471" on="1"/>
        <pt x="495" y="510" on="0"/>
        <pt x="573" y="510" on="1"/>
        <pt x="618" y="510" on="0"/>
        <pt x="681" y="488" on="0"/>
        <pt x="721" y="450" on="0"/>
        <pt x="740" y="398" on="0"/>
        <pt x="740" y="368" on="1"/>
        <pt x="740" y="332" on="0"/>
        <pt x="700" y="267" on="0"/>
        <pt x="626" y="218" on="0"/>
        <pt x="519" y="189" on="0"/>
        <pt x="453" y="188" on="1"/>
        <pt x="456" y="165" on="0"/>
        <pt x="469" y="124" on="0"/>
        <pt x="494" y="93" on="0"/>
        <pt x="534" y="75" on="0"/>
        <pt x="564" y="75" on="1"/>
        <pt x="586" y="75" on="0"/>
        <pt x="636" y="85" on="0"/>
        <pt x="657" y="92" on="1"/>
        <pt x="682" y="100" on="0"/>
        <pt x="706" y="110" on="1"/>
        <pt x="736" y="39" on="1"/>
        <pt x="710" y="26" on="0"/>
        <pt x="680" y="16" on="1"/>
        <pt x="654" y="7" on="0"/>
        <pt x="586" y="-7" on="0"/>
        <pt x="548" y="-7" on="1"/>
        <pt x="479" y="-7" on="0"/>
        <pt x="389" y="41" on="0"/>
        <pt x="364" y="86" on="1"/>
        <pt x="345" y="40" on="0"/>
        <pt x="275" y="-6" on="0"/>
        <pt x="219" y="-6" on="1"/>
        <pt x="172" y="-6" on="0"/>
        <pt x="103" y="29" on="0"/>
        <pt x="57" y="94" on="0"/>
        <pt x="35" y="186" on="0"/>
        <pt x="35" y="242" on="1"/>
        <pt x="35" y="299" on="0"/>
        <pt x="70" y="396" on="0"/>
        <pt x="133" y="466" on="0"/>
        <pt x="221" y="506" on="0"/>
        <pt x="274" y="506" on="1"/>
      </contour>
      <contour>
        <pt x="272" y="74" on="0"/>
        <pt x="324" y="126" on="0"/>
        <pt x="338" y="168" on="1"/>
        <pt x="335" y="184" on="0"/>
        <pt x="333" y="218" on="0"/>
        <pt x="333" y="237" on="1"/>
        <pt x="333" y="288" on="0"/>
        <pt x="354" y="371" on="0"/>
        <pt x="374" y="403" on="1"/>
        <pt x="356" y="413" on="0"/>
        <pt x="313" y="426" on="0"/>
        <pt x="287" y="426" on="1"/>
        <pt x="249" y="426" on="0"/>
        <pt x="200" y="400" on="0"/>
        <pt x="170" y="354" on="0"/>
        <pt x="158" y="290" on="0"/>
        <pt x="158" y="252" on="1"/>
        <pt x="158" y="217" on="0"/>
        <pt x="162" y="153" on="0"/>
        <pt x="179" y="103" on="0"/>
        <pt x="211" y="74" on="0"/>
        <pt x="238" y="74" on="1"/>
      </contour>
      <contour>
        <pt x="532" y="432" on="0"/>
        <pt x="488" y="401" on="0"/>
        <pt x="462" y="352" on="0"/>
        <pt x="451" y="291" on="0"/>
        <pt x="450" y="260" on="1"/>
        <pt x="498" y="262" on="0"/>
        <pt x="565" y="283" on="0"/>
        <pt x="607" y="314" on="0"/>
        <pt x="626" y="350" on="0"/>
        <pt x="626" y="368" on="1"/>
        <pt x="626" y="397" on="0"/>
        <pt x="592" y="432" on="0"/>
        <pt x="565" y="432" on="1"/>
      </contour>
    </TTGlyph>
    <TTGlyph name="agrave" xMin="35" yMin="-8" xMax="515" yMax="779">
      <contour>
        <pt x="467" y="241" on="1"/>
        <pt x="467" y="181" on="0"/>
        <pt x="482" y="100" on="0"/>
        <pt x="491" y="75" on="1"/>
        <pt x="502" y="45" on="0"/>
        <pt x="515" y="28" on="1"/>
        <pt x="426" y="-8" on="1"/>
        <pt x="413" y="5" on="0"/>
        <pt x="402" y="23" on="1"/>
        <pt x="393" y="39" on="0"/>
        <pt x="377" y="84" on="0"/>
        <pt x="375" y="115" on="1"/>
        <pt x="358" y="55" on="0"/>
        <pt x="283" y="-6" on="0"/>
        <pt x="219" y="-6" on="1"/>
        <pt x="172" y="-6" on="0"/>
        <pt x="103" y="29" on="0"/>
        <pt x="57" y="94" on="0"/>
        <pt x="35" y="186" on="0"/>
        <pt x="35" y="242" on="1"/>
        <pt x="35" y="299" on="0"/>
        <pt x="70" y="396" on="0"/>
        <pt x="133" y="466" on="0"/>
        <pt x="221" y="506" on="0"/>
        <pt x="274" y="506" on="1"/>
        <pt x="304" y="506" on="0"/>
        <pt x="369" y="497" on="0"/>
        <pt x="425" y="487" on="0"/>
        <pt x="464" y="478" on="0"/>
        <pt x="467" y="477" on="1"/>
      </contour>
      <contour>
        <pt x="263" y="74" on="0"/>
        <pt x="305" y="108" on="0"/>
        <pt x="336" y="163" on="0"/>
        <pt x="353" y="234" on="0"/>
        <pt x="353" y="271" on="1"/>
        <pt x="353" y="415" on="1"/>
        <pt x="343" y="418" on="0"/>
        <pt x="303" y="426" on="0"/>
        <pt x="287" y="426" on="1"/>
        <pt x="249" y="426" on="0"/>
        <pt x="200" y="400" on="0"/>
        <pt x="170" y="354" on="0"/>
        <pt x="158" y="290" on="0"/>
        <pt x="158" y="252" on="1"/>
        <pt x="158" y="217" on="0"/>
        <pt x="162" y="153" on="0"/>
        <pt x="179" y="103" on="0"/>
        <pt x="211" y="74" on="0"/>
        <pt x="238" y="74" on="1"/>
      </contour>
      <contour>
        <pt x="268" y="538" on="1"/>
        <pt x="234" y="560" on="0"/>
        <pt x="199" y="586" on="1"/>
        <pt x="169" y="609" on="0"/>
        <pt x="99" y="671" on="0"/>
        <pt x="70" y="708" on="1"/>
        <pt x="146" y="779" on="1"/>
        <pt x="316" y="590" on="1"/>
      </contour>
    </TTGlyph>
    <TTGlyph name="ampersand" xMin="35" yMin="-6" xMax="579" yMax="595">
      <contour>
        <pt x="384" y="460" on="1"/>
        <pt x="380" y="463" on="0"/>
        <pt x="366" y="476" on="0"/>
        <pt x="345" y="490" on="0"/>
        <pt x="317" y="501" on="0"/>
        <pt x="300" y="501" on="1"/>
        <pt x="269" y="501" on="0"/>
        <pt x="238" y="472" on="0"/>
        <pt x="238" y="448" on="1"/>
        <pt x="238" y="424" on="0"/>
        <pt x="264" y="371" on="0"/>
        <pt x="310" y="313" on="0"/>
        <pt x="374" y="250" on="0"/>
        <pt x="413" y="216" on="1"/>
        <pt x="425" y="236" on="0"/>
        <pt x="445" y="275" on="0"/>
        <pt x="453" y="295" on="1"/>
        <pt x="537" y="261" on="1"/>
        <pt x="526" y="236" on="0"/>
        <pt x="499" y="181" on="0"/>
        <pt x="482" y="155" on="1"/>
        <pt x="579" y="71" on="1"/>
        <pt x="522" y="-5" on="1"/>
        <pt x="420" y="78" on="1"/>
        <pt x="382" y="41" on="0"/>
        <pt x="282" y="-6" on="0"/>
        <pt x="216" y="-6" on="1"/>
        <pt x="182" y="-6" on="0"/>
        <pt x="117" y="17" on="0"/>
        <pt x="66" y="62" on="0"/>
        <pt x="35" y="127" on="0"/>
        <pt x="35" y="169" on="1"/>
        <pt x="35" y="206" on="0"/>
        <pt x="56" y="267" on="0"/>
        <pt x="88" y="315" on="0"/>
        <pt x="127" y="351" on="0"/>
        <pt x="144" y="363" on="1"/>
        <pt x="121" y="409" on="0"/>
        <pt x="121" y="453" on="1"/>
        <pt x="121" y="480" on="0"/>
        <pt x="140" y="531" on="0"/>
        <pt x="181" y="571" on="0"/>
        <pt x="246" y="595" on="0"/>
        <pt x="292" y="595" on="1"/>
        <pt x="343" y="595" on="0"/>
        <pt x="416" y="556" on="0"/>
        <pt x="442" y="523" on="1"/>
      </contour>
      <contour>
        <pt x="304" y="176" on="0"/>
        <pt x="223" y="252" on="0"/>
        <pt x="193" y="290" on="1"/>
        <pt x="179" y="275" on="0"/>
        <pt x="153" y="222" on="0"/>
        <pt x="153" y="184" on="1"/>
        <pt x="153" y="141" on="0"/>
        <pt x="203" y="92" on="0"/>
        <pt x="249" y="92" on="1"/>
        <pt x="276" y="92" on="0"/>
        <pt x="326" y="116" on="0"/>
        <pt x="349" y="138" on="1"/>
      </contour>
    </TTGlyph>
    <TTGlyph name="apostrophe" xMin="30" yMin="436" xMax="210" yMax="724">
      <contour>
        <pt x="78" y="707" on="0"/>
        <pt x="108" y="724" on="0"/>
        <pt x="143" y="724" on="1"/>
        <pt x="178" y="724" on="0"/>
        <pt x="210" y="682" on="0"/>
        <pt x="210" y="650" on="1"/>
        <pt x="210" y="609" on="0"/>
        <pt x="187" y="543" on="0"/>
        <pt x="149" y="489" on="0"/>
        <pt x="100" y="449" on="0"/>
        <pt x="73" y="436" on="1"/>
        <pt x="30" y="494" on="1"/>
        <pt x="69" y="523" on="0"/>
        <pt x="96" y="581" on="0"/>
        <pt x="96" y="608" on="1"/>
        <pt x="96" y="637" on="0"/>
        <pt x="78" y="687" on="0"/>
        <pt x="77" y="706" on="1"/>
      </contour>
    </TTGlyph>
    <TTGlyph name="aring" xMin="35" yMin="-8" xMax="515" yMax="746">
      <contour>
        <pt x="467" y="241" on="1"/>
        <pt x="467" y="181" on="0"/>
        <pt x="482" y="100" on="0"/>
        <pt x="491" y="75" on="1"/>
        <pt x="502" y="45" on="0"/>
        <pt x="515" y="28" on="1"/>
        <pt x="426" y="-8" on="1"/>
        <pt x="413" y="5" on="0"/>
        <pt x="402" y="23" on="1"/>
        <pt x="393" y="39" on="0"/>
        <pt x="377" y="84" on="0"/>
        <pt x="375" y="115" on="1"/>
        <pt x="358" y="55" on="0"/>
        <pt x="283" y="-6" on="0"/>
        <pt x="219" y="-6" on="1"/>
        <pt x="172" y="-6" on="0"/>
        <pt x="103" y="29" on="0"/>
        <pt x="57" y="94" on="0"/>
        <pt x="35" y="186" on="0"/>
        <pt x="35" y="242" on="1"/>
        <pt x="35" y="299" on="0"/>
        <pt x="70" y="396" on="0"/>
        <pt x="133" y="466" on="0"/>
        <pt x="221" y="506" on="0"/>
        <pt x="274" y="506" on="1"/>
        <pt x="304" y="506" on="0"/>
        <pt x="369" y="497" on="0"/>
        <pt x="425" y="487" on="0"/>
        <pt x="464" y="478" on="0"/>
        <pt x="467" y="477" on="1"/>
      </contour>
      <contour>
        <pt x="263" y="74" on="0"/>
        <pt x="305" y="108" on="0"/>
        <pt x="336" y="163" on="0"/>
        <pt x="353" y="234" on="0"/>
        <pt x="353" y="271" on="1"/>
        <pt x="353" y="415" on="1"/>
        <pt x="343" y="418" on="0"/>
        <pt x="303" y="426" on="0"/>
        <pt x="287" y="426" on="1"/>
        <pt x="249" y="426" on="0"/>
        <pt x="200" y="400" on="0"/>
        <pt x="170" y="354" on="0"/>
        <pt x="158" y="290" on="0"/>
        <pt x="158" y="252" on="1"/>
        <pt x="158" y="217" on="0"/>
        <pt x="162" y="153" on="0"/>
        <pt x="179" y="103" on="0"/>
        <pt x="211" y="74" on="0"/>
        <pt x="238" y="74" on="1"/>
      </contour>
      <contour>
        <pt x="168" y="689" on="0"/>
        <pt x="225" y="746" on="0"/>
        <pt x="269" y="746" on="1"/>
        <pt x="312" y="746" on="0"/>
        <pt x="367" y="690" on="0"/>
        <pt x="367" y="646" on="1"/>
        <pt x="367" y="603" on="0"/>
        <pt x="310" y="545" on="0"/>
        <pt x="266" y="545" on="1"/>
        <pt x="223" y="545" on="0"/>
        <pt x="168" y="603" on="0"/>
        <pt x="168" y="646" on="1"/>
      </contour>
      <contour>
        <pt x="224" y="624" on="0"/>
        <pt x="247" y="594" on="0"/>
        <pt x="267" y="594" on="1"/>
        <pt x="288" y="594" on="0"/>
        <pt x="311" y="622" on="0"/>
        <pt x="311" y="646" on="1"/>
        <pt x="311" y="669" on="0"/>
        <pt x="288" y="696" on="0"/>
        <pt x="267" y="696" on="1"/>
        <pt x="224" y="696" on="0"/>
        <pt x="224" y="647" on="1"/>
      </contour>
    </TTGlyph>
    <TTGlyph name="asciicircum" xMin="50" yMin="296" xMax="491" yMax="677">
      <contour>
        <pt x="384" y="303" on="1"/>
        <pt x="296" y="496" on="1"/>
        <pt x="271" y="557" on="1"/>
        <pt x="266" y="543" on="0"/>
        <pt x="252" y="511" on="0"/>
        <pt x="245" y="496" on="1"/>
        <pt x="153" y="296" on="1"/>
        <pt x="50" y="315" on="1"/>
        <pt x="229" y="677" on="1"/>
        <pt x="312" y="677" on="1"/>
        <pt x="491" y="315" on="1"/>
      </contour>
    </TTGlyph>
    <TTGlyph name="asciitilde" xMin="50" yMin="247" xMax="466" yMax="390">
      <contour>
        <pt x="203" y="390" on="0"/>
        <pt x="246" y="371" on="0"/>
        <pt x="282" y="349" on="0"/>
        <pt x="318" y="330" on="0"/>
        <pt x="341" y="330" on="1"/>
        <pt x="356" y="330" on="0"/>
        <pt x="378" y="335" on="0"/>
        <pt x="396" y="347" on="0"/>
        <pt x="413" y="364" on="0"/>
        <pt x="424" y="376" on="1"/>
        <pt x="466" y="330" on="1"/>
        <pt x="453" y="306" on="0"/>
        <pt x="435" y="288" on="1"/>
        <pt x="419" y="272" on="0"/>
        <pt x="373" y="247" on="0"/>
        <pt x="341" y="247" on="1"/>
        <pt x="312" y="247" on="0"/>
        <pt x="270" y="266" on="0"/>
        <pt x="234" y="288" on="0"/>
        <pt x="197" y="307" on="0"/>
        <pt x="174" y="307" on="1"/>
        <pt x="159" y="307" on="0"/>
        <pt x="138" y="302" on="0"/>
        <pt x="120" y="290" on="0"/>
        <pt x="103" y="273" on="0"/>
        <pt x="92" y="261" on="1"/>
        <pt x="50" y="308" on="1"/>
        <pt x="62" y="331" on="0"/>
        <pt x="80" y="349" on="1"/>
        <pt x="95" y="364" on="0"/>
        <pt x="142" y="390" on="0"/>
        <pt x="174" y="390" on="1"/>
      </contour>
    </TTGlyph>
    <TTGlyph name="asterisk" xMin="50" yMin="346" xMax="400" yMax="677">
      <contour>
        <pt x="270" y="677" on="1"/>
        <pt x="260" y="563" on="1"/>
        <pt x="370" y="609" on="1"/>
        <pt x="400" y="518" on="1"/>
        <pt x="287" y="491" on="1"/>
        <pt x="363" y="404" on="1"/>
        <pt x="285" y="347" on="1"/>
        <pt x="224" y="446" on="1"/>
        <pt x="162" y="346" on="1"/>
        <pt x="84" y="403" on="1"/>
        <pt x="161" y="492" on="1"/>
        <pt x="50" y="518" on="1"/>
        <pt x="80" y="609" on="1"/>
        <pt x="183" y="566" on="1"/>
        <pt x="174" y="677" on="1"/>
      </contour>
    </TTGlyph>
    <TTGlyph name="at" xMin="55" yMin="-162" xMax="844" yMax="615">
      <contour>
        <pt x="626" y="217" on="1"/>
        <pt x="626" y="188" on="0"/>
        <pt x="629" y="136" on="0"/>
        <pt x="639" y="97" on="0"/>
        <pt x="660" y="73" on="0"/>
        <pt x="677" y="73" on="1"/>
        <pt x="701" y="73" on="0"/>
        <pt x="733" y="121" on="0"/>
        <pt x="752" y="186" on="0"/>
        <pt x="760" y="252" on="0"/>
        <pt x="760" y="269" on="1"/>
        <pt x="760" y="338" on="0"/>
        <pt x="714" y="439" on="0"/>
        <pt x="637" y="506" on="0"/>
        <pt x="536" y="538" on="0"/>
        <pt x="480" y="538" on="1"/>
        <pt x="417" y="538" on="0"/>
        <pt x="295" y="495" on="0"/>
        <pt x="199" y="410" on="0"/>
        <pt x="140" y="285" on="0"/>
        <pt x="140" y="203" on="1"/>
        <pt x="140" y="149" on="0"/>
        <pt x="164" y="46" on="0"/>
        <pt x="224" y="-35" on="0"/>
        <pt x="329" y="-84" on="0"/>
        <pt x="410" y="-84" on="1"/>
        <pt x="440" y="-84" on="0"/>
        <pt x="500" y="-73" on="0"/>
        <pt x="549" y="-59" on="0"/>
        <pt x="580" y="-47" on="0"/>
        <pt x="582" y="-46" on="1"/>
        <pt x="609" y="-115" on="1"/>
        <pt x="608" y="-116" on="0"/>
        <pt x="574" y="-131" on="0"/>
        <pt x="519" y="-148" on="0"/>
        <pt x="448" y="-162" on="0"/>
        <pt x="411" y="-162" on="1"/>
        <pt x="344" y="-162" on="0"/>
        <pt x="216" y="-128" on="0"/>
        <pt x="116" y="-45" on="0"/>
        <pt x="55" y="94" on="0"/>
        <pt x="55" y="199" on="1"/>
        <pt x="55" y="301" on="0"/>
        <pt x="131" y="456" on="0"/>
        <pt x="254" y="561" on="0"/>
        <pt x="411" y="615" on="0"/>
        <pt x="491" y="615" on="1"/>
        <pt x="560" y="615" on="0"/>
        <pt x="688" y="574" on="0"/>
        <pt x="785" y="490" on="0"/>
        <pt x="844" y="363" on="0"/>
        <pt x="844" y="277" on="1"/>
        <pt x="844" y="243" on="0"/>
        <pt x="825" y="146" on="0"/>
        <pt x="783" y="57" on="0"/>
        <pt x="717" y="-6" on="0"/>
        <pt x="669" y="-6" on="1"/>
        <pt x="613" y="-6" on="0"/>
        <pt x="554" y="59" on="0"/>
        <pt x="541" y="109" on="1"/>
        <pt x="527" y="52" on="0"/>
        <pt x="459" y="-6" on="0"/>
        <pt x="399" y="-6" on="1"/>
        <pt x="314" y="-6" on="0"/>
        <pt x="234" y="116" on="0"/>
        <pt x="234" y="218" on="1"/>
        <pt x="234" y="269" on="0"/>
        <pt x="265" y="356" on="0"/>
        <pt x="322" y="419" on="0"/>
        <pt x="401" y="455" on="0"/>
        <pt x="449" y="455" on="1"/>
        <pt x="476" y="455" on="0"/>
        <pt x="538" y="447" on="0"/>
        <pt x="564" y="442" on="1"/>
        <pt x="595" y="436" on="0"/>
        <pt x="626" y="429" on="1"/>
      </contour>
      <contour>
        <pt x="437" y="69" on="0"/>
        <pt x="475" y="97" on="0"/>
        <pt x="504" y="144" on="0"/>
        <pt x="520" y="204" on="0"/>
        <pt x="520" y="237" on="1"/>
        <pt x="520" y="371" on="1"/>
        <pt x="512" y="373" on="0"/>
        <pt x="474" y="381" on="0"/>
        <pt x="460" y="381" on="1"/>
        <pt x="430" y="381" on="0"/>
        <pt x="387" y="358" on="0"/>
        <pt x="359" y="317" on="0"/>
        <pt x="346" y="261" on="0"/>
        <pt x="346" y="227" on="1"/>
        <pt x="346" y="195" on="0"/>
        <pt x="351" y="138" on="0"/>
        <pt x="366" y="95" on="0"/>
        <pt x="394" y="69" on="0"/>
        <pt x="416" y="69" on="1"/>
      </contour>
    </TTGlyph>
    <TTGlyph name="atilde" xMin="35" yMin="-8" xMax="515" yMax="686">
      <contour>
        <pt x="467" y="241" on="1"/>
        <pt x="467" y="181" on="0"/>
        <pt x="482" y="100" on="0"/>
        <pt x="491" y="75" on="1"/>
        <pt x="502" y="45" on="0"/>
        <pt x="515" y="28" on="1"/>
        <pt x="426" y="-8" on="1"/>
        <pt x="413" y="5" on="0"/>
        <pt x="402" y="23" on="1"/>
        <pt x="393" y="39" on="0"/>
        <pt x="377" y="84" on="0"/>
        <pt x="375" y="115" on="1"/>
        <pt x="358" y="55" on="0"/>
        <pt x="283" y="-6" on="0"/>
        <pt x="219" y="-6" on="1"/>
        <pt x="172" y="-6" on="0"/>
        <pt x="103" y="29" on="0"/>
        <pt x="57" y="94" on="0"/>
        <pt x="35" y="186" on="0"/>
        <pt x="35" y="242" on="1"/>
        <pt x="35" y="299" on="0"/>
        <pt x="70" y="396" on="0"/>
        <pt x="133" y="466" on="0"/>
        <pt x="221" y="506" on="0"/>
        <pt x="274" y="506" on="1"/>
        <pt x="304" y="506" on="0"/>
        <pt x="369" y="497" on="0"/>
        <pt x="425" y="487" on="0"/>
        <pt x="464" y="478" on="0"/>
        <pt x="467" y="477" on="1"/>
      </contour>
      <contour>
        <pt x="263" y="74" on="0"/>
        <pt x="305" y="108" on="0"/>
        <pt x="336" y="163" on="0"/>
        <pt x="353" y="234" on="0"/>
        <pt x="353" y="271" on="1"/>
        <pt x="353" y="415" on="1"/>
        <pt x="343" y="418" on="0"/>
        <pt x="303" y="426" on="0"/>
        <pt x="287" y="426" on="1"/>
        <pt x="249" y="426" on="0"/>
        <pt x="200" y="400" on="0"/>
        <pt x="170" y="354" on="0"/>
        <pt x="158" y="290" on="0"/>
        <pt x="158" y="252" on="1"/>
        <pt x="158" y="217" on="0"/>
        <pt x="162" y="153" on="0"/>
        <pt x="179" y="103" on="0"/>
        <pt x="211" y="74" on="0"/>
        <pt x="238" y="74" on="1"/>
      </contour>
      <contour>
        <pt x="106" y="663" on="1"/>
        <pt x="117" y="669" on="0"/>
        <pt x="129" y="674" on="1"/>
        <pt x="140" y="679" on="0"/>
        <pt x="168" y="686" on="0"/>
        <pt x="185" y="686" on="1"/>
        <pt x="222" y="686" on="0"/>
        <pt x="301" y="666" on="0"/>
        <pt x="338" y="666" on="1"/>
        <pt x="355" y="666" on="0"/>
        <pt x="384" y="670" on="0"/>
        <pt x="395" y="673" on="1"/>
        <pt x="407" y="676" on="0"/>
        <pt x="418" y="680" on="1"/>
        <pt x="418" y="606" on="1"/>
        <pt x="407" y="599" on="0"/>
        <pt x="395" y="594" on="1"/>
        <pt x="384" y="589" on="0"/>
        <pt x="355" y="583" on="0"/>
        <pt x="338" y="583" on="1"/>
        <pt x="301" y="583" on="0"/>
        <pt x="222" y="603" on="0"/>
        <pt x="185" y="603" on="1"/>
        <pt x="168" y="603" on="0"/>
        <pt x="140" y="598" on="0"/>
        <pt x="129" y="596" on="1"/>
        <pt x="117" y="592" on="0"/>
        <pt x="106" y="589" on="1"/>
      </contour>
    </TTGlyph>
    <TTGlyph name="b" xMin="65" yMin="-6" xMax="497" yMax="725">
      <contour>
        <pt x="65" y="705" on="1"/>
        <pt x="179" y="725" on="1"/>
        <pt x="179" y="420" on="1"/>
        <pt x="197" y="461" on="0"/>
        <pt x="262" y="506" on="0"/>
        <pt x="313" y="506" on="1"/>
        <pt x="360" y="506" on="0"/>
        <pt x="429" y="471" on="0"/>
        <pt x="475" y="406" on="0"/>
        <pt x="497" y="314" on="0"/>
        <pt x="497" y="258" on="1"/>
        <pt x="497" y="201" on="0"/>
        <pt x="462" y="104" on="0"/>
        <pt x="399" y="34" on="0"/>
        <pt x="311" y="-6" on="0"/>
        <pt x="258" y="-6" on="1"/>
        <pt x="228" y="-6" on="0"/>
        <pt x="160" y="3" on="0"/>
        <pt x="131" y="8" on="1"/>
        <pt x="98" y="14" on="0"/>
        <pt x="65" y="23" on="1"/>
      </contour>
      <contour>
        <pt x="269" y="426" on="0"/>
        <pt x="227" y="392" on="0"/>
        <pt x="196" y="336" on="0"/>
        <pt x="179" y="266" on="0"/>
        <pt x="179" y="229" on="1"/>
        <pt x="179" y="84" on="1"/>
        <pt x="188" y="82" on="0"/>
        <pt x="228" y="74" on="0"/>
        <pt x="245" y="74" on="1"/>
        <pt x="282" y="74" on="0"/>
        <pt x="332" y="100" on="0"/>
        <pt x="362" y="146" on="0"/>
        <pt x="374" y="210" on="0"/>
        <pt x="374" y="248" on="1"/>
        <pt x="374" y="283" on="0"/>
        <pt x="370" y="347" on="0"/>
        <pt x="353" y="397" on="0"/>
        <pt x="321" y="426" on="0"/>
        <pt x="294" y="426" on="1"/>
      </contour>
    </TTGlyph>
    <TTGlyph name="backslash" xMin="-10" yMin="-126" xMax="427" yMax="729">
      <contour>
        <pt x="427" y="-126" on="1"/>
        <pt x="308" y="-126" on="1"/>
        <pt x="-10" y="729" on="1"/>
        <pt x="109" y="729" on="1"/>
      </contour>
    </TTGlyph>
    <TTGlyph name="bar" xMin="100" yMin="-126" xMax="209" yMax="729">
      <contour>
        <pt x="209" y="729" on="1"/>
        <pt x="209" y="-126" on="1"/>
        <pt x="100" y="-126" on="1"/>
        <pt x="100" y="729" on="1"/>
      </contour>
    </TTGlyph>
    <TTGlyph name="braceleft" xMin="60" yMin="-192" xMax="343" yMax="724">
      <contour>
        <pt x="116" y="661" on="0"/>
        <pt x="189" y="724" on="0"/>
        <pt x="258" y="724" on="1"/>
        <pt x="296" y="724" on="0"/>
        <pt x="343" y="712" on="1"/>
        <pt x="321" y="628" on="1"/>
        <pt x="307" y="633" on="0"/>
        <pt x="286" y="637" on="0"/>
        <pt x="277" y="637" on="1"/>
        <pt x="263" y="637" on="0"/>
        <pt x="245" y="628" on="0"/>
        <pt x="234" y="614" on="0"/>
        <pt x="230" y="599" on="0"/>
        <pt x="230" y="593" on="1"/>
        <pt x="230" y="548" on="0"/>
        <pt x="243" y="459" on="0"/>
        <pt x="243" y="420" on="1"/>
        <pt x="243" y="398" on="0"/>
        <pt x="237" y="357" on="0"/>
        <pt x="220" y="318" on="0"/>
        <pt x="187" y="281" on="0"/>
        <pt x="160" y="265" on="1"/>
        <pt x="187" y="249" on="0"/>
        <pt x="220" y="213" on="0"/>
        <pt x="237" y="174" on="0"/>
        <pt x="243" y="133" on="0"/>
        <pt x="243" y="112" on="1"/>
        <pt x="243" y="73" on="0"/>
        <pt x="230" y="-16" on="0"/>
        <pt x="230" y="-61" on="1"/>
        <pt x="230" y="-67" on="0"/>
        <pt x="234" y="-83" on="0"/>
        <pt x="245" y="-96" on="0"/>
        <pt x="263" y="-105" on="0"/>
        <pt x="277" y="-105" on="1"/>
        <pt x="286" y="-105" on="0"/>
        <pt x="307" y="-101" on="0"/>
        <pt x="321" y="-96" on="1"/>
        <pt x="343" y="-180" on="1"/>
        <pt x="296" y="-192" on="0"/>
        <pt x="258" y="-192" on="1"/>
        <pt x="189" y="-192" on="0"/>
        <pt x="116" y="-129" on="0"/>
        <pt x="116" y="-77" on="1"/>
        <pt x="116" y="-23" on="0"/>
        <pt x="130" y="81" on="0"/>
        <pt x="130" y="126" on="1"/>
        <pt x="130" y="165" on="0"/>
        <pt x="95" y="217" on="0"/>
        <pt x="60" y="225" on="1"/>
        <pt x="60" y="307" on="1"/>
        <pt x="95" y="315" on="0"/>
        <pt x="130" y="367" on="0"/>
        <pt x="130" y="406" on="1"/>
        <pt x="130" y="451" on="0"/>
        <pt x="116" y="555" on="0"/>
        <pt x="116" y="609" on="1"/>
      </contour>
    </TTGlyph>
    <TTGlyph name="braceright" xMin="20" yMin="-192" xMax="303" yMax="724">
      <contour>
        <pt x="247" y="555" on="0"/>
        <pt x="233" y="451" on="0"/>
        <pt x="233" y="406" on="1"/>
        <pt x="233" y="367" on="0"/>
        <pt x="268" y="315" on="0"/>
        <pt x="303" y="307" on="1"/>
        <pt x="303" y="225" on="1"/>
        <pt x="268" y="217" on="0"/>
        <pt x="233" y="165" on="0"/>
        <pt x="233" y="126" on="1"/>
        <pt x="233" y="81" on="0"/>
        <pt x="247" y="-23" on="0"/>
        <pt x="247" y="-77" on="1"/>
        <pt x="247" y="-129" on="0"/>
        <pt x="175" y="-192" on="0"/>
        <pt x="106" y="-192" on="1"/>
        <pt x="68" y="-192" on="0"/>
        <pt x="20" y="-180" on="1"/>
        <pt x="43" y="-96" on="1"/>
        <pt x="70" y="-105" on="0"/>
        <pt x="87" y="-105" on="1"/>
        <pt x="101" y="-105" on="0"/>
        <pt x="119" y="-96" on="0"/>
        <pt x="130" y="-83" on="0"/>
        <pt x="134" y="-67" on="0"/>
        <pt x="134" y="-61" on="1"/>
        <pt x="134" y="-16" on="0"/>
        <pt x="121" y="73" on="0"/>
        <pt x="121" y="112" on="1"/>
        <pt x="121" y="133" on="0"/>
        <pt x="127" y="174" on="0"/>
        <pt x="144" y="213" on="0"/>
        <pt x="177" y="249" on="0"/>
        <pt x="204" y="265" on="1"/>
        <pt x="177" y="281" on="0"/>
        <pt x="144" y="318" on="0"/>
        <pt x="127" y="357" on="0"/>
        <pt x="121" y="398" on="0"/>
        <pt x="121" y="420" on="1"/>
        <pt x="121" y="459" on="0"/>
        <pt x="134" y="548" on="0"/>
        <pt x="134" y="593" on="1"/>
        <pt x="134" y="599" on="0"/>
        <pt x="130" y="614" on="0"/>
        <pt x="119" y="628" on="0"/>
        <pt x="101" y="637" on="0"/>
        <pt x="87" y="637" on="1"/>
        <pt x="70" y="637" on="0"/>
        <pt x="43" y="628" on="1"/>
        <pt x="20" y="712" on="1"/>
        <pt x="68" y="724" on="0"/>
        <pt x="106" y="724" on="1"/>
        <pt x="175" y="724" on="0"/>
        <pt x="247" y="661" on="0"/>
        <pt x="247" y="609" on="1"/>
      </contour>
    </TTGlyph>
    <TTGlyph name="bracketleft" xMin="80" yMin="-186" xMax="308" yMax="720">
      <contour>
        <pt x="308" y="720" on="1"/>
        <pt x="308" y="632" on="1"/>
        <pt x="189" y="632" on="1"/>
        <pt x="189" y="-98" on="1"/>
        <pt x="308" y="-98" on="1"/>
        <pt x="308" y="-186" on="1"/>
        <pt x="80" y="-186" on="1"/>
        <pt x="80" y="720" on="1"/>
      </contour>
    </TTGlyph>
    <TTGlyph name="bracketright" xMin="61" yMin="-186" xMax="289" yMax="720">
      <contour>
        <pt x="289" y="-186" on="1"/>
        <pt x="61" y="-186" on="1"/>
        <pt x="61" y="-98" on="1"/>
        <pt x="180" y="-98" on="1"/>
        <pt x="180" y="632" on="1"/>
        <pt x="61" y="632" on="1"/>
        <pt x="61" y="720" on="1"/>
        <pt x="289" y="720" on="1"/>
      </contour>
    </TTGlyph>
    <TTGlyph name="brokenbar" xMin="100" yMin="-126" xMax="209" yMax="729">
      <contour>
        <pt x="100" y="353" on="1"/>
        <pt x="100" y="729" on="1"/>
        <pt x="209" y="729" on="1"/>
        <pt x="209" y="353" on="1"/>
      </contour>
      <contour>
        <pt x="100" y="-126" on="1"/>
        <pt x="100" y="248" on="1"/>
        <pt x="209" y="248" on="1"/>
        <pt x="209" y="-126" on="1"/>
      </contour>
    </TTGlyph>
    <TTGlyph name="bullet" xMin="50" yMin="209" xMax="264" yMax="423">
      <contour>
        <pt x="50" y="365" on="0"/>
        <pt x="108" y="423" on="0"/>
        <pt x="157" y="423" on="1"/>
        <pt x="206" y="423" on="0"/>
        <pt x="264" y="365" on="0"/>
        <pt x="264" y="316" on="1"/>
        <pt x="264" y="267" on="0"/>
        <pt x="206" y="209" on="0"/>
        <pt x="157" y="209" on="1"/>
        <pt x="108" y="209" on="0"/>
        <pt x="50" y="267" on="0"/>
        <pt x="50" y="316" on="1"/>
      </contour>
    </TTGlyph>
    <TTGlyph name="c" xMin="35" yMin="-7" xMax="399" yMax="510">
      <contour>
        <pt x="335" y="381" on="1"/>
        <pt x="320" y="398" on="0"/>
        <pt x="289" y="422" on="0"/>
        <pt x="263" y="422" on="1"/>
        <pt x="248" y="422" on="0"/>
        <pt x="211" y="413" on="0"/>
        <pt x="179" y="378" on="0"/>
        <pt x="158" y="310" on="0"/>
        <pt x="158" y="252" on="1"/>
        <pt x="158" y="193" on="0"/>
        <pt x="179" y="124" on="0"/>
        <pt x="212" y="86" on="0"/>
        <pt x="250" y="75" on="0"/>
        <pt x="268" y="75" on="1"/>
        <pt x="282" y="75" on="0"/>
        <pt x="312" y="80" on="0"/>
        <pt x="340" y="87" on="0"/>
        <pt x="361" y="93" on="0"/>
        <pt x="366" y="95" on="1"/>
        <pt x="394" y="23" on="1"/>
        <pt x="391" y="22" on="0"/>
        <pt x="370" y="12" on="0"/>
        <pt x="334" y="2" on="0"/>
        <pt x="284" y="-7" on="0"/>
        <pt x="253" y="-7" on="1"/>
        <pt x="195" y="-7" on="0"/>
        <pt x="113" y="28" on="0"/>
        <pt x="60" y="92" on="0"/>
        <pt x="35" y="182" on="0"/>
        <pt x="35" y="237" on="1"/>
        <pt x="35" y="303" on="0"/>
        <pt x="70" y="405" on="0"/>
        <pt x="132" y="474" on="0"/>
        <pt x="216" y="510" on="0"/>
        <pt x="264" y="510" on="1"/>
        <pt x="311" y="510" on="0"/>
        <pt x="376" y="474" on="0"/>
        <pt x="399" y="442" on="1"/>
      </contour>
    </TTGlyph>
    <TTGlyph name="ccedilla" xMin="35" yMin="-218" xMax="399" yMax="510">
      <contour>
        <pt x="335" y="381" on="1"/>
        <pt x="320" y="398" on="0"/>
        <pt x="289" y="422" on="0"/>
        <pt x="263" y="422" on="1"/>
        <pt x="248" y="422" on="0"/>
        <pt x="211" y="413" on="0"/>
        <pt x="179" y="378" on="0"/>
        <pt x="158" y="310" on="0"/>
        <pt x="158" y="252" on="1"/>
        <pt x="158" y="193" on="0"/>
        <pt x="179" y="124" on="0"/>
        <pt x="212" y="86" on="0"/>
        <pt x="250" y="75" on="0"/>
        <pt x="268" y="75" on="1"/>
        <pt x="282" y="75" on="0"/>
        <pt x="312" y="80" on="0"/>
        <pt x="340" y="87" on="0"/>
        <pt x="361" y="93" on="0"/>
        <pt x="366" y="95" on="1"/>
        <pt x="394" y="23" on="1"/>
        <pt x="389" y="21" on="0"/>
        <pt x="333" y="-1" on="0"/>
        <pt x="284" y="-6" on="1"/>
        <pt x="275" y="-47" on="1"/>
        <pt x="314" y="-50" on="0"/>
        <pt x="365" y="-89" on="0"/>
        <pt x="365" y="-126" on="1"/>
        <pt x="365" y="-153" on="0"/>
        <pt x="344" y="-189" on="0"/>
        <pt x="310" y="-210" on="0"/>
        <pt x="268" y="-218" on="0"/>
        <pt x="247" y="-218" on="1"/>
        <pt x="223" y="-218" on="0"/>
        <pt x="178" y="-208" on="0"/>
        <pt x="161" y="-201" on="1"/>
        <pt x="177" y="-147" on="1"/>
        <pt x="188" y="-151" on="0"/>
        <pt x="224" y="-160" on="0"/>
        <pt x="241" y="-160" on="1"/>
        <pt x="268" y="-160" on="0"/>
        <pt x="291" y="-144" on="0"/>
        <pt x="291" y="-129" on="1"/>
        <pt x="291" y="-117" on="0"/>
        <pt x="273" y="-101" on="0"/>
        <pt x="246" y="-90" on="0"/>
        <pt x="214" y="-85" on="0"/>
        <pt x="199" y="-85" on="1"/>
        <pt x="219" y="-5" on="1"/>
        <pt x="170" y="0" on="0"/>
        <pt x="101" y="39" on="0"/>
        <pt x="56" y="102" on="0"/>
        <pt x="35" y="186" on="0"/>
        <pt x="35" y="237" on="1"/>
        <pt x="35" y="303" on="0"/>
        <pt x="70" y="405" on="0"/>
        <pt x="132" y="474" on="0"/>
        <pt x="216" y="510" on="0"/>
        <pt x="264" y="510" on="1"/>
        <pt x="311" y="510" on="0"/>
        <pt x="376" y="474" on="0"/>
        <pt x="399" y="442" on="1"/>
      </contour>
    </TTGlyph>
    <TTGlyph name="cedilla" xMin="149" yMin="-218" xMax="353" yMax="3">
      <contour>
        <pt x="274" y="3" on="1"/>
        <pt x="263" y="-47" on="1"/>
        <pt x="302" y="-50" on="0"/>
        <pt x="353" y="-89" on="0"/>
        <pt x="353" y="-126" on="1"/>
        <pt x="353" y="-153" on="0"/>
        <pt x="332" y="-189" on="0"/>
        <pt x="298" y="-210" on="0"/>
        <pt x="256" y="-218" on="0"/>
        <pt x="235" y="-218" on="1"/>
        <pt x="211" y="-218" on="0"/>
        <pt x="166" y="-208" on="0"/>
        <pt x="149" y="-201" on="1"/>
        <pt x="165" y="-147" on="1"/>
        <pt x="176" y="-151" on="0"/>
        <pt x="212" y="-160" on="0"/>
        <pt x="229" y="-160" on="1"/>
        <pt x="256" y="-160" on="0"/>
        <pt x="279" y="-144" on="0"/>
        <pt x="279" y="-129" on="1"/>
        <pt x="279" y="-117" on="0"/>
        <pt x="261" y="-101" on="0"/>
        <pt x="234" y="-90" on="0"/>
        <pt x="202" y="-85" on="0"/>
        <pt x="187" y="-85" on="1"/>
        <pt x="209" y="3" on="1"/>
      </contour>
    </TTGlyph>
    <TTGlyph name="cent" xMin="55" yMin="-42" xMax="423" yMax="654">
      <contour>
        <pt x="242" y="-42" on="1"/>
        <pt x="242" y="74" on="1"/>
        <pt x="143" y="83" on="0"/>
        <pt x="55" y="208" on="0"/>
        <pt x="55" y="310" on="1"/>
        <pt x="55" y="368" on="0"/>
        <pt x="83" y="459" on="0"/>
        <pt x="133" y="523" on="0"/>
        <pt x="201" y="562" on="0"/>
        <pt x="242" y="568" on="1"/>
        <pt x="242" y="654" on="1"/>
        <pt x="320" y="654" on="1"/>
        <pt x="320" y="567" on="1"/>
        <pt x="353" y="561" on="0"/>
        <pt x="405" y="528" on="0"/>
        <pt x="423" y="503" on="1"/>
        <pt x="358" y="441" on="1"/>
        <pt x="350" y="450" on="0"/>
        <pt x="331" y="467" on="0"/>
        <pt x="320" y="473" on="1"/>
        <pt x="320" y="158" on="1"/>
        <pt x="332" y="160" on="0"/>
        <pt x="357" y="166" on="0"/>
        <pt x="377" y="172" on="0"/>
        <pt x="383" y="174" on="1"/>
        <pt x="389" y="175" on="1"/>
        <pt x="417" y="103" on="1"/>
        <pt x="410" y="100" on="1"/>
        <pt x="403" y="97" on="0"/>
        <pt x="378" y="88" on="0"/>
        <pt x="342" y="79" on="0"/>
        <pt x="320" y="76" on="1"/>
        <pt x="320" y="-42" on="1"/>
      </contour>
      <contour>
        <pt x="175" y="284" on="0"/>
        <pt x="186" y="228" on="0"/>
        <pt x="205" y="190" on="0"/>
        <pt x="229" y="168" on="0"/>
        <pt x="242" y="163" on="1"/>
        <pt x="242" y="478" on="1"/>
        <pt x="229" y="474" on="0"/>
        <pt x="205" y="456" on="0"/>
        <pt x="186" y="421" on="0"/>
        <pt x="175" y="366" on="0"/>
        <pt x="175" y="325" on="1"/>
      </contour>
    </TTGlyph>
    <TTGlyph name="circumflex" xMin="70" yMin="538" xMax="445" yMax="779">
      <contour>
        <pt x="70" y="592" on="1"/>
        <pt x="258" y="779" on="1"/>
        <pt x="445" y="592" on="1"/>
        <pt x="402" y="538" on="1"/>
        <pt x="391" y="545" on="1"/>
        <pt x="379" y="552" on="0"/>
        <pt x="338" y="579" on="0"/>
        <pt x="286" y="618" on="0"/>
        <pt x="258" y="642" on="1"/>
        <pt x="229" y="617" on="0"/>
        <pt x="176" y="579" on="0"/>
        <pt x="136" y="552" on="0"/>
        <pt x="125" y="545" on="1"/>
        <pt x="113" y="538" on="1"/>
      </contour>
    </TTGlyph>
    <TTGlyph name="colon" xMin="91" yMin="-11" xMax="239" yMax="510">
      <contour>
        <pt x="201" y="140" on="0"/>
        <pt x="239" y="98" on="0"/>
        <pt x="239" y="65" on="1"/>
        <pt x="239" y="33" on="0"/>
        <pt x="201" y="-11" on="0"/>
        <pt x="163" y="-11" on="1"/>
        <pt x="128" y="-11" on="0"/>
        <pt x="91" y="33" on="0"/>
        <pt x="91" y="63" on="1"/>
        <pt x="91" y="95" on="0"/>
        <pt x="129" y="140" on="0"/>
        <pt x="166" y="140" on="1"/>
      </contour>
      <contour>
        <pt x="201" y="510" on="0"/>
        <pt x="239" y="468" on="0"/>
        <pt x="239" y="435" on="1"/>
        <pt x="239" y="403" on="0"/>
        <pt x="201" y="359" on="0"/>
        <pt x="163" y="359" on="1"/>
        <pt x="128" y="359" on="0"/>
        <pt x="91" y="403" on="0"/>
        <pt x="91" y="432" on="1"/>
        <pt x="91" y="465" on="0"/>
        <pt x="129" y="510" on="0"/>
        <pt x="166" y="510" on="1"/>
      </contour>
    </TTGlyph>
    <TTGlyph name="comma" xMin="40" yMin="-147" xMax="220" yMax="141">
      <contour>
        <pt x="88" y="124" on="0"/>
        <pt x="118" y="141" on="0"/>
        <pt x="153" y="141" on="1"/>
        <pt x="188" y="141" on="0"/>
        <pt x="220" y="99" on="0"/>
        <pt x="220" y="67" on="1"/>
        <pt x="220" y="26" on="0"/>
        <pt x="197" y="-40" on="0"/>
        <pt x="159" y="-94" on="0"/>
        <pt x="110" y="-134" on="0"/>
        <pt x="83" y="-147" on="1"/>
        <pt x="40" y="-89" on="1"/>
        <pt x="79" y="-60" on="0"/>
        <pt x="106" y="-2" on="0"/>
        <pt x="106" y="25" on="1"/>
        <pt x="106" y="54" on="0"/>
        <pt x="88" y="104" on="0"/>
        <pt x="87" y="123" on="1"/>
      </contour>
    </TTGlyph>
    <TTGlyph name="copyright" xMin="45" yMin="-6" xMax="737" yMax="686">
      <contour>
        <pt x="45" y="416" on="0"/>
        <pt x="97" y="543" on="0"/>
        <pt x="190" y="635" on="0"/>
        <pt x="318" y="686" on="0"/>
        <pt x="394" y="686" on="1"/>
        <pt x="470" y="686" on="0"/>
        <pt x="596" y="635" on="0"/>
        <pt x="687" y="543" on="0"/>
        <pt x="737" y="416" on="0"/>
        <pt x="737" y="340" on="1"/>
        <pt x="737" y="264" on="0"/>
        <pt x="685" y="137" on="0"/>
        <pt x="592" y="45" on="0"/>
        <pt x="463" y="-6" on="0"/>
        <pt x="387" y="-6" on="1"/>
        <pt x="311" y="-6" on="0"/>
        <pt x="185" y="45" on="0"/>
        <pt x="95" y="137" on="0"/>
        <pt x="45" y="264" on="0"/>
        <pt x="45" y="340" on="1"/>
      </contour>
      <contour>
        <pt x="130" y="288" on="0"/>
        <pt x="168" y="186" on="0"/>
        <pt x="237" y="111" on="0"/>
        <pt x="333" y="67" on="0"/>
        <pt x="390" y="67" on="1"/>
        <pt x="448" y="67" on="0"/>
        <pt x="544" y="107" on="0"/>
        <pt x="613" y="177" on="0"/>
        <pt x="651" y="275" on="0"/>
        <pt x="651" y="333" on="1"/>
        <pt x="651" y="391" on="0"/>
        <pt x="613" y="494" on="0"/>
        <pt x="544" y="569" on="0"/>
        <pt x="449" y="613" on="0"/>
        <pt x="391" y="613" on="1"/>
        <pt x="334" y="613" on="0"/>
        <pt x="238" y="573" on="0"/>
        <pt x="169" y="503" on="0"/>
        <pt x="130" y="404" on="0"/>
        <pt x="130" y="346" on="1"/>
      </contour>
      <contour>
        <pt x="464" y="453" on="1"/>
        <pt x="461" y="455" on="0"/>
        <pt x="432" y="472" on="0"/>
        <pt x="410" y="472" on="1"/>
        <pt x="390" y="472" on="0"/>
        <pt x="364" y="452" on="0"/>
        <pt x="348" y="417" on="0"/>
        <pt x="341" y="371" on="0"/>
        <pt x="341" y="344" on="1"/>
        <pt x="341" y="290" on="0"/>
        <pt x="376" y="216" on="0"/>
        <pt x="415" y="216" on="1"/>
        <pt x="442" y="216" on="0"/>
        <pt x="479" y="227" on="0"/>
        <pt x="483" y="229" on="1"/>
        <pt x="505" y="163" on="1"/>
        <pt x="504" y="162" on="0"/>
        <pt x="487" y="156" on="0"/>
        <pt x="460" y="149" on="0"/>
        <pt x="424" y="143" on="0"/>
        <pt x="403" y="143" on="1"/>
        <pt x="325" y="143" on="0"/>
        <pt x="247" y="242" on="0"/>
        <pt x="247" y="338" on="1"/>
        <pt x="247" y="384" on="0"/>
        <pt x="268" y="460" on="0"/>
        <pt x="310" y="515" on="0"/>
        <pt x="374" y="545" on="0"/>
        <pt x="418" y="545" on="1"/>
        <pt x="455" y="545" on="0"/>
        <pt x="500" y="520" on="0"/>
        <pt x="513" y="506" on="1"/>
      </contour>
    </TTGlyph>
    <TTGlyph name="currency" xMin="30" yMin="-5" xMax="558" yMax="572">
      <contour>
        <pt x="71" y="325" on="0"/>
        <pt x="95" y="397" on="0"/>
        <pt x="118" y="426" on="1"/>
        <pt x="32" y="504" on="1"/>
        <pt x="100" y="572" on="1"/>
        <pt x="183" y="480" on="1"/>
        <pt x="207" y="493" on="0"/>
        <pt x="262" y="507" on="0"/>
        <pt x="294" y="507" on="1"/>
        <pt x="357" y="507" on="0"/>
        <pt x="406" y="481" on="1"/>
        <pt x="488" y="572" on="1"/>
        <pt x="557" y="504" on="1"/>
        <pt x="470" y="426" on="1"/>
        <pt x="493" y="397" on="0"/>
        <pt x="517" y="325" on="0"/>
        <pt x="517" y="283" on="1"/>
        <pt x="517" y="241" on="0"/>
        <pt x="493" y="170" on="0"/>
        <pt x="470" y="141" on="1"/>
        <pt x="558" y="63" on="1"/>
        <pt x="490" y="-5" on="1"/>
        <pt x="406" y="87" on="1"/>
        <pt x="381" y="74" on="0"/>
        <pt x="324" y="60" on="0"/>
        <pt x="292" y="60" on="1"/>
        <pt x="230" y="60" on="0"/>
        <pt x="181" y="86" on="1"/>
        <pt x="98" y="-5" on="1"/>
        <pt x="30" y="63" on="1"/>
        <pt x="116" y="140" on="1"/>
        <pt x="71" y="199" on="0"/>
        <pt x="71" y="283" on="1"/>
      </contour>
      <contour>
        <pt x="156" y="256" on="0"/>
        <pt x="176" y="200" on="0"/>
        <pt x="212" y="159" on="0"/>
        <pt x="262" y="135" on="0"/>
        <pt x="292" y="135" on="1"/>
        <pt x="323" y="135" on="0"/>
        <pt x="375" y="157" on="0"/>
        <pt x="412" y="195" on="0"/>
        <pt x="432" y="248" on="0"/>
        <pt x="432" y="280" on="1"/>
        <pt x="432" y="312" on="0"/>
        <pt x="412" y="368" on="0"/>
        <pt x="375" y="409" on="0"/>
        <pt x="323" y="433" on="0"/>
        <pt x="292" y="433" on="1"/>
        <pt x="262" y="433" on="0"/>
        <pt x="212" y="411" on="0"/>
        <pt x="176" y="373" on="0"/>
        <pt x="156" y="319" on="0"/>
        <pt x="156" y="288" on="1"/>
      </contour>
    </TTGlyph>
    <TTGlyph name="d" xMin="35" yMin="-8" xMax="515" yMax="725">
      <contour>
        <pt x="426" y="-8" on="1"/>
        <pt x="424" y="-7" on="0"/>
        <pt x="410" y="10" on="0"/>
        <pt x="393" y="40" on="0"/>
        <pt x="377" y="85" on="0"/>
        <pt x="375" y="115" on="1"/>
        <pt x="358" y="55" on="0"/>
        <pt x="283" y="-6" on="0"/>
        <pt x="219" y="-6" on="1"/>
        <pt x="172" y="-6" on="0"/>
        <pt x="103" y="29" on="0"/>
        <pt x="57" y="94" on="0"/>
        <pt x="35" y="186" on="0"/>
        <pt x="35" y="242" on="1"/>
        <pt x="35" y="299" on="0"/>
        <pt x="70" y="396" on="0"/>
        <pt x="133" y="466" on="0"/>
        <pt x="221" y="506" on="0"/>
        <pt x="274" y="506" on="1"/>
        <pt x="292" y="506" on="0"/>
        <pt x="333" y="502" on="0"/>
        <pt x="353" y="499" on="1"/>
        <pt x="353" y="725" on="1"/>
        <pt x="467" y="705" on="1"/>
        <pt x="467" y="241" on="1"/>
        <pt x="467" y="181" on="0"/>
        <pt x="481" y="102" on="0"/>
        <pt x="499" y="53" on="0"/>
        <pt x="514" y="31" on="0"/>
        <pt x="515" y="28" on="1"/>
      </contour>
      <contour>
        <pt x="263" y="75" on="0"/>
        <pt x="305" y="109" on="0"/>
        <pt x="336" y="164" on="0"/>
        <pt x="353" y="234" on="0"/>
        <pt x="353" y="271" on="1"/>
        <pt x="353" y="415" on="1"/>
        <pt x="343" y="418" on="0"/>
        <pt x="303" y="426" on="0"/>
        <pt x="287" y="426" on="1"/>
        <pt x="249" y="426" on="0"/>
        <pt x="200" y="400" on="0"/>
        <pt x="170" y="354" on="0"/>
        <pt x="158" y="290" on="0"/>
        <pt x="158" y="252" on="1"/>
        <pt x="158" y="217" on="0"/>
        <pt x="162" y="153" on="0"/>
        <pt x="179" y="104" on="0"/>
        <pt x="211" y="75" on="0"/>
        <pt x="238" y="75" on="1"/>
      </contour>
    </TTGlyph>
    <TTGlyph name="degree" xMin="40" yMin="488" xMax="270" yMax="721">
      <contour>
        <pt x="40" y="655" on="0"/>
        <pt x="105" y="721" on="0"/>
        <pt x="156" y="721" on="1"/>
        <pt x="207" y="721" on="0"/>
        <pt x="270" y="655" on="0"/>
        <pt x="270" y="604" on="1"/>
        <pt x="270" y="554" on="0"/>
        <pt x="205" y="488" on="0"/>
        <pt x="154" y="488" on="1"/>
        <pt x="103" y="488" on="0"/>
        <pt x="40" y="553" on="0"/>
        <pt x="40" y="604" on="1"/>
      </contour>
      <contour>
        <pt x="104" y="579" on="0"/>
        <pt x="131" y="545" on="0"/>
        <pt x="155" y="545" on="1"/>
        <pt x="180" y="545" on="0"/>
        <pt x="207" y="576" on="0"/>
        <pt x="207" y="604" on="1"/>
        <pt x="207" y="630" on="0"/>
        <pt x="180" y="664" on="0"/>
        <pt x="155" y="664" on="1"/>
        <pt x="131" y="664" on="0"/>
        <pt x="104" y="633" on="0"/>
        <pt x="104" y="605" on="1"/>
      </contour>
    </TTGlyph>
    <TTGlyph name="dieresis" xMin="88" yMin="568" xMax="412" yMax="695">
      <contour>
        <pt x="212" y="605" on="0"/>
        <pt x="180" y="568" on="0"/>
        <pt x="148" y="568" on="1"/>
        <pt x="119" y="568" on="0"/>
        <pt x="88" y="604" on="0"/>
        <pt x="88" y="630" on="1"/>
        <pt x="88" y="658" on="0"/>
        <pt x="120" y="695" on="0"/>
        <pt x="151" y="695" on="1"/>
        <pt x="180" y="695" on="0"/>
        <pt x="212" y="659" on="0"/>
        <pt x="212" y="632" on="1"/>
      </contour>
      <contour>
        <pt x="412" y="605" on="0"/>
        <pt x="380" y="568" on="0"/>
        <pt x="348" y="568" on="1"/>
        <pt x="319" y="568" on="0"/>
        <pt x="287" y="604" on="0"/>
        <pt x="287" y="630" on="1"/>
        <pt x="287" y="658" on="0"/>
        <pt x="319" y="695" on="0"/>
        <pt x="351" y="695" on="1"/>
        <pt x="380" y="695" on="0"/>
        <pt x="412" y="659" on="0"/>
        <pt x="412" y="632" on="1"/>
      </contour>
    </TTGlyph>
    <TTGlyph name="divide" xMin="60" yMin="74" xMax="451" yMax="525">
      <contour>
        <pt x="313" y="439" on="0"/>
        <pt x="282" y="403" on="0"/>
        <pt x="252" y="403" on="1"/>
        <pt x="224" y="403" on="0"/>
        <pt x="194" y="438" on="0"/>
        <pt x="194" y="462" on="1"/>
        <pt x="194" y="489" on="0"/>
        <pt x="225" y="525" on="0"/>
        <pt x="255" y="525" on="1"/>
        <pt x="283" y="525" on="0"/>
        <pt x="313" y="491" on="0"/>
        <pt x="313" y="465" on="1"/>
      </contour>
      <contour>
        <pt x="60" y="346" on="1"/>
        <pt x="451" y="346" on="1"/>
        <pt x="451" y="257" on="1"/>
        <pt x="60" y="257" on="1"/>
      </contour>
      <contour>
        <pt x="313" y="110" on="0"/>
        <pt x="282" y="74" on="0"/>
        <pt x="252" y="74" on="1"/>
        <pt x="224" y="74" on="0"/>
        <pt x="194" y="109" on="0"/>
        <pt x="194" y="133" on="1"/>
        <pt x="194" y="160" on="0"/>
        <pt x="225" y="196" on="0"/>
        <pt x="255" y="196" on="1"/>
        <pt x="283" y="196" on="0"/>
        <pt x="313" y="162" on="0"/>
        <pt x="313" y="136" on="1"/>
      </contour>
    </TTGlyph>
    <TTGlyph name="dollar" xMin="50" yMin="-83" xMax="458" yMax="694">
      <contour>
        <pt x="223" y="11" on="1"/>
        <pt x="191" y="14" on="0"/>
        <pt x="136" y="29" on="0"/>
        <pt x="91" y="47" on="0"/>
        <pt x="58" y="64" on="0"/>
        <pt x="50" y="69" on="1"/>
        <pt x="93" y="157" on="1"/>
        <pt x="100" y="152" on="0"/>
        <pt x="134" y="134" on="0"/>
        <pt x="177" y="115" on="0"/>
        <pt x="223" y="101" on="0"/>
        <pt x="243" y="101" on="1"/>
        <pt x="343" y="101" on="0"/>
        <pt x="343" y="184" on="1"/>
        <pt x="343" y="204" on="0"/>
        <pt x="330" y="230" on="0"/>
        <pt x="305" y="249" on="0"/>
        <pt x="270" y="264" on="0"/>
        <pt x="248" y="272" on="1"/>
        <pt x="206" y="288" on="0"/>
        <pt x="141" y="323" on="0"/>
        <pt x="95" y="367" on="0"/>
        <pt x="71" y="423" on="0"/>
        <pt x="71" y="459" on="1"/>
        <pt x="71" y="487" on="0"/>
        <pt x="93" y="539" on="0"/>
        <pt x="133" y="580" on="0"/>
        <pt x="189" y="609" on="0"/>
        <pt x="223" y="615" on="1"/>
        <pt x="223" y="694" on="1"/>
        <pt x="305" y="694" on="1"/>
        <pt x="305" y="617" on="1"/>
        <pt x="331" y="614" on="0"/>
        <pt x="379" y="602" on="0"/>
        <pt x="417" y="588" on="0"/>
        <pt x="444" y="575" on="0"/>
        <pt x="450" y="572" on="1"/>
        <pt x="410" y="490" on="1"/>
        <pt x="402" y="494" on="0"/>
        <pt x="373" y="507" on="0"/>
        <pt x="337" y="521" on="0"/>
        <pt x="295" y="531" on="0"/>
        <pt x="274" y="531" on="1"/>
        <pt x="240" y="531" on="0"/>
        <pt x="187" y="504" on="0"/>
        <pt x="187" y="472" on="1"/>
        <pt x="187" y="452" on="0"/>
        <pt x="202" y="421" on="0"/>
        <pt x="231" y="397" on="0"/>
        <pt x="274" y="376" on="0"/>
        <pt x="302" y="366" on="1"/>
        <pt x="339" y="351" on="0"/>
        <pt x="397" y="319" on="0"/>
        <pt x="437" y="279" on="0"/>
        <pt x="458" y="227" on="0"/>
        <pt x="458" y="192" on="1"/>
        <pt x="458" y="162" on="0"/>
        <pt x="439" y="106" on="0"/>
        <pt x="400" y="58" on="0"/>
        <pt x="343" y="23" on="0"/>
        <pt x="305" y="15" on="1"/>
        <pt x="305" y="-83" on="1"/>
        <pt x="223" y="-83" on="1"/>
      </contour>
    </TTGlyph>
    <TTGlyph name="dotlessi" xMin="50" yMin="-4" xMax="230" yMax="498">
      <contour>
        <pt x="106" y="-4" on="0"/>
        <pt x="50" y="59" on="0"/>
        <pt x="50" y="109" on="1"/>
        <pt x="50" y="498" on="1"/>
        <pt x="164" y="498" on="1"/>
        <pt x="164" y="119" on="1"/>
        <pt x="164" y="96" on="0"/>
        <pt x="178" y="80" on="0"/>
        <pt x="192" y="80" on="1"/>
        <pt x="196" y="80" on="0"/>
        <pt x="205" y="80" on="0"/>
        <pt x="209" y="81" on="1"/>
        <pt x="213" y="81" on="0"/>
        <pt x="218" y="82" on="1"/>
        <pt x="230" y="10" on="1"/>
        <pt x="223" y="6" on="0"/>
        <pt x="212" y="3" on="1"/>
        <pt x="203" y="0" on="0"/>
        <pt x="176" y="-4" on="0"/>
        <pt x="159" y="-4" on="1"/>
      </contour>
    </TTGlyph>
    <TTGlyph name="e" xMin="35" yMin="-7" xMax="443" yMax="510">
      <contour>
        <pt x="35" y="304" on="0"/>
        <pt x="72" y="406" on="0"/>
        <pt x="137" y="475" on="0"/>
        <pt x="225" y="510" on="0"/>
        <pt x="276" y="510" on="1"/>
        <pt x="321" y="510" on="0"/>
        <pt x="384" y="488" on="0"/>
        <pt x="424" y="450" on="0"/>
        <pt x="443" y="398" on="0"/>
        <pt x="443" y="368" on="1"/>
        <pt x="443" y="332" on="0"/>
        <pt x="403" y="267" on="0"/>
        <pt x="328" y="218" on="0"/>
        <pt x="222" y="189" on="0"/>
        <pt x="156" y="188" on="1"/>
        <pt x="159" y="165" on="0"/>
        <pt x="172" y="124" on="0"/>
        <pt x="197" y="93" on="0"/>
        <pt x="237" y="75" on="0"/>
        <pt x="267" y="75" on="1"/>
        <pt x="289" y="75" on="0"/>
        <pt x="339" y="85" on="0"/>
        <pt x="360" y="92" on="1"/>
        <pt x="385" y="100" on="0"/>
        <pt x="409" y="110" on="1"/>
        <pt x="439" y="39" on="1"/>
        <pt x="413" y="26" on="0"/>
        <pt x="383" y="16" on="1"/>
        <pt x="357" y="7" on="0"/>
        <pt x="289" y="-7" on="0"/>
        <pt x="251" y="-7" on="1"/>
        <pt x="193" y="-7" on="0"/>
        <pt x="111" y="28" on="0"/>
        <pt x="59" y="92" on="0"/>
        <pt x="35" y="182" on="0"/>
        <pt x="35" y="237" on="1"/>
      </contour>
      <contour>
        <pt x="234" y="432" on="0"/>
        <pt x="191" y="401" on="0"/>
        <pt x="165" y="352" on="0"/>
        <pt x="154" y="291" on="0"/>
        <pt x="153" y="260" on="1"/>
        <pt x="201" y="262" on="0"/>
        <pt x="268" y="283" on="0"/>
        <pt x="310" y="314" on="0"/>
        <pt x="329" y="350" on="0"/>
        <pt x="329" y="368" on="1"/>
        <pt x="329" y="397" on="0"/>
        <pt x="295" y="432" on="0"/>
        <pt x="267" y="432" on="1"/>
      </contour>
    </TTGlyph>
    <TTGlyph name="eacute" xMin="35" yMin="-7" xMax="446" yMax="779">
      <contour>
        <pt x="35" y="304" on="0"/>
        <pt x="72" y="406" on="0"/>
        <pt x="137" y="475" on="0"/>
        <pt x="225" y="510" on="0"/>
        <pt x="276" y="510" on="1"/>
        <pt x="321" y="510" on="0"/>
        <pt x="384" y="488" on="0"/>
        <pt x="424" y="450" on="0"/>
        <pt x="443" y="398" on="0"/>
        <pt x="443" y="368" on="1"/>
        <pt x="443" y="332" on="0"/>
        <pt x="403" y="267" on="0"/>
        <pt x="328" y="218" on="0"/>
        <pt x="222" y="189" on="0"/>
        <pt x="156" y="188" on="1"/>
        <pt x="159" y="165" on="0"/>
        <pt x="172" y="124" on="0"/>
        <pt x="197" y="93" on="0"/>
        <pt x="237" y="75" on="0"/>
        <pt x="267" y="75" on="1"/>
        <pt x="289" y="75" on="0"/>
        <pt x="339" y="85" on="0"/>
        <pt x="360" y="92" on="1"/>
        <pt x="385" y="100" on="0"/>
        <pt x="409" y="110" on="1"/>
        <pt x="439" y="39" on="1"/>
        <pt x="413" y="26" on="0"/>
        <pt x="383" y="16" on="1"/>
        <pt x="357" y="7" on="0"/>
        <pt x="289" y="-7" on="0"/>
        <pt x="251" y="-7" on="1"/>
        <pt x="193" y="-7" on="0"/>
        <pt x="111" y="28" on="0"/>
        <pt x="59" y="92" on="0"/>
        <pt x="35" y="182" on="0"/>
        <pt x="35" y="237" on="1"/>
      </contour>
      <contour>
        <pt x="234" y="432" on="0"/>
        <pt x="191" y="401" on="0"/>
        <pt x="165" y="352" on="0"/>
        <pt x="154" y="291" on="0"/>
        <pt x="153" y="260" on="1"/>
        <pt x="201" y="262" on="0"/>
        <pt x="268" y="283" on="0"/>
        <pt x="310" y="314" on="0"/>
        <pt x="329" y="350" on="0"/>
        <pt x="329" y="368" on="1"/>
        <pt x="329" y="397" on="0"/>
        <pt x="295" y="432" on="0"/>
        <pt x="267" y="432" on="1"/>
      </contour>
      <contour>
        <pt x="200" y="590" on="1"/>
        <pt x="370" y="779" on="1"/>
        <pt x="446" y="708" on="1"/>
        <pt x="416" y="671" on="0"/>
        <pt x="347" y="609" on="0"/>
        <pt x="318" y="586" on="1"/>
        <pt x="284" y="560" on="0"/>
        <pt x="249" y="538" on="1"/>
      </contour>
    </TTGlyph>
    <TTGlyph name="ecircumflex" xMin="35" yMin="-7" xMax="451" yMax="779">
      <contour>
        <pt x="35" y="304" on="0"/>
        <pt x="72" y="406" on="0"/>
        <pt x="137" y="475" on="0"/>
        <pt x="225" y="510" on="0"/>
        <pt x="276" y="510" on="1"/>
        <pt x="321" y="510" on="0"/>
        <pt x="384" y="488" on="0"/>
        <pt x="424" y="450" on="0"/>
        <pt x="443" y="398" on="0"/>
        <pt x="443" y="368" on="1"/>
        <pt x="443" y="332" on="0"/>
        <pt x="403" y="267" on="0"/>
        <pt x="328" y="218" on="0"/>
        <pt x="222" y="189" on="0"/>
        <pt x="156" y="188" on="1"/>
        <pt x="159" y="165" on="0"/>
        <pt x="172" y="124" on="0"/>
        <pt x="197" y="93" on="0"/>
        <pt x="237" y="75" on="0"/>
        <pt x="267" y="75" on="1"/>
        <pt x="289" y="75" on="0"/>
        <pt x="339" y="85" on="0"/>
        <pt x="360" y="92" on="1"/>
        <pt x="385" y="100" on="0"/>
        <pt x="409" y="110" on="1"/>
        <pt x="439" y="39" on="1"/>
        <pt x="413" y="26" on="0"/>
        <pt x="383" y="16" on="1"/>
        <pt x="357" y="7" on="0"/>
        <pt x="289" y="-7" on="0"/>
        <pt x="251" y="-7" on="1"/>
        <pt x="193" y="-7" on="0"/>
        <pt x="111" y="28" on="0"/>
        <pt x="59" y="92" on="0"/>
        <pt x="35" y="182" on="0"/>
        <pt x="35" y="237" on="1"/>
      </contour>
      <contour>
        <pt x="234" y="432" on="0"/>
        <pt x="191" y="401" on="0"/>
        <pt x="165" y="352" on="0"/>
        <pt x="154" y="291" on="0"/>
        <pt x="153" y="260" on="1"/>
        <pt x="201" y="262" on="0"/>
        <pt x="268" y="283" on="0"/>
        <pt x="310" y="314" on="0"/>
        <pt x="329" y="350" on="0"/>
        <pt x="329" y="368" on="1"/>
        <pt x="329" y="397" on="0"/>
        <pt x="295" y="432" on="0"/>
        <pt x="267" y="432" on="1"/>
      </contour>
      <contour>
        <pt x="76" y="592" on="1"/>
        <pt x="264" y="779" on="1"/>
        <pt x="451" y="592" on="1"/>
        <pt x="408" y="538" on="1"/>
        <pt x="397" y="545" on="1"/>
        <pt x="385" y="552" on="0"/>
        <pt x="344" y="579" on="0"/>
        <pt x="292" y="618" on="0"/>
        <pt x="264" y="642" on="1"/>
        <pt x="235" y="617" on="0"/>
        <pt x="182" y="579" on="0"/>
        <pt x="142" y="552" on="0"/>
        <pt x="131" y="545" on="1"/>
        <pt x="119" y="538" on="1"/>
      </contour>
    </TTGlyph>
    <TTGlyph name="edieresis" xMin="35" yMin="-7" xMax="443" yMax="714">
      <contour>
        <pt x="35" y="304" on="0"/>
        <pt x="72" y="406" on="0"/>
        <pt x="137" y="475" on="0"/>
        <pt x="225" y="510" on="0"/>
        <pt x="276" y="510" on="1"/>
        <pt x="321" y="510" on="0"/>
        <pt x="384" y="488" on="0"/>
        <pt x="424" y="450" on="0"/>
        <pt x="443" y="398" on="0"/>
        <pt x="443" y="368" on="1"/>
        <pt x="443" y="332" on="0"/>
        <pt x="403" y="267" on="0"/>
        <pt x="328" y="218" on="0"/>
        <pt x="222" y="189" on="0"/>
        <pt x="156" y="188" on="1"/>
        <pt x="159" y="165" on="0"/>
        <pt x="172" y="124" on="0"/>
        <pt x="197" y="93" on="0"/>
        <pt x="237" y="75" on="0"/>
        <pt x="267" y="75" on="1"/>
        <pt x="289" y="75" on="0"/>
        <pt x="339" y="85" on="0"/>
        <pt x="360" y="92" on="1"/>
        <pt x="385" y="100" on="0"/>
        <pt x="409" y="110" on="1"/>
        <pt x="439" y="39" on="1"/>
        <pt x="413" y="26" on="0"/>
        <pt x="383" y="16" on="1"/>
        <pt x="357" y="7" on="0"/>
        <pt x="289" y="-7" on="0"/>
        <pt x="251" y="-7" on="1"/>
        <pt x="193" y="-7" on="0"/>
        <pt x="111" y="28" on="0"/>
        <pt x="59" y="92" on="0"/>
        <pt x="35" y="182" on="0"/>
        <pt x="35" y="237" on="1"/>
      </contour>
      <contour>
        <pt x="234" y="432" on="0"/>
        <pt x="191" y="401" on="0"/>
        <pt x="165" y="352" on="0"/>
        <pt x="154" y="291" on="0"/>
        <pt x="153" y="260" on="1"/>
        <pt x="201" y="262" on="0"/>
        <pt x="268" y="283" on="0"/>
        <pt x="310" y="314" on="0"/>
        <pt x="329" y="350" on="0"/>
        <pt x="329" y="368" on="1"/>
        <pt x="329" y="397" on="0"/>
        <pt x="295" y="432" on="0"/>
        <pt x="267" y="432" on="1"/>
      </contour>
      <contour>
        <pt x="218" y="624" on="0"/>
        <pt x="186" y="587" on="0"/>
        <pt x="154" y="587" on="1"/>
        <pt x="125" y="587" on="0"/>
        <pt x="94" y="623" on="0"/>
        <pt x="94" y="649" on="1"/>
        <pt x="94" y="677" on="0"/>
        <pt x="126" y="714" on="0"/>
        <pt x="157" y="714" on="1"/>
        <pt x="186" y="714" on="0"/>
        <pt x="218" y="678" on="0"/>
        <pt x="218" y="651" on="1"/>
      </contour>
      <contour>
        <pt x="418" y="624" on="0"/>
        <pt x="386" y="587" on="0"/>
        <pt x="354" y="587" on="1"/>
        <pt x="325" y="587" on="0"/>
        <pt x="293" y="623" on="0"/>
        <pt x="293" y="649" on="1"/>
        <pt x="293" y="677" on="0"/>
        <pt x="325" y="714" on="0"/>
        <pt x="357" y="714" on="1"/>
        <pt x="386" y="714" on="0"/>
        <pt x="418" y="678" on="0"/>
        <pt x="418" y="651" on="1"/>
      </contour>
    </TTGlyph>
    <TTGlyph name="egrave" xMin="35" yMin="-7" xMax="443" yMax="779">
      <contour>
        <pt x="35" y="304" on="0"/>
        <pt x="72" y="406" on="0"/>
        <pt x="137" y="475" on="0"/>
        <pt x="225" y="510" on="0"/>
        <pt x="276" y="510" on="1"/>
        <pt x="321" y="510" on="0"/>
        <pt x="384" y="488" on="0"/>
        <pt x="424" y="450" on="0"/>
        <pt x="443" y="398" on="0"/>
        <pt x="443" y="368" on="1"/>
        <pt x="443" y="332" on="0"/>
        <pt x="403" y="267" on="0"/>
        <pt x="328" y="218" on="0"/>
        <pt x="222" y="189" on="0"/>
        <pt x="156" y="188" on="1"/>
        <pt x="159" y="165" on="0"/>
        <pt x="172" y="124" on="0"/>
        <pt x="197" y="93" on="0"/>
        <pt x="237" y="75" on="0"/>
        <pt x="267" y="75" on="1"/>
        <pt x="289" y="75" on="0"/>
        <pt x="339" y="85" on="0"/>
        <pt x="360" y="92" on="1"/>
        <pt x="385" y="100" on="0"/>
        <pt x="409" y="110" on="1"/>
        <pt x="439" y="39" on="1"/>
        <pt x="413" y="26" on="0"/>
        <pt x="383" y="16" on="1"/>
        <pt x="357" y="7" on="0"/>
        <pt x="289" y="-7" on="0"/>
        <pt x="251" y="-7" on="1"/>
        <pt x="193" y="-7" on="0"/>
        <pt x="111" y="28" on="0"/>
        <pt x="59" y="92" on="0"/>
        <pt x="35" y="182" on="0"/>
        <pt x="35" y="237" on="1"/>
      </contour>
      <contour>
        <pt x="234" y="432" on="0"/>
        <pt x="191" y="401" on="0"/>
        <pt x="165" y="352" on="0"/>
        <pt x="154" y="291" on="0"/>
        <pt x="153" y="260" on="1"/>
        <pt x="201" y="262" on="0"/>
        <pt x="268" y="283" on="0"/>
        <pt x="310" y="314" on="0"/>
        <pt x="329" y="350" on="0"/>
        <pt x="329" y="368" on="1"/>
        <pt x="329" y="397" on="0"/>
        <pt x="295" y="432" on="0"/>
        <pt x="267" y="432" on="1"/>
      </contour>
      <contour>
        <pt x="257" y="538" on="1"/>
        <pt x="223" y="560" on="0"/>
        <pt x="188" y="586" on="1"/>
        <pt x="158" y="609" on="0"/>
        <pt x="88" y="671" on="0"/>
        <pt x="59" y="708" on="1"/>
        <pt x="135" y="779" on="1"/>
        <pt x="305" y="590" on="1"/>
      </contour>
    </TTGlyph>
    <TTGlyph name="eight" xMin="50" yMin="-6" xMax="474" yMax="642">
      <contour>
        <pt x="261" y="-6" on="1"/>
        <pt x="218" y="-6" on="0"/>
        <pt x="141" y="14" on="0"/>
        <pt x="84" y="55" on="0"/>
        <pt x="50" y="117" on="0"/>
        <pt x="50" y="159" on="1"/>
        <pt x="50" y="189" on="0"/>
        <pt x="71" y="239" on="0"/>
        <pt x="106" y="280" on="0"/>
        <pt x="150" y="314" on="0"/>
        <pt x="173" y="328" on="1"/>
        <pt x="128" y="354" on="0"/>
        <pt x="67" y="434" on="0"/>
        <pt x="67" y="488" on="1"/>
        <pt x="67" y="519" on="0"/>
        <pt x="97" y="575" on="0"/>
        <pt x="151" y="617" on="0"/>
        <pt x="224" y="642" on="0"/>
        <pt x="266" y="642" on="1"/>
        <pt x="305" y="642" on="0"/>
        <pt x="374" y="619" on="0"/>
        <pt x="424" y="579" on="0"/>
        <pt x="453" y="524" on="0"/>
        <pt x="453" y="492" on="1"/>
        <pt x="453" y="466" on="0"/>
        <pt x="436" y="421" on="0"/>
        <pt x="407" y="382" on="0"/>
        <pt x="370" y="349" on="0"/>
        <pt x="350" y="335" on="1"/>
        <pt x="374" y="322" on="0"/>
        <pt x="418" y="286" on="0"/>
        <pt x="453" y="242" on="0"/>
        <pt x="474" y="192" on="0"/>
        <pt x="474" y="165" on="1"/>
        <pt x="474" y="126" on="0"/>
        <pt x="441" y="63" on="0"/>
        <pt x="384" y="18" on="0"/>
        <pt x="306" y="-6" on="0"/>
      </contour>
      <contour>
        <pt x="169" y="163" on="1"/>
        <pt x="169" y="126" on="0"/>
        <pt x="221" y="73" on="0"/>
        <pt x="269" y="73" on="1"/>
        <pt x="306" y="73" on="0"/>
        <pt x="352" y="126" on="0"/>
        <pt x="352" y="161" on="1"/>
        <pt x="352" y="180" on="0"/>
        <pt x="335" y="216" on="0"/>
        <pt x="310" y="248" on="0"/>
        <pt x="279" y="276" on="0"/>
        <pt x="264" y="287" on="1"/>
        <pt x="245" y="276" on="0"/>
        <pt x="210" y="251" on="0"/>
        <pt x="184" y="221" on="0"/>
        <pt x="169" y="185" on="0"/>
      </contour>
      <contour>
        <pt x="334" y="491" on="1"/>
        <pt x="334" y="522" on="0"/>
        <pt x="296" y="563" on="0"/>
        <pt x="262" y="563" on="1"/>
        <pt x="227" y="563" on="0"/>
        <pt x="185" y="527" on="0"/>
        <pt x="185" y="493" on="1"/>
        <pt x="185" y="472" on="0"/>
        <pt x="199" y="437" on="0"/>
        <pt x="221" y="408" on="0"/>
        <pt x="248" y="387" on="0"/>
        <pt x="262" y="379" on="1"/>
        <pt x="291" y="395" on="0"/>
        <pt x="334" y="445" on="0"/>
      </contour>
    </TTGlyph>
    <TTGlyph name="emdash" xMin="0" yMin="278" xMax="698" yMax="361">
      <contour>
        <pt x="0" y="361" on="1"/>
        <pt x="698" y="361" on="1"/>
        <pt x="698" y="278" on="1"/>
        <pt x="0" y="278" on="1"/>
      </contour>
    </TTGlyph>
    <TTGlyph name="endash" xMin="0" yMin="278" xMax="500" yMax="361">
      <contour>
        <pt x="0" y="361" on="1"/>
        <pt x="500" y="361" on="1"/>
        <pt x="500" y="278" on="1"/>
        <pt x="0" y="278" on="1"/>
      </contour>
    </TTGlyph>
    <TTGlyph name="equal" xMin="70" yMin="173" xMax="433" yMax="436">
      <contour>
        <pt x="70" y="436" on="1"/>
        <pt x="433" y="436" on="1"/>
        <pt x="433" y="348" on="1"/>
        <pt x="70" y="348" on="1"/>
      </contour>
      <contour>
        <pt x="70" y="261" on="1"/>
        <pt x="433" y="261" on="1"/>
        <pt x="433" y="173" on="1"/>
        <pt x="70" y="173" on="1"/>
      </contour>
    </TTGlyph>
    <TTGlyph name="eth" xMin="35" yMin="-10" xMax="492" yMax="729">
      <contour>
        <pt x="482" y="194" on="0"/>
        <pt x="454" y="98" on="0"/>
        <pt x="397" y="29" on="0"/>
        <pt x="311" y="-10" on="0"/>
        <pt x="254" y="-10" on="1"/>
        <pt x="197" y="-10" on="0"/>
        <pt x="114" y="27" on="0"/>
        <pt x="60" y="93" on="0"/>
        <pt x="35" y="185" on="0"/>
        <pt x="35" y="239" on="1"/>
        <pt x="35" y="291" on="0"/>
        <pt x="63" y="380" on="0"/>
        <pt x="118" y="446" on="0"/>
        <pt x="199" y="484" on="0"/>
        <pt x="253" y="484" on="1"/>
        <pt x="283" y="484" on="0"/>
        <pt x="331" y="467" on="0"/>
        <pt x="348" y="455" on="1"/>
        <pt x="337" y="483" on="0"/>
        <pt x="313" y="532" on="0"/>
        <pt x="300" y="554" on="1"/>
        <pt x="188" y="523" on="1"/>
        <pt x="168" y="601" on="1"/>
        <pt x="243" y="617" on="1"/>
        <pt x="189" y="659" on="1"/>
        <pt x="247" y="729" on="1"/>
        <pt x="303" y="694" on="0"/>
        <pt x="350" y="643" on="1"/>
        <pt x="472" y="675" on="1"/>
        <pt x="492" y="598" on="1"/>
        <pt x="398" y="578" on="1"/>
        <pt x="440" y="510" on="0"/>
        <pt x="482" y="344" on="0"/>
        <pt x="482" y="250" on="1"/>
      </contour>
      <contour>
        <pt x="224" y="405" on="0"/>
        <pt x="187" y="381" on="0"/>
        <pt x="166" y="339" on="0"/>
        <pt x="158" y="281" on="0"/>
        <pt x="158" y="248" on="1"/>
        <pt x="158" y="214" on="0"/>
        <pt x="167" y="151" on="0"/>
        <pt x="191" y="103" on="0"/>
        <pt x="232" y="74" on="0"/>
        <pt x="264" y="74" on="1"/>
        <pt x="293" y="74" on="0"/>
        <pt x="330" y="101" on="0"/>
        <pt x="351" y="147" on="0"/>
        <pt x="359" y="207" on="0"/>
        <pt x="359" y="240" on="1"/>
        <pt x="359" y="274" on="0"/>
        <pt x="350" y="334" on="0"/>
        <pt x="326" y="379" on="0"/>
        <pt x="285" y="405" on="0"/>
        <pt x="253" y="405" on="1"/>
      </contour>
    </TTGlyph>
    <TTGlyph name="exclam" xMin="101" yMin="-11" xMax="254" yMax="677">
      <contour>
        <pt x="211" y="140" on="0"/>
        <pt x="249" y="98" on="0"/>
        <pt x="249" y="65" on="1"/>
        <pt x="249" y="33" on="0"/>
        <pt x="211" y="-11" on="0"/>
        <pt x="173" y="-11" on="1"/>
        <pt x="138" y="-11" on="0"/>
        <pt x="101" y="33" on="0"/>
        <pt x="101" y="63" on="1"/>
        <pt x="101" y="95" on="0"/>
        <pt x="139" y="140" on="0"/>
        <pt x="176" y="140" on="1"/>
      </contour>
      <contour>
        <pt x="127" y="677" on="1"/>
        <pt x="254" y="677" on="1"/>
        <pt x="225" y="220" on="1"/>
        <pt x="127" y="220" on="1"/>
      </contour>
    </TTGlyph>
    <TTGlyph name="exclamdown" xMin="66" yMin="-182" xMax="219" yMax="506">
      <contour>
        <pt x="141" y="355" on="1"/>
        <pt x="104" y="355" on="0"/>
        <pt x="66" y="400" on="0"/>
        <pt x="66" y="432" on="1"/>
        <pt x="66" y="462" on="0"/>
        <pt x="103" y="506" on="0"/>
        <pt x="138" y="506" on="1"/>
        <pt x="176" y="506" on="0"/>
        <pt x="214" y="462" on="0"/>
        <pt x="214" y="430" on="1"/>
        <pt x="214" y="397" on="0"/>
        <pt x="176" y="355" on="0"/>
      </contour>
      <contour>
        <pt x="92" y="275" on="1"/>
        <pt x="190" y="275" on="1"/>
        <pt x="219" y="-182" on="1"/>
        <pt x="92" y="-182" on="1"/>
      </contour>
    </TTGlyph>
    <TTGlyph name="f" xMin="0" yMin="-223" xMax="377" yMax="722">
      <contour>
        <pt x="328" y="615" on="1"/>
        <pt x="325" y="618" on="0"/>
        <pt x="294" y="634" on="0"/>
        <pt x="280" y="634" on="1"/>
        <pt x="271" y="634" on="0"/>
        <pt x="245" y="629" on="0"/>
        <pt x="221" y="612" on="0"/>
        <pt x="204" y="580" on="0"/>
        <pt x="204" y="554" on="1"/>
        <pt x="204" y="543" on="0"/>
        <pt x="207" y="515" on="0"/>
        <pt x="212" y="498" on="1"/>
        <pt x="336" y="498" on="1"/>
        <pt x="322" y="417" on="1"/>
        <pt x="218" y="417" on="1"/>
        <pt x="218" y="25" on="1"/>
        <pt x="218" y="-35" on="0"/>
        <pt x="187" y="-116" on="0"/>
        <pt x="137" y="-171" on="0"/>
        <pt x="76" y="-208" on="0"/>
        <pt x="46" y="-223" on="1"/>
        <pt x="0" y="-147" on="1"/>
        <pt x="37" y="-128" on="0"/>
        <pt x="79" y="-85" on="0"/>
        <pt x="100" y="-42" on="0"/>
        <pt x="104" y="-2" on="0"/>
        <pt x="104" y="14" on="1"/>
        <pt x="104" y="417" on="1"/>
        <pt x="14" y="417" on="1"/>
        <pt x="14" y="498" on="1"/>
        <pt x="101" y="498" on="1"/>
        <pt x="97" y="513" on="0"/>
        <pt x="94" y="545" on="0"/>
        <pt x="94" y="559" on="1"/>
        <pt x="94" y="599" on="0"/>
        <pt x="123" y="661" on="0"/>
        <pt x="172" y="701" on="0"/>
        <pt x="237" y="722" on="0"/>
        <pt x="272" y="722" on="1"/>
        <pt x="311" y="722" on="0"/>
        <pt x="361" y="697" on="0"/>
        <pt x="377" y="680" on="1"/>
      </contour>
    </TTGlyph>
    <TTGlyph name="five" xMin="45" yMin="-7" xMax="460" yMax="637">
      <contour>
        <pt x="65" y="322" on="1"/>
        <pt x="99" y="637" on="1"/>
        <pt x="427" y="637" on="1"/>
        <pt x="411" y="546" on="1"/>
        <pt x="199" y="546" on="1"/>
        <pt x="178" y="385" on="1"/>
        <pt x="186" y="390" on="0"/>
        <pt x="232" y="404" on="0"/>
        <pt x="279" y="404" on="1"/>
        <pt x="321" y="404" on="0"/>
        <pt x="388" y="373" on="0"/>
        <pt x="435" y="319" on="0"/>
        <pt x="460" y="247" on="0"/>
        <pt x="460" y="206" on="1"/>
        <pt x="460" y="167" on="0"/>
        <pt x="438" y="90" on="0"/>
        <pt x="388" y="30" on="0"/>
        <pt x="309" y="-7" on="0"/>
        <pt x="252" y="-7" on="1"/>
        <pt x="199" y="-7" on="0"/>
        <pt x="96" y="23" on="0"/>
        <pt x="45" y="46" on="1"/>
        <pt x="79" y="129" on="1"/>
        <pt x="125" y="109" on="0"/>
        <pt x="194" y="81" on="0"/>
        <pt x="230" y="81" on="1"/>
        <pt x="288" y="81" on="0"/>
        <pt x="337" y="144" on="0"/>
        <pt x="337" y="207" on="1"/>
        <pt x="337" y="260" on="0"/>
        <pt x="282" y="315" on="0"/>
        <pt x="237" y="315" on="1"/>
        <pt x="207" y="315" on="0"/>
        <pt x="163" y="307" on="0"/>
        <pt x="132" y="297" on="0"/>
        <pt x="115" y="288" on="0"/>
        <pt x="112" y="287" on="1"/>
      </contour>
    </TTGlyph>
    <TTGlyph name="four" xMin="20" yMin="0" xMax="510" yMax="637">
      <contour>
        <pt x="300" y="176" on="1"/>
        <pt x="20" y="176" on="1"/>
        <pt x="20" y="240" on="1"/>
        <pt x="202" y="637" on="1"/>
        <pt x="319" y="637" on="1"/>
        <pt x="144" y="262" on="1"/>
        <pt x="300" y="262" on="1"/>
        <pt x="300" y="466" on="1"/>
        <pt x="413" y="486" on="1"/>
        <pt x="413" y="262" on="1"/>
        <pt x="510" y="262" on="1"/>
        <pt x="494" y="176" on="1"/>
        <pt x="413" y="176" on="1"/>
        <pt x="413" y="0" on="1"/>
        <pt x="300" y="0" on="1"/>
      </contour>
    </TTGlyph>
    <TTGlyph name="fraction" xMin="-20" yMin="0" xMax="348" yMax="587">
      <contour>
        <pt x="254" y="587" on="1"/>
        <pt x="348" y="587" on="1"/>
        <pt x="74" y="0" on="1"/>
        <pt x="-20" y="0" on="1"/>
      </contour>
    </TTGlyph>
    <TTGlyph name="g" xMin="35" yMin="-217" xMax="495" yMax="506">
      <contour>
        <pt x="140" y="-88" on="1"/>
        <pt x="155" y="-94" on="0"/>
        <pt x="189" y="-107" on="0"/>
        <pt x="227" y="-119" on="0"/>
        <pt x="266" y="-127" on="0"/>
        <pt x="285" y="-127" on="1"/>
        <pt x="341" y="-127" on="0"/>
        <pt x="391" y="-60" on="0"/>
        <pt x="391" y="-7" on="1"/>
        <pt x="391" y="45" on="0"/>
        <pt x="369" y="98" on="1"/>
        <pt x="352" y="47" on="0"/>
        <pt x="279" y="-6" on="0"/>
        <pt x="219" y="-6" on="1"/>
        <pt x="172" y="-6" on="0"/>
        <pt x="103" y="29" on="0"/>
        <pt x="57" y="94" on="0"/>
        <pt x="35" y="186" on="0"/>
        <pt x="35" y="242" on="1"/>
        <pt x="35" y="299" on="0"/>
        <pt x="70" y="396" on="0"/>
        <pt x="133" y="466" on="0"/>
        <pt x="221" y="506" on="0"/>
        <pt x="274" y="506" on="1"/>
        <pt x="298" y="506" on="0"/>
        <pt x="353" y="500" on="0"/>
        <pt x="406" y="491" on="0"/>
        <pt x="453" y="481" on="0"/>
        <pt x="470" y="477" on="1"/>
        <pt x="465" y="202" on="1"/>
        <pt x="464" y="172" on="0"/>
        <pt x="473" y="122" on="0"/>
        <pt x="485" y="73" on="0"/>
        <pt x="495" y="23" on="0"/>
        <pt x="495" y="-7" on="1"/>
        <pt x="495" y="-113" on="0"/>
        <pt x="387" y="-217" on="0"/>
        <pt x="295" y="-217" on="1"/>
        <pt x="265" y="-217" on="0"/>
        <pt x="205" y="-206" on="0"/>
        <pt x="154" y="-192" on="0"/>
        <pt x="118" y="-178" on="0"/>
        <pt x="112" y="-175" on="1"/>
      </contour>
      <contour>
        <pt x="262" y="74" on="0"/>
        <pt x="303" y="106" on="0"/>
        <pt x="335" y="159" on="0"/>
        <pt x="353" y="227" on="0"/>
        <pt x="353" y="263" on="1"/>
        <pt x="353" y="415" on="1"/>
        <pt x="343" y="418" on="0"/>
        <pt x="303" y="426" on="0"/>
        <pt x="287" y="426" on="1"/>
        <pt x="249" y="426" on="0"/>
        <pt x="200" y="400" on="0"/>
        <pt x="170" y="354" on="0"/>
        <pt x="158" y="290" on="0"/>
        <pt x="158" y="252" on="1"/>
        <pt x="158" y="217" on="0"/>
        <pt x="162" y="153" on="0"/>
        <pt x="179" y="103" on="0"/>
        <pt x="211" y="74" on="0"/>
        <pt x="238" y="74" on="1"/>
      </contour>
    </TTGlyph>
    <TTGlyph name="germandbls" xMin="-5" yMin="-223" xMax="547" yMax="725">
      <contour>
        <pt x="209" y="25" on="1"/>
        <pt x="209" y="-35" on="0"/>
        <pt x="178" y="-116" on="0"/>
        <pt x="128" y="-171" on="0"/>
        <pt x="68" y="-208" on="0"/>
        <pt x="38" y="-223" on="1"/>
        <pt x="-5" y="-154" on="1"/>
        <pt x="32" y="-135" on="0"/>
        <pt x="73" y="-89" on="0"/>
        <pt x="92" y="-43" on="0"/>
        <pt x="95" y="-1" on="0"/>
        <pt x="95" y="14" on="1"/>
        <pt x="95" y="478" on="1"/>
        <pt x="95" y="533" on="0"/>
        <pt x="124" y="624" on="0"/>
        <pt x="183" y="689" on="0"/>
        <pt x="270" y="725" on="0"/>
        <pt x="329" y="725" on="1"/>
        <pt x="375" y="725" on="0"/>
        <pt x="441" y="701" on="0"/>
        <pt x="484" y="662" on="0"/>
        <pt x="505" y="612" on="0"/>
        <pt x="505" y="585" on="1"/>
        <pt x="505" y="542" on="0"/>
        <pt x="469" y="490" on="0"/>
        <pt x="426" y="454" on="0"/>
        <pt x="390" y="424" on="0"/>
        <pt x="390" y="402" on="1"/>
        <pt x="390" y="379" on="0"/>
        <pt x="413" y="346" on="0"/>
        <pt x="448" y="318" on="0"/>
        <pt x="489" y="289" on="0"/>
        <pt x="524" y="249" on="0"/>
        <pt x="547" y="193" on="0"/>
        <pt x="547" y="152" on="1"/>
        <pt x="547" y="117" on="0"/>
        <pt x="520" y="58" on="0"/>
        <pt x="472" y="16" on="0"/>
        <pt x="404" y="-7" on="0"/>
        <pt x="363" y="-7" on="1"/>
        <pt x="339" y="-7" on="0"/>
        <pt x="296" y="3" on="0"/>
        <pt x="261" y="16" on="0"/>
        <pt x="239" y="28" on="0"/>
        <pt x="236" y="30" on="1"/>
        <pt x="270" y="105" on="1"/>
        <pt x="274" y="103" on="0"/>
        <pt x="290" y="95" on="0"/>
        <pt x="312" y="86" on="0"/>
        <pt x="336" y="79" on="0"/>
        <pt x="348" y="79" on="1"/>
        <pt x="387" y="79" on="0"/>
        <pt x="432" y="110" on="0"/>
        <pt x="432" y="143" on="1"/>
        <pt x="432" y="167" on="0"/>
        <pt x="410" y="199" on="0"/>
        <pt x="377" y="226" on="0"/>
        <pt x="339" y="253" on="0"/>
        <pt x="306" y="291" on="0"/>
        <pt x="284" y="344" on="0"/>
        <pt x="284" y="383" on="1"/>
        <pt x="284" y="420" on="0"/>
        <pt x="318" y="470" on="0"/>
        <pt x="358" y="510" on="0"/>
        <pt x="392" y="549" on="0"/>
        <pt x="392" y="575" on="1"/>
        <pt x="392" y="609" on="0"/>
        <pt x="344" y="638" on="0"/>
        <pt x="313" y="638" on="1"/>
        <pt x="283" y="638" on="0"/>
        <pt x="243" y="611" on="0"/>
        <pt x="219" y="568" on="0"/>
        <pt x="209" y="513" on="0"/>
        <pt x="209" y="486" on="1"/>
      </contour>
    </TTGlyph>
    <TTGlyph name="grave" xMin="67" yMin="538" xMax="313" yMax="779">
      <contour>
        <pt x="265" y="538" on="1"/>
        <pt x="231" y="560" on="0"/>
        <pt x="196" y="586" on="1"/>
        <pt x="166" y="609" on="0"/>
        <pt x="96" y="671" on="0"/>
        <pt x="67" y="708" on="1"/>
        <pt x="143" y="779" on="1"/>
        <pt x="313" y="590" on="1"/>
      </contour>
    </TTGlyph>
    <TTGlyph name="greater" xMin="40" yMin="90" xMax="425" yMax="506">
      <contour>
        <pt x="40" y="183" on="1"/>
        <pt x="239" y="274" on="1"/>
        <pt x="254" y="281" on="0"/>
        <pt x="287" y="295" on="0"/>
        <pt x="301" y="300" on="1"/>
        <pt x="287" y="305" on="0"/>
        <pt x="255" y="318" on="0"/>
        <pt x="240" y="326" on="1"/>
        <pt x="46" y="413" on="1"/>
        <pt x="86" y="506" on="1"/>
        <pt x="425" y="341" on="1"/>
        <pt x="425" y="259" on="1"/>
        <pt x="80" y="90" on="1"/>
      </contour>
    </TTGlyph>
    <TTGlyph name="guillemotleft" xMin="50" yMin="28" xMax="531" yMax="462">
      <contour>
        <pt x="265" y="28" on="1"/>
        <pt x="225" y="63" on="0"/>
        <pt x="186" y="100" on="1"/>
        <pt x="153" y="132" on="0"/>
        <pt x="79" y="208" on="0"/>
        <pt x="50" y="245" on="1"/>
        <pt x="79" y="282" on="0"/>
        <pt x="153" y="358" on="0"/>
        <pt x="186" y="390" on="1"/>
        <pt x="225" y="427" on="0"/>
        <pt x="265" y="462" on="1"/>
        <pt x="312" y="408" on="1"/>
        <pt x="182" y="245" on="1"/>
        <pt x="312" y="82" on="1"/>
      </contour>
      <contour>
        <pt x="484" y="28" on="1"/>
        <pt x="444" y="63" on="0"/>
        <pt x="405" y="100" on="1"/>
        <pt x="372" y="132" on="0"/>
        <pt x="299" y="208" on="0"/>
        <pt x="270" y="245" on="1"/>
        <pt x="299" y="282" on="0"/>
        <pt x="372" y="358" on="0"/>
        <pt x="405" y="390" on="1"/>
        <pt x="444" y="427" on="0"/>
        <pt x="484" y="462" on="1"/>
        <pt x="531" y="408" on="1"/>
        <pt x="401" y="245" on="1"/>
        <pt x="531" y="82" on="1"/>
      </contour>
    </TTGlyph>
    <TTGlyph name="guillemotright" xMin="35" yMin="28" xMax="516" yMax="462">
      <contour>
        <pt x="302" y="462" on="1"/>
        <pt x="341" y="427" on="0"/>
        <pt x="380" y="390" on="1"/>
        <pt x="413" y="358" on="0"/>
        <pt x="487" y="282" on="0"/>
        <pt x="516" y="245" on="1"/>
        <pt x="487" y="208" on="0"/>
        <pt x="413" y="132" on="0"/>
        <pt x="380" y="100" on="1"/>
        <pt x="341" y="63" on="0"/>
        <pt x="302" y="28" on="1"/>
        <pt x="255" y="82" on="1"/>
        <pt x="385" y="245" on="1"/>
        <pt x="255" y="408" on="1"/>
      </contour>
      <contour>
        <pt x="83" y="462" on="1"/>
        <pt x="122" y="427" on="0"/>
        <pt x="161" y="390" on="1"/>
        <pt x="194" y="358" on="0"/>
        <pt x="268" y="282" on="0"/>
        <pt x="297" y="245" on="1"/>
        <pt x="268" y="208" on="0"/>
        <pt x="194" y="132" on="0"/>
        <pt x="161" y="100" on="1"/>
        <pt x="122" y="63" on="0"/>
        <pt x="83" y="28" on="1"/>
        <pt x="35" y="82" on="1"/>
        <pt x="165" y="245" on="1"/>
        <pt x="35" y="408" on="1"/>
      </contour>
    </TTGlyph>
    <TTGlyph name="guilsinglleft" xMin="50" yMin="28" xMax="312" yMax="462">
      <contour>
        <pt x="312" y="408" on="1"/>
        <pt x="182" y="245" on="1"/>
        <pt x="312" y="82" on="1"/>
        <pt x="265" y="28" on="1"/>
        <pt x="225" y="63" on="0"/>
        <pt x="186" y="100" on="1"/>
        <pt x="153" y="132" on="0"/>
        <pt x="79" y="208" on="0"/>
        <pt x="50" y="245" on="1"/>
        <pt x="79" y="282" on="0"/>
        <pt x="153" y="358" on="0"/>
        <pt x="186" y="390" on="1"/>
        <pt x="225" y="427" on="0"/>
        <pt x="265" y="462" on="1"/>
      </contour>
    </TTGlyph>
    <TTGlyph name="guilsinglright" xMin="35" yMin="28" xMax="297" yMax="462">
      <contour>
        <pt x="83" y="462" on="1"/>
        <pt x="122" y="427" on="0"/>
        <pt x="161" y="390" on="1"/>
        <pt x="194" y="358" on="0"/>
        <pt x="268" y="282" on="0"/>
        <pt x="297" y="245" on="1"/>
        <pt x="268" y="208" on="0"/>
        <pt x="194" y="132" on="0"/>
        <pt x="161" y="100" on="1"/>
        <pt x="122" y="63" on="0"/>
        <pt x="83" y="28" on="1"/>
        <pt x="35" y="82" on="1"/>
        <pt x="165" y="245" on="1"/>
        <pt x="35" y="408" on="1"/>
      </contour>
    </TTGlyph>
    <TTGlyph name="h" xMin="65" yMin="0" xMax="480" yMax="725">
      <contour>
        <pt x="179" y="434" on="1"/>
        <pt x="208" y="472" on="0"/>
        <pt x="289" y="506" on="0"/>
        <pt x="334" y="506" on="1"/>
        <pt x="411" y="506" on="0"/>
        <pt x="480" y="413" on="0"/>
        <pt x="480" y="334" on="1"/>
        <pt x="480" y="0" on="1"/>
        <pt x="366" y="0" on="1"/>
        <pt x="366" y="326" on="1"/>
        <pt x="366" y="368" on="0"/>
        <pt x="336" y="417" on="0"/>
        <pt x="300" y="417" on="1"/>
        <pt x="279" y="417" on="0"/>
        <pt x="236" y="395" on="0"/>
        <pt x="201" y="354" on="0"/>
        <pt x="179" y="298" on="0"/>
        <pt x="179" y="264" on="1"/>
        <pt x="179" y="0" on="1"/>
        <pt x="65" y="0" on="1"/>
        <pt x="65" y="705" on="1"/>
        <pt x="179" y="725" on="1"/>
      </contour>
    </TTGlyph>
    <TTGlyph name="hyphen" xMin="50" yMin="278" xMax="333" yMax="361">
      <contour>
        <pt x="50" y="361" on="1"/>
        <pt x="333" y="361" on="1"/>
        <pt x="333" y="278" on="1"/>
        <pt x="50" y="278" on="1"/>
      </contour>
    </TTGlyph>
    <TTGlyph name="i" xMin="50" yMin="-4" xMax="241" yMax="720">
      <contour>
        <pt x="117" y="-4" on="0"/>
        <pt x="61" y="59" on="0"/>
        <pt x="61" y="109" on="1"/>
        <pt x="61" y="498" on="1"/>
        <pt x="175" y="498" on="1"/>
        <pt x="175" y="119" on="1"/>
        <pt x="175" y="96" on="0"/>
        <pt x="189" y="80" on="0"/>
        <pt x="203" y="80" on="1"/>
        <pt x="207" y="80" on="0"/>
        <pt x="216" y="80" on="0"/>
        <pt x="220" y="81" on="1"/>
        <pt x="224" y="81" on="0"/>
        <pt x="229" y="82" on="1"/>
        <pt x="241" y="10" on="1"/>
        <pt x="234" y="6" on="0"/>
        <pt x="223" y="3" on="1"/>
        <pt x="214" y="0" on="0"/>
        <pt x="187" y="-4" on="0"/>
        <pt x="170" y="-4" on="1"/>
      </contour>
      <contour>
        <pt x="152" y="720" on="0"/>
        <pt x="186" y="682" on="0"/>
        <pt x="186" y="652" on="1"/>
        <pt x="186" y="622" on="0"/>
        <pt x="151" y="582" on="0"/>
        <pt x="117" y="582" on="1"/>
        <pt x="85" y="582" on="0"/>
        <pt x="50" y="621" on="0"/>
        <pt x="50" y="649" on="1"/>
        <pt x="50" y="680" on="0"/>
        <pt x="85" y="720" on="0"/>
        <pt x="120" y="720" on="1"/>
      </contour>
    </TTGlyph>
    <TTGlyph name="iacute" xMin="50" yMin="-4" xMax="275" yMax="780">
      <contour>
        <pt x="106" y="-4" on="0"/>
        <pt x="50" y="59" on="0"/>
        <pt x="50" y="109" on="1"/>
        <pt x="50" y="498" on="1"/>
        <pt x="164" y="498" on="1"/>
        <pt x="164" y="119" on="1"/>
        <pt x="164" y="96" on="0"/>
        <pt x="178" y="80" on="0"/>
        <pt x="192" y="80" on="1"/>
        <pt x="196" y="80" on="0"/>
        <pt x="205" y="80" on="0"/>
        <pt x="209" y="81" on="1"/>
        <pt x="213" y="81" on="0"/>
        <pt x="218" y="82" on="1"/>
        <pt x="230" y="10" on="1"/>
        <pt x="223" y="6" on="0"/>
        <pt x="212" y="3" on="1"/>
        <pt x="203" y="0" on="0"/>
        <pt x="176" y="-4" on="0"/>
        <pt x="159" y="-4" on="1"/>
      </contour>
      <contour>
        <pt x="56" y="590" on="1"/>
        <pt x="196" y="780" on="1"/>
        <pt x="275" y="713" on="1"/>
        <pt x="245" y="676" on="0"/>
        <pt x="185" y="612" on="0"/>
        <pt x="160" y="589" on="1"/>
        <pt x="131" y="562" on="0"/>
        <pt x="104" y="539" on="1"/>
      </contour>
    </TTGlyph>
    <TTGlyph name="icircumflex" xMin="-64" yMin="-4" xMax="277" yMax="781">
      <contour>
        <pt x="106" y="-4" on="0"/>
        <pt x="50" y="59" on="0"/>
        <pt x="50" y="109" on="1"/>
        <pt x="50" y="498" on="1"/>
        <pt x="164" y="498" on="1"/>
        <pt x="164" y="119" on="1"/>
        <pt x="164" y="96" on="0"/>
        <pt x="178" y="80" on="0"/>
        <pt x="192" y="80" on="1"/>
        <pt x="196" y="80" on="0"/>
        <pt x="205" y="80" on="0"/>
        <pt x="209" y="81" on="1"/>
        <pt x="213" y="81" on="0"/>
        <pt x="218" y="82" on="1"/>
        <pt x="230" y="10" on="1"/>
        <pt x="223" y="6" on="0"/>
        <pt x="212" y="3" on="1"/>
        <pt x="203" y="0" on="0"/>
        <pt x="176" y="-4" on="0"/>
        <pt x="159" y="-4" on="1"/>
      </contour>
      <contour>
        <pt x="53" y="592" on="0"/>
        <pt x="-5" y="549" on="0"/>
        <pt x="-18" y="539" on="1"/>
        <pt x="-64" y="589" on="1"/>
        <pt x="106" y="781" on="1"/>
        <pt x="277" y="589" on="1"/>
        <pt x="230" y="539" on="1"/>
        <pt x="219" y="547" on="0"/>
        <pt x="159" y="593" on="0"/>
        <pt x="106" y="641" on="1"/>
      </contour>
    </TTGlyph>
    <TTGlyph name="idieresis" xMin="-35" yMin="-4" xMax="249" yMax="705">
      <contour>
        <pt x="106" y="-4" on="0"/>
        <pt x="50" y="59" on="0"/>
        <pt x="50" y="109" on="1"/>
        <pt x="50" y="498" on="1"/>
        <pt x="164" y="498" on="1"/>
        <pt x="164" y="119" on="1"/>
        <pt x="164" y="96" on="0"/>
        <pt x="178" y="80" on="0"/>
        <pt x="192" y="80" on="1"/>
        <pt x="196" y="80" on="0"/>
        <pt x="205" y="80" on="0"/>
        <pt x="209" y="81" on="1"/>
        <pt x="213" y="81" on="0"/>
        <pt x="218" y="82" on="1"/>
        <pt x="230" y="10" on="1"/>
        <pt x="223" y="6" on="0"/>
        <pt x="212" y="3" on="1"/>
        <pt x="203" y="0" on="0"/>
        <pt x="176" y="-4" on="0"/>
        <pt x="159" y="-4" on="1"/>
      </contour>
      <contour>
        <pt x="83" y="620" on="0"/>
        <pt x="52" y="584" on="0"/>
        <pt x="22" y="584" on="1"/>
        <pt x="-5" y="584" on="0"/>
        <pt x="-35" y="619" on="0"/>
        <pt x="-35" y="643" on="1"/>
        <pt x="-35" y="670" on="0"/>
        <pt x="-4" y="705" on="0"/>
        <pt x="25" y="705" on="1"/>
        <pt x="53" y="705" on="0"/>
        <pt x="83" y="672" on="0"/>
        <pt x="83" y="646" on="1"/>
      </contour>
      <contour>
        <pt x="249" y="620" on="0"/>
        <pt x="218" y="584" on="0"/>
        <pt x="188" y="584" on="1"/>
        <pt x="160" y="584" on="0"/>
        <pt x="130" y="619" on="0"/>
        <pt x="130" y="643" on="1"/>
        <pt x="130" y="670" on="0"/>
        <pt x="161" y="705" on="0"/>
        <pt x="191" y="705" on="1"/>
        <pt x="219" y="705" on="0"/>
        <pt x="249" y="672" on="0"/>
        <pt x="249" y="646" on="1"/>
      </contour>
    </TTGlyph>
    <TTGlyph name="igrave" xMin="-65" yMin="-4" xMax="230" yMax="780">
      <contour>
        <pt x="106" y="-4" on="0"/>
        <pt x="50" y="59" on="0"/>
        <pt x="50" y="109" on="1"/>
        <pt x="50" y="498" on="1"/>
        <pt x="164" y="498" on="1"/>
        <pt x="164" y="119" on="1"/>
        <pt x="164" y="96" on="0"/>
        <pt x="178" y="80" on="0"/>
        <pt x="192" y="80" on="1"/>
        <pt x="196" y="80" on="0"/>
        <pt x="205" y="80" on="0"/>
        <pt x="209" y="81" on="1"/>
        <pt x="213" y="81" on="0"/>
        <pt x="218" y="82" on="1"/>
        <pt x="230" y="10" on="1"/>
        <pt x="223" y="6" on="0"/>
        <pt x="212" y="3" on="1"/>
        <pt x="203" y="0" on="0"/>
        <pt x="176" y="-4" on="0"/>
        <pt x="159" y="-4" on="1"/>
      </contour>
      <contour>
        <pt x="106" y="539" on="1"/>
        <pt x="79" y="562" on="0"/>
        <pt x="50" y="589" on="1"/>
        <pt x="25" y="612" on="0"/>
        <pt x="-36" y="676" on="0"/>
        <pt x="-65" y="713" on="1"/>
        <pt x="15" y="780" on="1"/>
        <pt x="154" y="590" on="1"/>
      </contour>
    </TTGlyph>
    <TTGlyph name="j" xMin="-39" yMin="-223" xMax="190" yMax="720">
      <contour>
        <pt x="65" y="498" on="1"/>
        <pt x="179" y="498" on="1"/>
        <pt x="179" y="24" on="1"/>
        <pt x="179" y="-36" on="0"/>
        <pt x="147" y="-116" on="0"/>
        <pt x="98" y="-171" on="0"/>
        <pt x="37" y="-208" on="0"/>
        <pt x="7" y="-223" on="1"/>
        <pt x="-39" y="-147" on="1"/>
        <pt x="-2" y="-128" on="0"/>
        <pt x="40" y="-85" on="0"/>
        <pt x="60" y="-42" on="0"/>
        <pt x="65" y="-2" on="0"/>
        <pt x="65" y="13" on="1"/>
      </contour>
      <contour>
        <pt x="155" y="720" on="0"/>
        <pt x="190" y="682" on="0"/>
        <pt x="190" y="652" on="1"/>
        <pt x="190" y="622" on="0"/>
        <pt x="155" y="582" on="0"/>
        <pt x="120" y="582" on="1"/>
        <pt x="88" y="582" on="0"/>
        <pt x="54" y="621" on="0"/>
        <pt x="54" y="649" on="1"/>
        <pt x="54" y="680" on="0"/>
        <pt x="89" y="720" on="0"/>
        <pt x="123" y="720" on="1"/>
      </contour>
    </TTGlyph>
    <TTGlyph name="k" xMin="65" yMin="0" xMax="500" yMax="725">
      <contour>
        <pt x="179" y="725" on="1"/>
        <pt x="179" y="440" on="1"/>
        <pt x="187" y="450" on="0"/>
        <pt x="212" y="473" on="0"/>
        <pt x="250" y="493" on="0"/>
        <pt x="300" y="507" on="0"/>
        <pt x="333" y="507" on="1"/>
        <pt x="364" y="507" on="0"/>
        <pt x="418" y="489" on="0"/>
        <pt x="457" y="455" on="0"/>
        <pt x="480" y="406" on="0"/>
        <pt x="480" y="375" on="1"/>
        <pt x="480" y="330" on="0"/>
        <pt x="443" y="272" on="0"/>
        <pt x="420" y="255" on="1"/>
        <pt x="394" y="235" on="0"/>
        <pt x="360" y="223" on="1"/>
        <pt x="500" y="0" on="1"/>
        <pt x="371" y="0" on="1"/>
        <pt x="227" y="249" on="1"/>
        <pt x="226" y="259" on="1"/>
        <pt x="234" y="261" on="0"/>
        <pt x="279" y="275" on="0"/>
        <pt x="327" y="301" on="0"/>
        <pt x="364" y="340" on="0"/>
        <pt x="364" y="367" on="1"/>
        <pt x="364" y="396" on="0"/>
        <pt x="330" y="426" on="0"/>
        <pt x="302" y="426" on="1"/>
        <pt x="264" y="426" on="0"/>
        <pt x="216" y="396" on="0"/>
        <pt x="189" y="358" on="0"/>
        <pt x="179" y="324" on="0"/>
        <pt x="179" y="321" on="1"/>
        <pt x="179" y="0" on="1"/>
        <pt x="65" y="0" on="1"/>
        <pt x="65" y="705" on="1"/>
      </contour>
    </TTGlyph>
    <TTGlyph name="l" xMin="60" yMin="-4" xMax="276" yMax="726">
      <contour>
        <pt x="114" y="-4" on="0"/>
        <pt x="60" y="59" on="0"/>
        <pt x="60" y="108" on="1"/>
        <pt x="60" y="705" on="1"/>
        <pt x="174" y="726" on="1"/>
        <pt x="174" y="119" on="1"/>
        <pt x="174" y="96" on="0"/>
        <pt x="192" y="78" on="0"/>
        <pt x="209" y="78" on="1"/>
        <pt x="219" y="78" on="0"/>
        <pt x="238" y="80" on="0"/>
        <pt x="246" y="82" on="1"/>
        <pt x="255" y="84" on="0"/>
        <pt x="262" y="86" on="1"/>
        <pt x="276" y="14" on="1"/>
        <pt x="263" y="9" on="0"/>
        <pt x="247" y="5" on="1"/>
        <pt x="233" y="1" on="0"/>
        <pt x="195" y="-4" on="0"/>
        <pt x="171" y="-4" on="1"/>
      </contour>
    </TTGlyph>
    <TTGlyph name="less" xMin="30" yMin="90" xMax="415" yMax="506">
      <contour>
        <pt x="375" y="90" on="1"/>
        <pt x="30" y="259" on="1"/>
        <pt x="30" y="341" on="1"/>
        <pt x="369" y="506" on="1"/>
        <pt x="409" y="413" on="1"/>
        <pt x="215" y="326" on="1"/>
        <pt x="200" y="318" on="0"/>
        <pt x="167" y="305" on="0"/>
        <pt x="154" y="300" on="1"/>
        <pt x="167" y="295" on="0"/>
        <pt x="200" y="282" on="0"/>
        <pt x="216" y="274" on="1"/>
        <pt x="415" y="183" on="1"/>
      </contour>
    </TTGlyph>
    <TTGlyph name="logicalnot" xMin="50" yMin="182" xMax="460" yMax="395">
      <contour>
        <pt x="50" y="395" on="1"/>
        <pt x="460" y="395" on="1"/>
        <pt x="460" y="182" on="1"/>
        <pt x="374" y="182" on="1"/>
        <pt x="374" y="307" on="1"/>
        <pt x="50" y="307" on="1"/>
      </contour>
    </TTGlyph>
    <TTGlyph name="m" xMin="25" yMin="0" xMax="749" yMax="506">
      <contour>
        <pt x="636" y="0" on="1"/>
        <pt x="636" y="326" on="1"/>
        <pt x="636" y="368" on="0"/>
        <pt x="610" y="417" on="0"/>
        <pt x="578" y="417" on="1"/>
        <pt x="559" y="417" on="0"/>
        <pt x="520" y="396" on="0"/>
        <pt x="488" y="356" on="0"/>
        <pt x="468" y="300" on="0"/>
        <pt x="468" y="266" on="1"/>
        <pt x="468" y="0" on="1"/>
        <pt x="355" y="0" on="1"/>
        <pt x="355" y="326" on="1"/>
        <pt x="355" y="368" on="0"/>
        <pt x="329" y="417" on="0"/>
        <pt x="297" y="417" on="1"/>
        <pt x="277" y="417" on="0"/>
        <pt x="238" y="394" on="0"/>
        <pt x="207" y="350" on="0"/>
        <pt x="188" y="287" on="0"/>
        <pt x="188" y="248" on="1"/>
        <pt x="188" y="0" on="1"/>
        <pt x="74" y="0" on="1"/>
        <pt x="74" y="252" on="1"/>
        <pt x="74" y="312" on="0"/>
        <pt x="58" y="393" on="0"/>
        <pt x="49" y="418" on="1"/>
        <pt x="38" y="447" on="0"/>
        <pt x="25" y="465" on="1"/>
        <pt x="115" y="501" on="1"/>
        <pt x="125" y="490" on="0"/>
        <pt x="135" y="474" on="1"/>
        <pt x="143" y="460" on="0"/>
        <pt x="159" y="419" on="0"/>
        <pt x="164" y="393" on="1"/>
        <pt x="189" y="453" on="0"/>
        <pt x="280" y="506" on="0"/>
        <pt x="331" y="506" on="1"/>
        <pt x="382" y="506" on="0"/>
        <pt x="439" y="454" on="0"/>
        <pt x="453" y="413" on="1"/>
        <pt x="480" y="463" on="0"/>
        <pt x="565" y="506" on="0"/>
        <pt x="612" y="506" on="1"/>
        <pt x="651" y="506" on="0"/>
        <pt x="704" y="481" on="0"/>
        <pt x="735" y="436" on="0"/>
        <pt x="749" y="373" on="0"/>
        <pt x="749" y="334" on="1"/>
        <pt x="749" y="0" on="1"/>
      </contour>
    </TTGlyph>
    <TTGlyph name="macron" xMin="90" yMin="600" xMax="412" yMax="683">
      <contour>
        <pt x="90" y="683" on="1"/>
        <pt x="412" y="683" on="1"/>
        <pt x="412" y="600" on="1"/>
        <pt x="90" y="600" on="1"/>
      </contour>
    </TTGlyph>
    <TTGlyph name="minus" xMin="61" yMin="257" xMax="398" yMax="346">
      <contour>
        <pt x="61" y="346" on="1"/>
        <pt x="398" y="346" on="1"/>
        <pt x="398" y="257" on="1"/>
        <pt x="61" y="257" on="1"/>
      </contour>
    </TTGlyph>
    <TTGlyph name="multiply" xMin="60" yMin="104" xMax="456" yMax="497">
      <contour>
        <pt x="128" y="495" on="1"/>
        <pt x="256" y="365" on="1"/>
        <pt x="387" y="497" on="1"/>
        <pt x="452" y="430" on="1"/>
        <pt x="322" y="300" on="1"/>
        <pt x="456" y="167" on="1"/>
        <pt x="395" y="104" on="1"/>
        <pt x="261" y="239" on="1"/>
        <pt x="125" y="104" on="1"/>
        <pt x="60" y="170" on="1"/>
        <pt x="195" y="304" on="1"/>
        <pt x="67" y="432" on="1"/>
      </contour>
    </TTGlyph>
    <TTGlyph name="n" xMin="25" yMin="0" xMax="488" yMax="506">
      <contour>
        <pt x="375" y="0" on="1"/>
        <pt x="375" y="323" on="1"/>
        <pt x="375" y="365" on="0"/>
        <pt x="345" y="416" on="0"/>
        <pt x="309" y="416" on="1"/>
        <pt x="286" y="416" on="0"/>
        <pt x="243" y="393" on="0"/>
        <pt x="209" y="349" on="0"/>
        <pt x="188" y="286" on="0"/>
        <pt x="188" y="247" on="1"/>
        <pt x="188" y="0" on="1"/>
        <pt x="74" y="0" on="1"/>
        <pt x="74" y="252" on="1"/>
        <pt x="74" y="312" on="0"/>
        <pt x="58" y="393" on="0"/>
        <pt x="49" y="418" on="1"/>
        <pt x="38" y="447" on="0"/>
        <pt x="25" y="465" on="1"/>
        <pt x="115" y="501" on="1"/>
        <pt x="125" y="490" on="0"/>
        <pt x="135" y="474" on="1"/>
        <pt x="143" y="460" on="0"/>
        <pt x="159" y="419" on="0"/>
        <pt x="164" y="393" on="1"/>
        <pt x="190" y="453" on="0"/>
        <pt x="288" y="506" on="0"/>
        <pt x="342" y="506" on="1"/>
        <pt x="419" y="506" on="0"/>
        <pt x="488" y="413" on="0"/>
        <pt x="488" y="334" on="1"/>
        <pt x="488" y="0" on="1"/>
      </contour>
    </TTGlyph>
    <TTGlyph name="nine" xMin="35" yMin="-6" xMax="479" yMax="640">
      <contour>
        <pt x="112" y="100" on="1"/>
        <pt x="135" y="92" on="0"/>
        <pt x="187" y="82" on="0"/>
        <pt x="213" y="82" on="1"/>
        <pt x="256" y="82" on="0"/>
        <pt x="311" y="114" on="0"/>
        <pt x="343" y="169" on="0"/>
        <pt x="356" y="242" on="0"/>
        <pt x="357" y="283" on="1"/>
        <pt x="349" y="273" on="0"/>
        <pt x="324" y="251" on="0"/>
        <pt x="291" y="233" on="0"/>
        <pt x="249" y="221" on="0"/>
        <pt x="223" y="221" on="1"/>
        <pt x="135" y="221" on="0"/>
        <pt x="35" y="330" on="0"/>
        <pt x="35" y="429" on="1"/>
        <pt x="35" y="474" on="0"/>
        <pt x="64" y="551" on="0"/>
        <pt x="120" y="608" on="0"/>
        <pt x="203" y="640" on="0"/>
        <pt x="257" y="640" on="1"/>
        <pt x="320" y="640" on="0"/>
        <pt x="405" y="592" on="0"/>
        <pt x="457" y="506" on="0"/>
        <pt x="479" y="387" on="0"/>
        <pt x="479" y="316" on="1"/>
        <pt x="479" y="252" on="0"/>
        <pt x="449" y="135" on="0"/>
        <pt x="384" y="47" on="0"/>
        <pt x="282" y="-6" on="0"/>
        <pt x="209" y="-6" on="1"/>
        <pt x="172" y="-6" on="0"/>
        <pt x="107" y="10" on="0"/>
        <pt x="81" y="21" on="1"/>
      </contour>
      <contour>
        <pt x="265" y="307" on="0"/>
        <pt x="303" y="319" on="0"/>
        <pt x="333" y="335" on="0"/>
        <pt x="354" y="350" on="0"/>
        <pt x="357" y="352" on="1"/>
        <pt x="354" y="456" on="0"/>
        <pt x="304" y="555" on="0"/>
        <pt x="248" y="555" on="1"/>
        <pt x="197" y="555" on="0"/>
        <pt x="151" y="485" on="0"/>
        <pt x="151" y="430" on="1"/>
        <pt x="151" y="404" on="0"/>
        <pt x="161" y="359" on="0"/>
        <pt x="183" y="326" on="0"/>
        <pt x="219" y="307" on="0"/>
        <pt x="245" y="307" on="1"/>
      </contour>
    </TTGlyph>
    <TTGlyph name="ntilde" xMin="25" yMin="0" xMax="488" yMax="686">
      <contour>
        <pt x="375" y="0" on="1"/>
        <pt x="375" y="323" on="1"/>
        <pt x="375" y="365" on="0"/>
        <pt x="345" y="416" on="0"/>
        <pt x="309" y="416" on="1"/>
        <pt x="286" y="416" on="0"/>
        <pt x="243" y="393" on="0"/>
        <pt x="209" y="349" on="0"/>
        <pt x="188" y="286" on="0"/>
        <pt x="188" y="247" on="1"/>
        <pt x="188" y="0" on="1"/>
        <pt x="74" y="0" on="1"/>
        <pt x="74" y="252" on="1"/>
        <pt x="74" y="312" on="0"/>
        <pt x="58" y="393" on="0"/>
        <pt x="49" y="418" on="1"/>
        <pt x="38" y="447" on="0"/>
        <pt x="25" y="465" on="1"/>
        <pt x="115" y="501" on="1"/>
        <pt x="125" y="490" on="0"/>
        <pt x="135" y="474" on="1"/>
        <pt x="143" y="460" on="0"/>
        <pt x="159" y="419" on="0"/>
        <pt x="164" y="393" on="1"/>
        <pt x="190" y="453" on="0"/>
        <pt x="288" y="506" on="0"/>
        <pt x="342" y="506" on="1"/>
        <pt x="419" y="506" on="0"/>
        <pt x="488" y="413" on="0"/>
        <pt x="488" y="334" on="1"/>
        <pt x="488" y="0" on="1"/>
      </contour>
      <contour>
        <pt x="157" y="663" on="1"/>
        <pt x="168" y="669" on="0"/>
        <pt x="180" y="674" on="1"/>
        <pt x="191" y="679" on="0"/>
        <pt x="219" y="686" on="0"/>
        <pt x="236" y="686" on="1"/>
        <pt x="273" y="686" on="0"/>
        <pt x="352" y="666" on="0"/>
        <pt x="389" y="666" on="1"/>
        <pt x="406" y="666" on="0"/>
        <pt x="435" y="670" on="0"/>
        <pt x="446" y="673" on="1"/>
        <pt x="458" y="676" on="0"/>
        <pt x="469" y="680" on="1"/>
        <pt x="469" y="606" on="1"/>
        <pt x="458" y="599" on="0"/>
        <pt x="446" y="594" on="1"/>
        <pt x="435" y="589" on="0"/>
        <pt x="406" y="583" on="0"/>
        <pt x="389" y="583" on="1"/>
        <pt x="352" y="583" on="0"/>
        <pt x="273" y="603" on="0"/>
        <pt x="236" y="603" on="1"/>
        <pt x="219" y="603" on="0"/>
        <pt x="191" y="598" on="0"/>
        <pt x="180" y="596" on="1"/>
        <pt x="168" y="592" on="0"/>
        <pt x="157" y="589" on="1"/>
      </contour>
    </TTGlyph>
    <TTGlyph name="numbersign" xMin="40" yMin="0" xMax="566" yMax="593">
      <contour>
        <pt x="485" y="593" on="1"/>
        <pt x="467" y="456" on="1"/>
        <pt x="566" y="456" on="1"/>
        <pt x="556" y="378" on="1"/>
        <pt x="457" y="378" on="1"/>
        <pt x="437" y="221" on="1"/>
        <pt x="543" y="221" on="1"/>
        <pt x="533" y="143" on="1"/>
        <pt x="427" y="143" on="1"/>
        <pt x="409" y="0" on="1"/>
        <pt x="330" y="0" on="1"/>
        <pt x="348" y="143" on="1"/>
        <pt x="224" y="143" on="1"/>
        <pt x="206" y="0" on="1"/>
        <pt x="127" y="0" on="1"/>
        <pt x="145" y="143" on="1"/>
        <pt x="40" y="143" on="1"/>
        <pt x="50" y="221" on="1"/>
        <pt x="155" y="221" on="1"/>
        <pt x="175" y="378" on="1"/>
        <pt x="63" y="378" on="1"/>
        <pt x="73" y="456" on="1"/>
        <pt x="185" y="456" on="1"/>
        <pt x="203" y="593" on="1"/>
        <pt x="282" y="593" on="1"/>
        <pt x="264" y="456" on="1"/>
        <pt x="388" y="456" on="1"/>
        <pt x="406" y="593" on="1"/>
      </contour>
      <contour>
        <pt x="234" y="221" on="1"/>
        <pt x="358" y="221" on="1"/>
        <pt x="378" y="378" on="1"/>
        <pt x="254" y="378" on="1"/>
      </contour>
    </TTGlyph>
    <TTGlyph name="o" xMin="35" yMin="-10" xMax="482" yMax="510">
      <contour>
        <pt x="378" y="510" on="0"/>
        <pt x="482" y="374" on="0"/>
        <pt x="482" y="255" on="1"/>
        <pt x="482" y="199" on="0"/>
        <pt x="454" y="102" on="0"/>
        <pt x="397" y="31" on="0"/>
        <pt x="311" y="-10" on="0"/>
        <pt x="254" y="-10" on="1"/>
        <pt x="197" y="-10" on="0"/>
        <pt x="114" y="25" on="0"/>
        <pt x="60" y="91" on="0"/>
        <pt x="35" y="185" on="0"/>
        <pt x="35" y="244" on="1"/>
        <pt x="35" y="301" on="0"/>
        <pt x="63" y="398" on="0"/>
        <pt x="120" y="469" on="0"/>
        <pt x="206" y="510" on="0"/>
        <pt x="263" y="510" on="1"/>
      </contour>
      <contour>
        <pt x="224" y="426" on="0"/>
        <pt x="187" y="400" on="0"/>
        <pt x="166" y="353" on="0"/>
        <pt x="158" y="290" on="0"/>
        <pt x="158" y="254" on="1"/>
        <pt x="158" y="217" on="0"/>
        <pt x="167" y="151" on="0"/>
        <pt x="191" y="102" on="0"/>
        <pt x="232" y="74" on="0"/>
        <pt x="264" y="74" on="1"/>
        <pt x="293" y="74" on="0"/>
        <pt x="330" y="100" on="0"/>
        <pt x="351" y="147" on="0"/>
        <pt x="359" y="209" on="0"/>
        <pt x="359" y="245" on="1"/>
        <pt x="359" y="282" on="0"/>
        <pt x="350" y="348" on="0"/>
        <pt x="326" y="398" on="0"/>
        <pt x="285" y="426" on="0"/>
        <pt x="253" y="426" on="1"/>
      </contour>
    </TTGlyph>
    <TTGlyph name="oacute" xMin="35" yMin="-10" xMax="482" yMax="779">
      <contour>
        <pt x="378" y="510" on="0"/>
        <pt x="482" y="374" on="0"/>
        <pt x="482" y="255" on="1"/>
        <pt x="482" y="199" on="0"/>
        <pt x="454" y="102" on="0"/>
        <pt x="397" y="31" on="0"/>
        <pt x="311" y="-10" on="0"/>
        <pt x="254" y="-10" on="1"/>
        <pt x="197" y="-10" on="0"/>
        <pt x="114" y="25" on="0"/>
        <pt x="60" y="91" on="0"/>
        <pt x="35" y="185" on="0"/>
        <pt x="35" y="244" on="1"/>
        <pt x="35" y="301" on="0"/>
        <pt x="63" y="398" on="0"/>
        <pt x="120" y="469" on="0"/>
        <pt x="206" y="510" on="0"/>
        <pt x="263" y="510" on="1"/>
      </contour>
      <contour>
        <pt x="224" y="426" on="0"/>
        <pt x="187" y="400" on="0"/>
        <pt x="166" y="353" on="0"/>
        <pt x="158" y="290" on="0"/>
        <pt x="158" y="254" on="1"/>
        <pt x="158" y="217" on="0"/>
        <pt x="167" y="151" on="0"/>
        <pt x="191" y="102" on="0"/>
        <pt x="232" y="74" on="0"/>
        <pt x="264" y="74" on="1"/>
        <pt x="293" y="74" on="0"/>
        <pt x="330" y="100" on="0"/>
        <pt x="351" y="147" on="0"/>
        <pt x="359" y="209" on="0"/>
        <pt x="359" y="245" on="1"/>
        <pt x="359" y="282" on="0"/>
        <pt x="350" y="348" on="0"/>
        <pt x="326" y="398" on="0"/>
        <pt x="285" y="426" on="0"/>
        <pt x="253" y="426" on="1"/>
      </contour>
      <contour>
        <pt x="200" y="590" on="1"/>
        <pt x="370" y="779" on="1"/>
        <pt x="446" y="708" on="1"/>
        <pt x="416" y="671" on="0"/>
        <pt x="347" y="609" on="0"/>
        <pt x="318" y="586" on="1"/>
        <pt x="284" y="560" on="0"/>
        <pt x="249" y="538" on="1"/>
      </contour>
    </TTGlyph>
    <TTGlyph name="ocircumflex" xMin="35" yMin="-10" xMax="482" yMax="779">
      <contour>
        <pt x="378" y="510" on="0"/>
        <pt x="482" y="374" on="0"/>
        <pt x="482" y="255" on="1"/>
        <pt x="482" y="199" on="0"/>
        <pt x="454" y="102" on="0"/>
        <pt x="397" y="31" on="0"/>
        <pt x="311" y="-10" on="0"/>
        <pt x="254" y="-10" on="1"/>
        <pt x="197" y="-10" on="0"/>
        <pt x="114" y="25" on="0"/>
        <pt x="60" y="91" on="0"/>
        <pt x="35" y="185" on="0"/>
        <pt x="35" y="244" on="1"/>
        <pt x="35" y="301" on="0"/>
        <pt x="63" y="398" on="0"/>
        <pt x="120" y="469" on="0"/>
        <pt x="206" y="510" on="0"/>
        <pt x="263" y="510" on="1"/>
      </contour>
      <contour>
        <pt x="224" y="426" on="0"/>
        <pt x="187" y="400" on="0"/>
        <pt x="166" y="353" on="0"/>
        <pt x="158" y="290" on="0"/>
        <pt x="158" y="254" on="1"/>
        <pt x="158" y="217" on="0"/>
        <pt x="167" y="151" on="0"/>
        <pt x="191" y="102" on="0"/>
        <pt x="232" y="74" on="0"/>
        <pt x="264" y="74" on="1"/>
        <pt x="293" y="74" on="0"/>
        <pt x="330" y="100" on="0"/>
        <pt x="351" y="147" on="0"/>
        <pt x="359" y="209" on="0"/>
        <pt x="359" y="245" on="1"/>
        <pt x="359" y="282" on="0"/>
        <pt x="350" y="348" on="0"/>
        <pt x="326" y="398" on="0"/>
        <pt x="285" y="426" on="0"/>
        <pt x="253" y="426" on="1"/>
      </contour>
      <contour>
        <pt x="76" y="592" on="1"/>
        <pt x="264" y="779" on="1"/>
        <pt x="451" y="592" on="1"/>
        <pt x="408" y="538" on="1"/>
        <pt x="397" y="545" on="1"/>
        <pt x="385" y="552" on="0"/>
        <pt x="344" y="579" on="0"/>
        <pt x="292" y="618" on="0"/>
        <pt x="264" y="642" on="1"/>
        <pt x="235" y="617" on="0"/>
        <pt x="182" y="579" on="0"/>
        <pt x="142" y="552" on="0"/>
        <pt x="131" y="545" on="1"/>
        <pt x="119" y="538" on="1"/>
      </contour>
    </TTGlyph>
</ttFont>
